<?xml version="1.0" encoding="UTF-8" standalone="no"?>
<svg width="210px" height="210px" viewBox="0 0 210 210" version="1.1" xmlns="http://www.w3.org/2000/svg" xmlns:xlink="http://www.w3.org/1999/xlink">
    <!-- Generator: Sketch 3.7.2 (28276) - http://www.bohemiancoding.com/sketch -->
    <title>icon_SampleC</title>
    <desc>Created with Sketch.</desc>
    <defs></defs>
    <g id="Symbols" stroke="none" stroke-width="1" fill="none" fill-rule="evenodd">
        <g id="icon_SampleC" fill="#6B7CBC">
            <path d="M105,210 C162.989899,210 210,162.989899 210,105 C210,47.0101013 162.989899,0 105,0 C47.0101013,0 0,47.0101013 0,105 C0,162.989899 47.0101013,210 105,210 Z M105,194 C154.153343,194 194,154.153343 194,105 C194,55.8466573 154.153343,16 105,16 C55.8466573,16 16,55.8466573 16,105 C16,154.153343 55.8466573,194 105,194 Z M152.704257,75.6606791 C155.327115,77.2999676 156.474603,80.2506458 156.146751,84.5128084 C155.8189,89.5946072 153.769817,94.0206246 149.999439,97.7910022 C149.835506,97.7910022 149.753547,97.8729611 149.753547,98.0368947 L149.261762,98.2827872 C142.868526,104.348172 135.163979,105.987429 126.147869,103.200637 C125.820017,102.872785 125.49215,102.708852 125.164299,102.708852 C123.688944,102.381 122.623415,102.708852 121.967697,103.692422 L113.115567,113.282228 L139.426063,136.887906 C140.081781,137.379694 140.081781,137.953437 139.426063,138.609154 L127.131439,151.14967 C126.47572,151.641458 125.901976,151.641458 125.410191,151.14967 C118.197303,142.133568 110.574715,133.363484 102.542191,124.839175 L79.9200828,148.936638 C78.1168608,150.903787 75.8628648,151.846366 73.1580475,151.764401 C70.4532145,151.682437 68.1992169,150.739858 66.3959965,148.936638 C64.592776,146.969489 63.6911792,144.592551 63.6911792,141.805756 C63.6911792,139.018961 64.6747397,136.805951 66.6418889,135.166659 L90.4934594,112.298658 L87.5427496,109.347949 C86.7230976,108.528297 86.6411386,107.708676 87.2968572,106.889024 L87.7886421,105.659562 C84.6739831,102.380985 82.2150898,100.208948 80.4118678,99.1434187 C78.6086458,98.0778741 76.4776038,97.6270686 74.0186633,97.7910022 C69.5925767,97.9549358 65.6583363,100.249911 62.2158243,104.675992 C59.5929581,107.954568 58.9372522,113.036304 60.2486845,119.921325 C60.4126133,120.904895 60.2486876,121.39668 59.7568995,121.39668 C58.9372537,121.39668 58.1176205,120.904895 57.2979748,119.921325 C55.822612,118.282037 54.7980708,115.495276 54.2243188,111.560981 C53.6505667,107.626686 54.1833285,102.790842 55.8226199,97.0533248 C58.7733438,89.6765189 62.7075841,83.5292699 67.6254589,78.6113889 C69.5926081,76.6442333 71.5597228,74.9230017 73.5268784,73.4476468 C74.1825969,72.9558619 75.3300846,72.7509488 76.9693731,72.8329077 C78.6086615,72.9148824 79.6741903,72.7099694 80.1659753,72.2181844 C80.9856274,71.3985323 81.3954377,70.0871268 81.3954377,68.2839048 L80.4118678,67.3003348 C79.7561492,66.6446163 79.7561492,66.0708724 80.4118678,65.5790875 L88.0345346,57.9564206 C88.5263196,57.3007021 89.1000634,57.3007021 89.755782,57.9564206 L102.050406,70.2510446 C102.706124,70.9067631 102.706124,71.5624659 102.050406,72.2181844 L94.4277391,79.8408513 C93.9359541,80.3326362 93.3622102,80.3326362 92.7064917,79.8408513 L90.7393519,77.627819 C88.6082785,77.627819 87.2148983,78.4474553 86.5591797,80.0867437 C85.4116763,82.5456843 85.1657838,85.2504701 85.8215023,88.2011955 C86.3132873,89.840484 89.2639655,93.3649061 94.6736315,98.7745721 L95.9030939,98.0368947 C96.8866638,97.5451097 97.7063002,97.6270686 98.3620187,98.2827872 C98.5259523,98.6106386 99.5914654,99.7581263 101.558621,101.725282 L110.902535,92.6272602 C111.722187,91.9715416 112.050039,90.9060128 111.886105,89.4306579 C111.886105,88.7749394 111.804146,88.3651291 111.640213,88.2011955 C108.853421,78.8572341 110.410719,70.9887535 116.31217,64.5955176 L116.803955,64.1037326 C120.73825,60.1694372 125.082309,58.0383796 129.836256,57.7105282 C131.147693,57.5465946 132.78695,57.8334665 134.754106,58.571144 C136.721261,59.3088371 137.950708,60.2514119 138.442493,61.3989153 L126.639654,73.2017543 L126.147869,73.9394318 L125.901976,74.1853242 C125.738043,74.3492578 125.656084,74.6771092 125.656084,75.1688942 C125.656084,75.6606791 125.738043,76.0705052 125.901976,76.3983566 L126.393761,76.8901415 L126.885546,77.3819265 L136.967138,87.7094106 L137.704815,88.447088 L137.950708,88.6929805 C138.114641,88.8569141 138.442493,88.938873 138.934278,88.938873 C139.426063,88.938873 139.753914,88.8569141 139.917848,88.6929805 L140.409633,88.447088 L140.901418,87.7094106 L152.704257,75.6606791 Z"></path>
        </g>
    </g>
</svg>