<?xml version="1.0" encoding="UTF-8" standalone="no"?>
<svg width="211px" height="211px" viewBox="0 0 211 211" version="1.1" xmlns="http://www.w3.org/2000/svg" xmlns:xlink="http://www.w3.org/1999/xlink">
    <!-- Generator: Sketch 3.7.2 (28276) - http://www.bohemiancoding.com/sketch -->
    <title>icon_2.2D</title>
    <desc>Created with Sketch.</desc>
    <defs></defs>
    <g id="Page-1" stroke="none" stroke-width="1" fill="none" fill-rule="evenodd">
        <g id="icon_2.2D" fill="#6B7CBC">
            <path d="M208.194428,103.707746 C207.720407,75.5982461 197.60914,51.5743188 177.860295,31.6352405 C157.625794,11.2057677 133.143973,0.991210938 104.414062,0.991210938 C75.6841517,0.991210938 51.2023311,11.2057677 30.9678297,31.6352405 C10.7333104,52.0646834 0.616210938,76.7823646 0.616210938,105.789062 C0.616210938,107.195801 0.640005978,108.592453 0.687596097,109.979017 C1.02410177,124.593465 4.41294256,138.651371 10.8542043,152.153114 L10.9345835,152.153114 C15.8535729,162.16186 22.5313139,171.425098 30.9678297,179.942884 C51.2023311,200.372345 75.6841517,210.586914 104.414062,210.586914 C133.143973,210.586914 157.625794,200.372345 177.860295,179.942884 C186.296816,171.425098 192.974558,162.16186 197.893547,152.153114 L198.061044,152.153114 C204.857371,137.907118 208.255476,123.041955 208.255476,107.55718 C208.255476,106.265469 208.235126,104.982325 208.194428,103.707746 Z M108.16469,18.5622451 C121.835998,19.0841979 134.313355,22.4825995 145.596888,28.7575086 L138.284602,41.1278194 L144.771968,44.8441473 L151.958698,32.6862411 C156.693308,35.9132862 161.199567,39.6905544 165.477485,44.0180505 C170.548184,49.1474995 174.85468,54.6014794 178.396981,60.380008 L167.014365,67.1421143 L170.721431,73.1811471 L182.001021,66.8990523 C187.541593,78.090419 190.439083,90.404314 190.693541,103.840852 L178.598947,103.840852 L178.598947,111.273507 L190.56414,111.273507 C189.375291,133.08239 181.01315,151.844409 165.477485,167.560074 C148.654459,184.578057 128.300198,193.086914 104.414062,193.086914 C80.5279267,193.086914 60.1736661,184.578057 43.3506397,167.560074 C27.8149839,151.844409 19.4528355,133.08239 18.2639847,111.273507 L30.3163015,111.273507 L30.3163015,103.840852 L18.1345844,103.840852 C18.3894696,90.3817773 21.2962624,78.0491145 26.85501,66.8427488 L38.6572003,73.1811471 L42.3642664,67.1421143 L30.4646766,60.3253602 C34.0006131,54.5670909 38.2959317,49.1313268 43.3506397,44.0180505 C47.6472632,39.6716324 52.1742285,35.8802645 56.9315463,32.6439419 L64.1432799,44.8441473 L70.6306456,41.1278194 L63.2968235,28.721075 C74.5870891,22.4561408 87.0716252,19.0687882 100.750558,18.5589584 L100.750558,33.2306227 L108.16469,33.2306227 L108.16469,18.5622451 Z M146.946429,77.8265569 L150.714286,81.7178847 L120.571429,122.576827 L120.571429,124.522491 C120.571429,129.062397 119.158482,132.791547 116.332589,135.710059 C113.506696,138.62857 109.895853,140.087802 105.5,140.087802 C101.104147,140.087802 97.4933036,138.62857 94.6674107,135.710059 C91.8415179,132.791547 90.4285714,129.062397 90.4285714,124.522491 C90.4285714,119.982588 91.8415179,116.253419 94.6674107,113.334923 C97.4933036,110.416428 101.104147,108.95718 105.5,108.95718 L107.383929,108.95718 L146.946429,77.8265569 Z" id="icon_SampleA-Copy-2"></path>
        </g>
    </g>
</svg>