<?xml version="1.0" encoding="UTF-8" standalone="no"?>
<svg width="211px" height="211px" viewBox="0 0 211 211" version="1.1" xmlns="http://www.w3.org/2000/svg" xmlns:xlink="http://www.w3.org/1999/xlink">
    <!-- Generator: Sketch 3.7.2 (28276) - http://www.bohemiancoding.com/sketch -->
    <title>icon_2.2G</title>
    <desc>Created with Sketch.</desc>
    <defs></defs>
    <g id="Page-1" stroke="none" stroke-width="1" fill="none" fill-rule="evenodd">
        <g id="icon_2.2G" fill="#6B7CBC">
            <path d="M63.6818288,147.318171 L63.6818288,164.045457 L46.9545428,164.045457 L46.9545428,147.318171 L63.6818288,147.318171 Z M63.6818288,46.9545428 L63.6818288,63.6817996 L46.9545428,63.6817996 L46.9545428,46.9545428 L63.6818288,46.9545428 Z M164.045457,46.9545428 L164.045457,63.6817996 L147.3182,63.6817996 L147.3182,46.9545428 L164.045457,46.9545428 Z M30.2272743,180.642043 L80.4090856,180.642043 L80.4090856,130.590914 L30.2272743,130.590914 L30.2272743,180.642043 Z M30.2272743,80.4090856 L80.4090856,80.4090856 L80.4090856,30.2272568 L30.2272743,30.2272568 L30.2272743,80.4090856 Z M130.590914,80.4090856 L180.772743,80.4090856 L180.772743,30.2272568 L130.590914,30.2272568 L130.590914,80.4090856 Z M97.1363716,113.863628 L97.1363716,197.5 L13.5,197.5 L13.5,113.863628 L97.1363716,113.863628 Z M164.045457,180.772726 L164.045457,197.5 L147.3182,197.5 L147.3182,180.772726 L164.045457,180.772726 Z M197.5,180.772726 L197.5,197.5 L180.772743,197.5 L180.772743,180.772726 L197.5,180.772726 Z M197.5,113.863628 L197.5,164.045457 L147.3182,164.045457 L147.3182,147.318171 L130.590914,147.318171 L130.590914,197.5 L113.863628,197.5 L113.863628,113.863628 L164.045457,113.863628 L164.045457,130.590914 L180.772743,130.590914 L180.772743,113.863628 L197.5,113.863628 Z M97.1363716,13.5 L97.1363716,97.1363716 L13.5,97.1363716 L13.5,13.5 L97.1363716,13.5 Z M197.5,13.5 L197.5,97.1363716 L113.863628,97.1363716 L113.863628,13.5 L197.5,13.5 Z" id="Page-1"></path>
        </g>
    </g>
</svg>