<?xml version="1.0" encoding="UTF-8" standalone="no"?>
<svg width="211px" height="211px" viewBox="0 0 211 211" version="1.1" xmlns="http://www.w3.org/2000/svg" xmlns:xlink="http://www.w3.org/1999/xlink">
    <!-- Generator: Sketch 3.7.2 (28276) - http://www.bohemiancoding.com/sketch -->
    <title>icon_SampleA</title>
    <desc>Created with Sketch.</desc>
    <defs></defs>
    <g id="Symbols" stroke="none" stroke-width="1" fill="none" fill-rule="evenodd">
        <g id="icon_SampleA" fill="#6B7CBC">
            <path d="M105.414062,0.991210938 C134.42076,0.991210938 159.138442,11.2057677 179.567884,31.6352405 C199.997357,52.0646834 210.211914,76.7823646 210.211914,105.789062 C210.211914,134.79576 199.997357,159.513442 179.567884,179.942884 C159.138442,200.372345 134.42076,210.586914 105.414062,210.586914 C76.4073646,210.586914 51.6896834,200.372345 31.2602405,179.942884 C10.8307797,159.513442 0.616210938,134.79576 0.616210938,105.789062 C0.616210938,76.7823646 10.8307797,52.0646834 31.2602405,31.6352405 C51.6896834,11.2057677 76.4073646,0.991210938 105.414062,0.991210938 L105.414062,0.991210938 Z M169.04133,169.41633 C174.031713,164.425946 178.086372,159.279653 181.205366,153.97736 L168.573482,146.491799 L172.316262,139.941934 L184.948146,147.427495 C191.498042,134.95149 194.928884,122.319726 195.240792,109.531843 L180.269671,109.531843 L180.269671,102.046282 L195.240792,102.046282 C194.928884,89.2583991 191.498042,76.626635 184.948146,64.1506304 L172.316262,71.6361912 L168.573482,65.0863255 L181.205366,57.6007647 C178.086372,52.2984725 174.031713,47.1521793 169.04133,42.1617955 C164.050946,37.1714116 158.904653,33.1167528 153.60236,29.9977591 L146.116799,42.629643 L139.566934,38.8868626 L147.052495,26.2549787 C134.57649,19.7050831 121.944726,16.2742409 109.156843,15.9623326 L109.156843,30.9334542 L101.671282,30.9334542 L101.671282,15.9623326 C88.8833991,16.2742409 76.251635,19.7050831 63.7756304,26.2549787 L71.2611912,38.8868626 L64.7113255,42.629643 L57.2257647,29.9977591 C51.9234725,33.1167528 46.7772093,37.1714116 41.7867955,42.1617955 C36.7963817,47.1521793 32.7417528,52.2984725 29.6227591,57.6007647 L42.254643,65.0863255 L38.5118626,71.6361912 L25.8799787,64.1506304 C19.3300801,76.626635 15.899232,89.2583991 15.5873326,102.046282 L30.5584542,102.046282 L30.5584542,109.531843 L15.5873326,109.531843 C15.899232,122.319726 19.3300801,134.95149 25.8799787,147.427495 L38.5118626,139.941934 L42.254643,146.491799 L29.6227591,153.97736 C32.7417528,159.279653 36.7963817,164.425946 41.7867955,169.41633 C46.7772093,174.406713 51.9234725,178.461372 57.2257647,181.580366 L64.7113255,168.948482 L71.2611912,172.691262 L63.7756304,185.323146 C76.251635,191.873045 88.8833991,195.303893 101.671282,195.615792 L101.671282,180.644671 L109.156843,180.644671 L109.156843,195.615792 C121.944726,195.303893 134.57649,191.873045 147.052495,185.323146 L139.566934,172.691262 L146.116799,168.948482 L153.60236,181.580366 C158.904653,178.461372 164.050946,174.406713 169.04133,169.41633 L169.04133,169.41633 Z M172.78411,98.7713492 L172.78411,113.742471 L118.045946,113.742471 C114.926953,118.420976 110.716355,120.760184 105.414062,120.760184 C101.047465,120.760184 97.4606541,119.356641 94.6535688,116.549556 C91.8464835,113.742471 90.4429408,110.15566 90.4429408,105.789063 C90.4429408,100.174862 92.9381178,95.8083247 97.9285017,92.6893311 L97.9285017,60.8756975 L112.899623,60.8756975 L112.899623,92.6893311 C115.082922,93.9369345 116.954282,95.9642639 118.513794,98.7713492 L172.78411,98.7713492 Z"></path>
        </g>
    </g>
</svg>