<?xml version="1.0" encoding="UTF-8" standalone="no"?>
<svg width="211px" height="211px" viewBox="0 0 211 211" version="1.1" xmlns="http://www.w3.org/2000/svg" xmlns:xlink="http://www.w3.org/1999/xlink">
    <!-- Generator: Sketch 3.7.2 (28276) - http://www.bohemiancoding.com/sketch -->
    <title>icon_2.3D</title>
    <desc>Created with Sketch.</desc>
    <defs></defs>
    <g id="Page-1" stroke="none" stroke-width="1" fill="none" fill-rule="evenodd">
        <g id="icon_2.3D" fill="#6B7CBC">
            <path d="M105.414062,0.991210938 C134.42076,0.991210938 159.138442,11.2057677 179.567884,31.6352405 C199.997357,52.0646834 210.211914,76.7823646 210.211914,105.789062 C210.211914,134.79576 199.997357,159.513442 179.567884,179.942884 C159.138442,200.372345 134.42076,210.586914 105.414062,210.586914 C76.4073646,210.586914 51.6896834,200.372345 31.2602405,179.942884 C10.8307797,159.513442 0.616210938,134.79576 0.616210938,105.789062 C0.616210938,76.7823646 10.8307797,52.0646834 31.2602405,31.6352405 C51.6896834,11.2057677 76.4073646,0.991210938 105.414062,0.991210938 Z M105.414062,18.4912109 C129.576985,18.4912109 150.167107,27.0000577 167.185074,44.0180505 C184.203067,61.0360184 192.711914,81.6261396 192.711914,105.789062 C192.711914,129.951985 184.203067,150.542107 167.185074,167.560074 C150.167107,184.578057 129.576985,193.086914 105.414062,193.086914 C81.2511396,193.086914 60.6610184,184.578057 43.6430505,167.560074 C26.6250677,150.542107 18.1162109,129.951985 18.1162109,105.789062 C18.1162109,81.6261396 26.6250677,61.0360184 43.6430505,44.0180505 C60.6610184,27.0000577 81.2511396,18.4912109 105.414062,18.4912109 Z M139.214057,54.0996908 L70.6806625,54.0996908 L51.0996908,87.7873841 L51.0996908,93.7879977 L51.0996908,101.262461 C51.0996908,103.087216 51.3979644,104.894412 51.9945202,106.684078 C52.591076,108.473743 53.4157143,110.035289 54.4684601,111.368769 L54.5737342,148.425232 C54.5737342,152.144933 55.9247374,155.320669 58.6267855,157.952532 C61.3288322,160.584397 64.6098437,161.900309 68.4699009,161.900309 L141.424818,161.900309 C145.284889,161.900309 148.600984,160.584397 151.373212,157.952532 C154.14544,155.320669 155.53154,152.144933 155.53154,148.425232 L155.53154,111.368769 C156.72465,109.965111 157.584387,108.491288 158.11075,106.94726 C158.637127,105.403231 158.900309,103.508312 158.900309,101.262461 L158.900309,93.1563669 L158.900309,87.7873841 L139.214057,54.0996908 Z M148.794001,148.425232 C148.794001,150.24999 148.039545,151.829086 146.530606,153.162564 C145.02168,154.496041 143.319765,155.162771 141.424818,155.162771 L68.4699009,155.162771 C66.5749682,155.162771 64.890597,154.496041 63.4167537,153.162564 C61.9429103,151.829086 61.2059988,150.24999 61.2059988,148.425232 L61.2059988,141.687693 L148.794001,141.687693 L148.794001,148.425232 Z M148.794001,134.950155 L61.2059988,134.950155 L61.2059988,114.737539 L67.8382701,114.737539 C69.6630247,114.737539 71.7684786,114.000627 74.1547126,112.526791 C76.5409332,111.05294 78.3656608,109.052754 79.6289628,106.526163 C80.9624295,108.982576 82.8047151,110.965218 85.1558466,112.474143 C87.5069781,113.983083 89.8756137,114.737539 92.2618477,114.737539 C94.8586164,114.737539 97.3851664,114.053261 99.8415787,112.684691 C102.297978,111.316122 103.982349,109.508939 104.894733,107.263075 C105.877295,109.438761 107.579197,111.228399 110.00052,112.632058 C112.42183,114.035716 114.895746,114.737539 117.422337,114.737539 C119.878749,114.737539 122.282474,113.912904 124.633605,112.263595 C126.984737,110.6143 128.827022,108.56148 130.160503,106.105067 C131.704517,108.631658 133.283621,110.702022 134.897828,112.316229 C136.512034,113.930449 138.898228,114.737539 142.056463,114.737539 C142.54775,114.737539 143.6882,114.755083 145.477866,114.790172 C147.267531,114.825261 148.372905,114.807717 148.794001,114.737539 L148.794001,134.950155 Z M152.162771,101.262461 C152.162771,103.578504 151.05741,105.280419 148.846635,106.368249 C146.635873,107.456092 144.372505,108 142.056463,108 C139.319324,108 136.915586,107.315722 134.845194,105.947153 C132.774789,104.578584 131.739607,103.017038 131.739607,101.262461 L128.581385,101.262461 C128.581385,102.946859 127.353199,104.490861 124.896787,105.894519 C122.440388,107.298178 119.913838,108 117.317056,108 C114.860657,108 112.456919,107.280633 110.105788,105.841886 C107.754656,104.403125 106.579117,102.876668 106.579117,101.262461 L103.315615,101.262461 C103.315615,102.946859 102.122519,104.490861 99.7362979,105.894519 C97.3500773,107.298178 94.9287946,108 92.4723823,108 C89.8756137,108 87.3666082,107.421003 84.9452985,106.262982 C82.5239753,105.10496 81.3133474,103.438134 81.3133474,101.262461 L78.1551127,101.262461 C78.1551127,102.946859 77.0672967,104.508405 74.8916242,105.947153 C72.7159517,107.385914 70.3999497,108.105267 67.9435374,108.105267 C65.416947,108.105267 63.1009423,107.543815 60.9954507,106.420883 C58.8899591,105.297964 57.8372295,103.578504 57.8372295,101.262461 L57.8372295,94.5249227 L152.162771,94.5249227 L152.162771,101.262461 Z M57.9425035,87.7873841 L73.6283357,60.8372295 L136.266384,60.8372295 L152.268038,87.7873841 L57.9425035,87.7873841 Z" id="icon_SampleA"></path>
        </g>
    </g>
</svg>