<?xml version="1.0" encoding="UTF-8" standalone="no"?>
<svg width="211px" height="211px" viewBox="0 0 211 211" version="1.1" xmlns="http://www.w3.org/2000/svg" xmlns:xlink="http://www.w3.org/1999/xlink">
    <!-- Generator: Sketch 3.7.2 (28276) - http://www.bohemiancoding.com/sketch -->
    <title>icon_2.2C</title>
    <desc>Created with Sketch.</desc>
    <defs></defs>
    <g id="Page-1" stroke="none" stroke-width="1" fill="none" fill-rule="evenodd">
        <g id="icon_2.2C" fill="#6B7CBC">
            <path d="M179.567884,31.6352405 C199.997357,52.0646834 210.211914,76.7823646 210.211914,105.789062 C210.211914,134.79576 199.997357,159.513442 179.567884,179.942884 C159.138442,200.372345 134.42076,210.586914 105.414062,210.586914 C76.4073646,210.586914 51.6896834,200.372345 31.2602405,179.942884 C10.8307797,159.513442 0.616210938,134.79576 0.616210938,105.789062 C0.616210938,76.7823646 10.8307797,52.0646834 31.2602405,31.6352405 C51.6896834,11.2057677 76.4073646,0.991210937 105.414062,0.991210937 C134.42076,0.991210937 159.138442,11.2057677 179.567884,31.6352405 Z M105.414062,18.4912109 C129.576985,18.4912109 150.167107,27.0000577 167.185074,44.0180505 C184.203067,61.0360184 192.711914,81.6261396 192.711914,105.789062 C192.711914,129.951985 184.203067,150.542107 167.185074,167.560074 C150.167107,184.578057 129.576985,193.086914 105.414062,193.086914 C81.2511396,193.086914 60.6610184,184.578057 43.6430505,167.560074 C26.6250677,150.542107 18.1162109,129.951985 18.1162109,105.789062 C18.1162109,81.6261396 26.6250677,61.0360184 43.6430505,44.0180505 C60.6610184,27.0000577 81.2511396,18.4912109 105.414062,18.4912109 Z M107.076917,106.991211 L132.590637,121.741211 L132.590637,151.241211 L107.076917,165.991211 L81.5631971,151.241211 L81.5631971,121.741211 L107.076917,106.991211 Z M114.530003,130.456341 C113.086155,130.87054 112.161417,131.567763 111.755763,132.548034 C111.350112,133.528302 111.195414,134.391204 111.291672,135.13676 C110.769135,134.529269 110.373801,133.894174 110.105658,133.231457 C109.837514,132.56874 109.645004,131.857708 109.528121,131.098344 C109.411238,130.338982 109.345923,129.527854 109.33217,128.664942 C109.31842,127.802027 109.311545,126.866643 109.311545,125.858761 C107.661431,126.480058 106.465115,127.349862 105.722565,128.468198 C104.980015,129.586534 104.491863,130.742822 104.258098,131.937094 C104.024329,133.131366 103.941826,134.266942 104.010582,135.343858 C104.079334,136.420774 104.086209,137.235354 104.031207,137.787617 C103.618678,137.442452 103.281784,137.00755 103.020518,136.482897 C102.75925,135.958248 102.556427,135.447409 102.412041,134.950373 C102.267656,134.453335 102.1714,134.028787 102.123273,133.676719 C102.075142,133.32465 102.05108,133.148617 102.05108,133.148617 C101.61105,133.369524 101.226029,133.680167 100.896006,134.080558 C100.565983,134.480951 100.290968,134.922757 100.070953,135.405987 C99.850938,135.889219 99.685929,136.393152 99.5759214,136.917805 C99.4659138,137.442457 99.4109108,137.953293 99.4109108,138.450332 C99.4109108,139.637701 99.6343604,140.75602 100.081266,141.805322 C100.528172,142.854624 101.14008,143.7693 101.917009,144.549374 C102.693937,145.329448 103.604925,145.943833 104.649996,146.392548 C105.695068,146.841263 106.808878,147.065617 107.99146,147.065617 C109.174042,147.065617 110.287853,146.841263 111.332924,146.392548 C112.377996,145.943833 113.288983,145.329448 114.065911,144.549374 C114.842842,143.7693 115.454749,142.854624 115.901655,141.805322 C116.348559,140.75602 116.57201,139.637701 116.57201,138.450332 C116.57201,137.746195 116.465442,137.114551 116.252301,136.555382 C116.039163,135.996216 115.801962,135.4267 115.540694,134.846823 C115.279425,134.266945 115.045662,133.63185 114.839399,132.941519 C114.633136,132.251188 114.530003,131.422803 114.530003,130.456341 Z M54.1032866,103.991211 L74.4436907,115.750412 L74.4436907,139.268814 L54.1032866,151.028015 L33.7628824,139.268814 L33.7628824,115.750412 L54.1032866,103.991211 Z M144.116211,48.1848541 L175.616211,66.3956445 L175.616211,102.817225 L144.116211,121.028015 L112.616211,102.817225 L112.616211,66.3956445 L144.116211,48.1848541 Z M157.122079,95.4104622 C156.113653,92.913534 155.085855,90.8243025 154.03865,89.1427039 C152.991441,87.4611004 152.047678,85.9897218 151.207325,84.7285192 C150.366977,83.4673165 149.675311,82.3080466 149.132313,81.2506752 C148.589319,80.1933037 148.317825,79.040408 148.317825,77.7919439 L148.317825,71.9445815 L149.326241,71.9445815 C149.610668,71.9445815 149.849843,71.8490376 150.043767,71.6579499 C150.237696,71.4668573 150.334658,71.2311798 150.334658,70.9509174 L150.334658,69.001795 C150.334658,68.7215277 150.237696,68.4858502 150.043767,68.2947625 C149.849843,68.1036698 149.610668,68.008126 149.326241,68.008126 L139.397217,68.008126 C139.112791,68.008126 138.873615,68.1036698 138.679692,68.2947625 C138.485763,68.4858502 138.388801,68.7215277 138.388801,69.001795 L138.388801,70.9509174 C138.388801,71.2311798 138.485763,71.4668573 138.679692,71.6579499 C138.873615,71.8490376 139.112791,71.9445815 139.397217,71.9445815 L140.405634,71.9445815 L140.405634,77.7919439 C140.405634,79.040408 140.13414,80.1933037 139.591146,81.2506752 C139.048148,82.3080466 138.356482,83.4673165 137.516134,84.7285192 C136.675781,85.9897218 135.732018,87.4611004 134.684809,89.1427039 C133.637603,90.8243025 132.609804,92.913534 131.601382,95.4104622 C130.954958,97.0156247 130.748106,98.7226808 130.980818,100.531677 C131.213531,102.340673 135.673789,103.245158 144.361729,103.245158 C153.04967,103.245158 157.509927,102.340673 157.742643,100.531677 C157.975355,98.7226808 157.768498,97.0156247 157.122079,95.4104622 L157.122079,95.4104622 Z M153.941684,98.8500833 C153.243549,99.0539139 152.144644,99.2513719 150.64494,99.4424626 C149.145235,99.6335538 147.050852,99.7290982 144.361729,99.7290982 C141.672607,99.7290982 139.578224,99.6335538 138.078519,99.4424626 C136.578814,99.2513719 135.479911,99.0539139 134.781773,98.8500833 C134.54906,98.7736467 134.387456,98.6144067 134.296957,98.3723575 C134.206458,98.1303098 134.199994,97.8818938 134.277565,97.6271036 C134.510277,96.9646559 134.846413,96.0983918 135.285981,95.0282769 C135.725549,93.958167 136.33318,92.7861585 137.10889,91.5122174 C138.039736,89.9580139 138.977041,89.1363346 139.92082,89.0471551 C140.864598,88.9579805 141.801898,89.168176 142.732749,89.6777515 C143.6636,90.1873319 144.575045,90.7797029 145.467108,91.454894 C146.359176,92.1300802 147.205978,92.4676708 148.007543,92.4676708 C149.636533,92.4676708 150.489799,92.0472748 150.567369,91.2064731 C150.64494,90.3656762 150.994005,90.4675893 151.614569,91.5122174 C152.390279,92.7861585 152.99791,93.958167 153.437478,95.0282769 C153.877046,96.0983918 154.213183,96.9646559 154.445894,97.6271036 C154.523465,97.8818938 154.517001,98.1303098 154.426503,98.3723575 C154.336,98.6144067 154.1744,98.7736467 153.941684,98.8500833 Z M82.4982843,59.9912109 L104.190697,72.5320358 L104.190697,97.6136856 L82.4982843,110.154511 L60.8058713,97.6136856 L60.8058713,72.5320358 L82.4982843,59.9912109 Z M82.5064008,84.5107881 C82.3706903,85.5856884 82.1264171,86.4700895 81.7735734,87.1640122 C81.4207271,87.857935 81.0577112,88.4804163 80.6845099,89.0314745 C80.3113086,89.5825301 79.9788251,90.1199724 79.6870491,90.6438171 C79.3952757,91.1676618 79.2493903,91.8037486 79.2493903,92.5520982 C79.2493903,93.4773296 79.5852636,94.2664858 80.2570259,94.9195905 C80.9287883,95.572695 81.719283,95.8992425 82.6285361,95.8992425 C83.5377918,95.8992425 84.3282865,95.572695 85.0000488,94.9195905 C85.6718111,94.2664858 86.0076871,93.4773296 86.0076871,92.5520982 C86.0076871,91.8037486 85.8617991,91.1676618 85.5700257,90.6438171 C85.2782496,90.1199724 84.9457662,89.5825301 84.5725649,89.0314745 C84.1993636,88.4804163 83.8363476,87.857935 83.4835039,87.1640122 C83.1306577,86.4700895 82.8863845,85.5856884 82.7506766,84.5107881 C82.737104,84.4427558 82.6963913,84.4087397 82.6285361,84.4087397 C82.5606834,84.4087397 82.5199708,84.4427558 82.5064008,84.5107881 L82.5064008,84.5107881 Z M76.2570105,75.1020458 C76.1213,76.1769487 75.8770268,77.0613471 75.5241832,77.7552725 C75.1713387,78.4491953 74.8083212,79.0716766 74.4351201,79.6227322 C74.0619194,80.1737904 73.7294362,80.714634 73.4376609,81.2452815 C73.1458855,81.7759289 73,82.415417 73,83.1637666 C73,84.0753916 73.3324832,84.8577443 73.9974595,85.5108508 C74.6624358,86.1639548 75.4563243,86.4905028 76.3791484,86.4905028 C77.2884015,86.4905028 78.0788962,86.1639548 78.7506586,85.5108508 C79.4224209,84.8577443 79.7582968,84.0753916 79.7582968,83.1637666 C79.7582968,82.415417 79.6124114,81.7759289 79.3206354,81.2452815 C79.028862,80.714634 78.6963785,80.1737904 78.3231772,79.6227322 C77.9499759,79.0716766 77.5869574,78.4491953 77.2341137,77.7552725 C76.88127,77.0613471 76.6369968,76.1769487 76.5012863,75.1020458 C76.4877163,75.0340161 76.4436112,75 76.3689709,75 C76.2943307,75 76.2570105,75.0340161 76.2570105,75.1020458 L76.2570105,75.1020458 Z M88.7557884,75.1020458 C88.6200779,76.1769487 88.3758047,77.0613471 88.0229611,77.7552725 C87.6701174,78.4491953 87.3070988,79.0716766 86.9338975,79.6227322 C86.5606962,80.1737904 86.2282128,80.714634 85.9364393,81.2452815 C85.6446633,81.7759289 85.4987779,82.415417 85.4987779,83.1637666 C85.4987779,84.0753916 85.8346539,84.8577443 86.5064162,85.5108508 C87.1781785,86.1639548 87.9686732,86.4905028 88.8779263,86.4905028 C89.8007495,86.4905028 90.5946393,86.1639548 91.259614,85.5108508 C91.9245913,84.8577443 92.2570747,84.0753916 92.2570747,83.1637666 C92.2570747,82.415417 92.1111893,81.7759289 91.8194133,81.2452815 C91.5276399,80.714634 91.1951564,80.1737904 90.8219551,79.6227322 C90.4487538,79.0716766 90.0857353,78.4491953 89.7328916,77.7552725 C89.3800479,77.0613471 89.1357747,76.1769487 89.0000642,75.1020458 C89.0000642,75.0340161 88.9627441,75 88.8881038,75 C88.8134636,75 88.7693584,75.0340161 88.7557884,75.1020458 L88.7557884,75.1020458 Z M61.675907,129.095862 L61.675907,126.819699 C61.675907,126.511468 61.5623902,126.244731 61.3353542,126.019487 C61.1083206,125.79424 60.8394652,125.681618 60.5287858,125.681618 L54.7931801,125.681618 L54.7931801,123.405455 L58.2345435,123.405455 C58.545223,123.405455 58.8140783,123.292833 59.041112,123.067586 C59.2681479,122.842342 59.3816647,122.575605 59.3816647,122.267374 L59.3816647,121.129292 C59.3816647,120.821061 59.2681479,120.554325 59.041112,120.32908 C58.8140783,120.103833 58.545223,119.991211 58.2345435,119.991211 L50.2046955,119.991211 C49.8940161,119.991211 49.6251607,120.103833 49.3981271,120.32908 C49.1710912,120.554325 49.0575744,120.821061 49.0575744,121.129292 L49.0575744,122.267374 C49.0575744,122.575605 49.1710912,122.842342 49.3981271,123.067586 C49.6251607,123.292833 49.8940161,123.405455 50.2046955,123.405455 L53.646059,123.405455 L53.646059,125.681618 L47.9104532,125.681618 C47.5997731,125.681618 47.3309191,125.79424 47.1038837,126.019487 C46.8768482,126.244731 46.7633321,126.511468 46.7633321,126.819699 L46.7633321,129.095862 C46.452652,129.095862 46.183798,129.208484 45.9567625,129.433731 C45.729727,129.658976 45.6162109,129.925712 45.6162109,130.233943 L45.6162109,132.510106 C45.6162109,132.818338 45.729727,133.085073 45.9567625,133.31032 C46.183798,133.535566 46.452652,133.648188 46.7633321,133.648188 L47.9104532,133.648188 C48.2211326,133.648188 48.489988,133.535566 48.7170216,133.31032 C48.9440576,133.085073 49.0575744,132.818338 49.0575744,132.510106 L49.0575744,131.372025 L49.0575744,130.233943 C49.0575744,129.925712 48.9440576,129.658976 48.7170216,129.433731 C48.489988,129.208484 48.2211326,129.095862 47.9104532,129.095862 L47.9104532,126.819699 L53.646059,126.819699 L53.646059,129.095862 C53.3353796,129.095862 53.0665242,129.208484 52.8394906,129.433731 C52.6124546,129.658976 52.4989378,129.925712 52.4989378,130.233943 L52.4989378,131.372025 L52.4989378,132.510106 C52.4989378,132.818338 52.6124546,133.085073 52.8394906,133.31032 C53.0665242,133.535566 53.3353796,133.648188 53.646059,133.648188 L54.7931801,133.648188 C55.1038595,133.648188 55.3727149,133.535566 55.5997485,133.31032 C55.8267844,133.085073 55.9403013,132.818338 55.9403013,132.510106 L55.9403013,131.372025 L55.9403013,130.233943 C55.9403013,129.925712 55.8267844,129.658976 55.5997485,129.433731 C55.3727149,129.208484 55.1038595,129.095862 54.7931801,129.095862 L54.7931801,126.819699 L60.5287858,126.819699 L60.5287858,129.095862 C60.2181064,129.095862 59.9492511,129.208484 59.7222174,129.433731 C59.4951815,129.658976 59.3816647,129.925712 59.3816647,130.233943 L59.3816647,131.372025 L59.3816647,132.510106 C59.3816647,132.818338 59.4951815,133.085073 59.7222174,133.31032 C59.9492511,133.535566 60.2181064,133.648188 60.5287858,133.648188 L61.675907,133.648188 C61.9865864,133.648188 62.2554418,133.535566 62.4824754,133.31032 C62.7095113,133.085073 62.8230281,132.818338 62.8230281,132.510106 L62.8230281,130.233943 C62.8230281,129.925712 62.7095113,129.658976 62.4824754,129.433731 C62.2554418,129.208484 61.9865864,129.095862 61.675907,129.095862 L61.675907,129.095862 Z" id="icon_SampleA-Copy-2"></path>
        </g>
    </g>
</svg>