<?xml version="1.0" encoding="UTF-8" standalone="no"?>
<svg width="210px" height="210px" viewBox="0 0 210 210" version="1.1" xmlns="http://www.w3.org/2000/svg" xmlns:xlink="http://www.w3.org/1999/xlink">
    <!-- Generator: Sketch 3.7.2 (28276) - http://www.bohemiancoding.com/sketch -->
    <title>icon_SampleB</title>
    <desc>Created with Sketch.</desc>
    <defs></defs>
    <g id="Symbols" stroke="none" stroke-width="1" fill="none" fill-rule="evenodd">
        <g id="icon_SampleB" fill="#6B7CBC">
            <path d="M105,210 C162.989899,210 210,162.989899 210,105 C210,47.0101013 162.989899,0 105,0 C47.0101013,0 0,47.0101013 0,105 C0,162.989899 47.0101013,210 105,210 Z M106,195 C155.153343,195 195,155.153343 195,106 C195,56.8466573 155.153343,17 106,17 C56.8466573,17 17,56.8466573 17,106 C17,155.153343 56.8466573,195 106,195 Z M51,124.957275 C51,123.463177 51.7470357,122.716146 53.2411296,122.716146 L122.716146,122.716146 L122.716146,104.787109 L158.574219,131.680664 L122.716146,158.574219 L122.716146,140.645182 L53.2411296,140.645182 C51.7470357,140.645182 51,139.898151 51,138.404053 L51,124.957275 Z M158.574219,84.6169434 C158.574219,86.1110417 157.827188,86.8580729 156.333089,86.8580729 L86.8580729,86.8580729 L86.8580729,104.787109 L51,77.8935547 L86.8580729,51 L86.8580729,68.9290365 L156.333089,68.9290365 C157.827188,68.9290365 158.574219,69.6760677 158.574219,71.170166 L158.574219,84.6169434 Z"></path>
        </g>
    </g>
</svg>