<?xml version="1.0" encoding="UTF-8" standalone="no"?>
<svg width="211px" height="211px" viewBox="0 0 211 211" version="1.1" xmlns="http://www.w3.org/2000/svg" xmlns:xlink="http://www.w3.org/1999/xlink">
    <!-- Generator: Sketch 3.7.2 (28276) - http://www.bohemiancoding.com/sketch -->
    <title>icon_3.3D</title>
    <desc>Created with Sketch.</desc>
    <defs></defs>
    <g id="Symbols" stroke="none" stroke-width="1" fill="none" fill-rule="evenodd">
        <g id="icon_3.3D" fill="#6B7CBC">
            <path d="M106,1 C135.06265,1 159.82801,11.23426 180.29686,31.70314 C200.76574,52.17199 211,76.93735 211,106 C211,135.06265 200.76574,159.82801 180.29686,180.29686 C159.82801,200.765728 135.06265,211 106,211 C76.93735,211 52.17199,200.765728 31.70314,180.29686 C11.234272,159.82801 1,135.06265 1,106 C1,76.93735 11.234272,52.17199 31.70314,31.70314 C52.17199,11.23426 76.93735,1 106,1 Z M106,18.5337564 C130.209532,18.5337564 150.83937,27.0590162 167.890164,44.1098357 C184.940984,61.1606301 193.466244,81.7904683 193.466244,106 C193.466244,130.209532 184.940984,150.83937 167.890164,167.890164 C150.83937,184.940974 130.209532,193.466244 106,193.466244 C81.7904683,193.466244 61.1606301,184.940974 44.1098357,167.890164 C27.0590262,150.83937 18.5337564,130.209532 18.5337564,106 C18.5337564,81.7904683 27.0590262,61.1606301 44.1098357,44.1098357 C61.1606301,27.0590162 81.7904683,18.5337564 106,18.5337564 Z M107.705432,32.059797 L168.322132,153.293198 L47.0887311,153.293198 L107.705432,32.059797 Z M111.65307,117.877462 L100.828367,117.877462 L98.5658266,72.6669786 L113.91561,72.6669786 L111.65307,117.877462 Z M97.7451195,133.633283 C97.7451195,131.041881 98.4105659,129.082934 99.7414786,127.756383 C101.072391,126.429832 103.00958,125.766567 105.553102,125.766567 C108.007897,125.766567 109.908116,126.445257 111.253816,127.802658 C112.599517,129.160059 113.272357,131.103582 113.272357,133.633283 C113.272357,136.070435 112.592123,137.99082 111.231635,139.394496 C109.871146,140.798172 107.978321,141.5 105.553102,141.5 C103.068731,141.5 101.146331,140.813597 99.7858422,139.440771 C98.4253536,138.067945 97.7451195,136.132135 97.7451195,133.633283 Z" id="icon_SampleA"></path>
        </g>
    </g>
</svg>