<?xml version="1.0" encoding="UTF-8" standalone="no"?>
<svg width="211px" height="211px" viewBox="0 0 211 211" version="1.1" xmlns="http://www.w3.org/2000/svg" xmlns:xlink="http://www.w3.org/1999/xlink">
    <!-- Generator: Sketch 3.7.2 (28276) - http://www.bohemiancoding.com/sketch -->
    <title>icon_3.3C</title>
    <desc>Created with Sketch.</desc>
    <defs></defs>
    <g id="Symbols" stroke="none" stroke-width="1" fill="none" fill-rule="evenodd">
        <g id="icon_3.3C" fill="#6B7CBC">
            <path d="M89.0844849,79.6757307 L99.5532283,79.6757307 L96.7672257,106.134974 L85.7808483,106.134974 L89.0844849,79.6757307 Z M85.5671273,79.6757307 L58.7045614,79.6757307 L61.4905641,106.134974 L82.2634907,106.134974 L85.5671273,79.6757307 Z M89.5576517,75.8860779 L103.763533,75.8860779 L96.1842271,147.88948 L62.0773524,147.88948 L54.4980469,75.8860779 L86.0402941,75.8860779 L87.6651684,62.8722543 L87.856065,61.3433394 L89.3968513,61.3433394 L113.85148,61.3433394 L113.85148,64.8335966 L89.3968513,64.8335966 L91.1285341,63.3046817 L89.5576517,75.8860779 Z M105.414062,0.991210938 C134.42076,0.991210938 159.138442,11.2057677 179.567884,31.6352405 C199.997357,52.0646834 210.211914,76.7823646 210.211914,105.789062 C210.211914,134.79576 199.997357,159.513442 179.567884,179.942884 C159.138442,200.372345 134.42076,210.586914 105.414062,210.586914 C76.4073646,210.586914 51.6896834,200.372345 31.2602405,179.942884 C10.8307797,159.513442 0.616210938,134.79576 0.616210938,105.789062 C0.616210938,76.7823646 10.8307797,52.0646834 31.2602405,31.6352405 C51.6896834,11.2057677 76.4073646,0.991210938 105.414062,0.991210938 Z M105.414062,18.4912109 C129.576985,18.4912109 150.167107,27.0000577 167.185074,44.0180505 C184.203067,61.0360184 192.711914,81.6261396 192.711914,105.789062 C192.711914,129.951985 184.203067,150.542107 167.185074,167.560074 C150.167107,184.578057 129.576985,193.086914 105.414062,193.086914 C81.2511396,193.086914 60.6610184,184.578057 43.6430505,167.560074 C26.6250677,150.542107 18.1162109,129.951985 18.1162109,105.789062 C18.1162109,81.6261396 26.6250677,61.0360184 43.6430505,44.0180505 C60.6610184,27.0000577 81.2511396,18.4912109 105.414062,18.4912109 Z M164.860116,132.62838 C164.860116,134.724058 163.162351,136.418033 161.070463,136.418033 L111.804977,136.418033 C109.709299,136.418033 108.015325,134.724058 108.015325,132.62838 L108.015325,125.049075 C108.015325,122.953397 109.709299,121.259422 111.804977,121.259422 L161.070463,121.259422 C163.162351,121.259422 164.860116,122.953397 164.860116,125.049075 L164.860116,132.62838 Z M108.015325,139.874127 C108.015325,144.057904 111.407064,147.453433 115.59463,147.453433 L157.28081,147.453433 C161.464587,147.453433 164.860116,144.057904 164.860116,139.874127 L108.015325,139.874127 Z M164.860116,117.204537 C164.860116,113.02076 161.464587,109.625231 157.28081,109.625231 L115.59463,109.625231 C111.407064,109.625231 108.015325,113.02076 108.015325,117.204537 L164.860116,117.204537 Z" id="icon_SampleA"></path>
        </g>
    </g>
</svg>