<?xml version="1.0" encoding="UTF-8" standalone="no"?>
<svg width="211px" height="211px" viewBox="0 0 211 211" version="1.1" xmlns="http://www.w3.org/2000/svg" xmlns:xlink="http://www.w3.org/1999/xlink">
    <!-- Generator: Sketch 3.7.2 (28276) - http://www.bohemiancoding.com/sketch -->
    <title>icon_2.2B</title>
    <desc>Created with Sketch.</desc>
    <defs></defs>
    <g id="Page-1" stroke="none" stroke-width="1" fill="none" fill-rule="evenodd">
        <g id="icon_2.2B" fill="#6B7CBC">
            <path d="M105.414062,0.991210938 C134.42076,0.991210938 159.138442,11.2057677 179.567884,31.6352405 C199.997357,52.0646834 210.211914,76.7823646 210.211914,105.789062 C210.211914,134.79576 199.997357,159.513442 179.567884,179.942884 C159.138442,200.372345 134.42076,210.586914 105.414062,210.586914 C76.4073646,210.586914 51.6896834,200.372345 31.2602405,179.942884 C10.8307797,159.513442 0.616210938,134.79576 0.616210938,105.789062 C0.616210938,76.7823646 10.8307797,52.0646834 31.2602405,31.6352405 C51.6896834,11.2057677 76.4073646,0.991210938 105.414062,0.991210938 Z M105.414062,18.4912109 C129.576985,18.4912109 150.167107,27.0000577 167.185074,44.0180505 C184.203067,61.0360184 192.711914,81.6261396 192.711914,105.789062 C192.711914,129.951985 184.203067,150.542107 167.185074,167.560074 C150.167107,184.578057 129.576985,193.086914 105.414062,193.086914 C81.2511396,193.086914 60.6610184,184.578057 43.6430505,167.560074 C26.6250677,150.542107 18.1162109,129.951985 18.1162109,105.789062 C18.1162109,81.6261396 26.6250677,61.0360184 43.6430505,44.0180505 C60.6610184,27.0000577 81.2511396,18.4912109 105.414062,18.4912109 Z M106.056937,95.9912109 L144.543734,118.241211 L144.543734,162.741211 L106.056937,184.991211 L67.5701392,162.741211 L67.5701392,118.241211 L106.056937,95.9912109 Z M106.056937,111.491211 L131.138221,125.991211 L131.138221,154.991211 L106.056937,169.491211 L80.975653,154.991211 L80.975653,125.991211 L106.056937,111.491211 Z M103.307818,154.97141 C102.86523,154.97141 102.44868,154.88029 102.058162,154.698048 C101.667645,154.515806 101.342214,154.242446 101.081866,153.877961 L93.9353989,144.427439 C93.4667756,143.828643 93.284536,143.145242 93.3886745,142.377223 C93.492813,141.6092 93.8572924,141.003906 94.4821234,140.561318 C95.08092,140.092692 95.7643184,139.910452 96.5323399,140.014589 C97.3003619,140.11873 97.9186747,140.470193 98.3872981,141.068988 L103.073508,147.278219 L114.90619,128.299064 C115.296707,127.648204 115.869459,127.238162 116.624467,127.068938 C117.379469,126.89971 118.082395,127.023376 118.733256,127.439931 C119.384122,127.830448 119.800672,128.403201 119.982912,129.158208 C120.165157,129.91321 120.048004,130.616136 119.631449,131.266997 L105.650923,153.682703 C105.416613,154.073222 105.104199,154.385633 104.713681,154.619945 C104.323164,154.854256 103.893597,154.97141 103.424971,154.97141 L103.346873,154.97141 L103.307818,154.97141 L103.307818,154.97141 Z M128.316149,58.3881959 C129.213499,59.2855454 129.662174,60.3885281 129.662174,61.6971721 C129.662174,63.0058161 129.213499,64.1087989 128.316149,65.0061484 L106.331087,86.9912109 L84.3460242,65.0061484 C83.4486703,64.1087989 83,63.0058161 83,61.6971721 C83,60.3885281 83.4486703,59.2855454 84.3460242,58.3881959 C85.2433779,57.4908464 86.3463593,57.0421716 87.6550005,57.0421716 C88.9636417,57.0421716 90.066623,57.4908464 90.9639767,58.3881959 L101.732171,69.0442211 L101.732171,33.5989161 C101.732171,32.3276664 102.180845,31.2433737 103.078195,30.3460242 C103.975544,29.4486747 105.059837,29 106.331087,29 C107.602337,29 108.705319,29.4486747 109.640063,30.3460242 C110.574807,31.2433737 111.042172,32.3276664 111.042172,33.5989161 L111.042172,69.0442211 L121.810366,58.3881959 C122.707715,57.4908464 123.792008,57.0421716 125.063257,57.0421716 C126.334507,57.0421716 127.4188,57.4908464 128.316149,58.3881959 L128.316149,58.3881959 Z" id="icon_SampleA"></path>
        </g>
    </g>
</svg>