<?xml version="1.0" encoding="UTF-8" standalone="no"?>
<svg width="188px" height="182px" viewBox="0 0 188 182" version="1.1" xmlns="http://www.w3.org/2000/svg" xmlns:xlink="http://www.w3.org/1999/xlink">
    <!-- Generator: Sketch 3.7.2 (28276) - http://www.bohemiancoding.com/sketch -->
    <title>icon_apiLicense</title>
    <desc>Created with Sketch.</desc>
    <defs></defs>
    <g id="Symbols" stroke="none" stroke-width="1" fill="none" fill-rule="evenodd">
        <g id="icon_apiLicense" fill="#6B7CBC">
            <path d="M160.132883,0.182995495 C156.320178,0.182995495 152.711763,0.931920649 149.307586,2.42977095 C145.903383,3.92759512 142.975788,5.90202703 140.524775,8.35304054 C138.073761,10.8040541 136.099329,13.7316492 134.601505,17.135852 C133.103655,20.5400288 132.35473,24.1484435 132.35473,27.9611486 C132.35473,29.3228403 132.422809,30.6844796 132.558968,32.0461712 C132.695153,33.4078628 133.035576,34.6333434 133.580236,35.7226914 L51.879786,70.0368806 C50.790438,67.8581845 49.3606932,65.9518581 47.5904993,64.3178491 C45.8203316,62.6838401 43.9820845,61.1860159 42.075732,59.8243243 C39.8970359,58.7349763 37.5822072,57.8498924 35.1311937,57.1690728 C32.6801802,56.488227 30.2291667,56.1478041 27.7781532,56.1478041 C23.9654454,56.1478041 20.3570463,56.8286237 16.9528435,58.1903153 C13.5486406,59.5520069 10.6210716,61.594492 8.17004505,64.3178491 C5.44668275,66.7688626 3.40419241,69.6964577 2.04251126,73.1006345 C0.680830377,76.5048373 0,80.1132521 0,83.9259572 C0,87.7386623 0.680830377,91.3470771 2.04251126,94.75128 C3.40419241,98.1554567 5.44668275,101.083052 8.17004505,103.534065 C10.6210716,105.985079 13.5486406,107.959511 16.9528435,109.457361 C20.3570463,110.955185 23.9654454,111.70411 27.7781532,111.70411 C29.6845057,111.70411 31.5908321,111.499872 33.4971847,111.09137 C35.4035372,110.682842 37.3098637,110.070101 39.2162162,109.253097 C40.8502252,108.436092 42.4161549,107.482929 43.9140052,106.393581 C45.4118294,105.304233 46.8415742,104.078752 48.2032658,102.717061 L100.491554,140.70777 C100.219211,141.524775 99.8788137,142.477938 99.4703115,143.567286 C99.0617831,144.656634 98.7213863,145.745956 98.4490428,146.835304 C98.1766992,147.924652 97.9724612,149.013974 97.8363025,150.103322 C97.7001176,151.19267 97.6320383,152.418151 97.6320383,153.779842 C97.6320383,157.59255 98.3128579,161.200949 99.6745495,164.605152 C101.036241,168.009355 103.078726,170.936924 105.802083,173.38795 C108.253097,175.838977 111.180692,177.813383 114.584869,179.311233 C117.989072,180.809082 121.597486,181.557995 125.410191,181.557995 C129.222897,181.557995 132.831311,180.809082 136.235514,179.311233 C139.639691,177.813383 142.567286,175.838977 145.0183,173.38795 C147.469313,170.936924 149.443745,168.009355 150.941595,164.605152 C152.439419,161.200949 153.188345,157.59255 153.188345,153.779842 C153.188345,149.694794 152.439419,146.018326 150.941595,142.750282 C149.443745,139.482237 147.469313,136.486589 145.0183,133.763232 C142.567286,131.312218 139.639691,129.337787 136.235514,127.839936 C132.831311,126.342112 129.222897,125.593187 125.410191,125.593187 C123.231495,125.593187 121.18901,125.797425 119.282658,126.205927 C117.376305,126.614456 115.606137,127.227196 113.972128,128.0442 C112.065776,128.861205 110.363687,129.882448 108.865837,131.107954 C107.368013,132.333487 105.938268,133.627047 104.576577,134.988739 L52.2882883,97.4065315 C52.8329492,96.3171835 53.3095308,95.2278616 53.7180592,94.1385135 C54.1265615,93.0491655 54.4669583,91.9598435 54.7393018,90.8704955 C55.0116454,89.7811474 55.2158834,88.6237462 55.3520683,87.3982394 C55.488227,86.1727065 55.5563063,85.0153053 55.5563063,83.9259572 C55.5563063,82.5642656 55.488227,81.2707056 55.3520683,80.0451989 C55.2158834,78.819666 55.0116454,77.6622647 54.7393018,76.5729167 L136.03125,42.2587275 C137.392942,44.4374236 138.890766,46.34375 140.524775,47.977759 C142.158784,49.611768 144.06511,50.9734335 146.243806,52.0627815 C148.150159,53.4244731 150.328829,54.4457157 152.779842,55.1265354 C155.230856,55.8073812 157.681869,56.1478041 160.132883,56.1478041 C163.945588,56.1478041 167.554003,55.3988789 170.958179,53.9010547 C174.362382,52.4032044 177.289977,50.4287725 179.740991,47.977759 C182.464348,45.2544019 184.506833,42.2587536 185.868525,38.9907095 C187.230216,35.7226653 187.911036,32.0461973 187.911036,27.9611486 C187.911036,24.1484435 187.230216,20.5400288 185.868525,17.135852 C184.506833,13.7316492 182.464348,10.8040541 179.740991,8.35304054 C177.289977,5.90202703 174.362382,3.92759512 170.958179,2.42977095 C167.554003,0.931920649 163.945588,0.182995495 160.132883,0.182995495 Z"></path>
        </g>
    </g>
</svg>