<?xml version="1.0" encoding="UTF-8" standalone="no"?>
<svg width="211px" height="211px" viewBox="0 0 211 211" version="1.1" xmlns="http://www.w3.org/2000/svg" xmlns:xlink="http://www.w3.org/1999/xlink">
    <!-- Generator: Sketch 3.7.2 (28276) - http://www.bohemiancoding.com/sketch -->
    <title>icon_3.3B</title>
    <desc>Created with Sketch.</desc>
    <defs></defs>
    <g id="Symbols" stroke="none" stroke-width="1" fill="none" fill-rule="evenodd">
        <g id="icon_3.3B" fill="#6B7CBC">
            <path d="M105.414062,0.991210938 C134.42076,0.991210938 159.138442,11.2057677 179.567884,31.6352405 C199.997357,52.0646834 210.211914,76.7823646 210.211914,105.789062 C210.211914,134.79576 199.997357,159.513442 179.567884,179.942884 C159.138442,200.372345 134.42076,210.586914 105.414062,210.586914 C76.4073646,210.586914 51.6896834,200.372345 31.2602405,179.942884 C10.8307797,159.513442 0.616210938,134.79576 0.616210938,105.789062 C0.616210938,76.7823646 10.8307797,52.0646834 31.2602405,31.6352405 C51.6896834,11.2057677 76.4073646,0.991210938 105.414062,0.991210938 Z M105.414062,18.4912109 C129.576985,18.4912109 150.167107,27.0000577 167.185074,44.0180505 C184.203067,61.0360184 192.711914,81.6261396 192.711914,105.789062 C192.711914,129.951985 184.203067,150.542107 167.185074,167.560074 C150.167107,184.578057 129.576985,193.086914 105.414062,193.086914 C81.2511396,193.086914 60.6610184,184.578057 43.6430505,167.560074 C26.6250677,150.542107 18.1162109,129.951985 18.1162109,105.789062 C18.1162109,81.6261396 26.6250677,61.0360184 43.6430505,44.0180505 C60.6610184,27.0000577 81.2511396,18.4912109 105.414062,18.4912109 Z M145.616211,80.2992509 C145.616211,84.2427209 144.217411,87.5983409 141.419781,90.3662109 L131.375141,100.321571 L136.018001,104.964421 C136.315621,105.262041 136.464421,105.604301 136.464421,105.991211 C136.464421,106.378121 136.315621,106.720381 136.018001,107.018001 L126.643001,116.393001 C126.345381,116.690621 126.003121,116.839421 125.616211,116.839421 C125.229301,116.839421 124.887041,116.690621 124.589421,116.393001 L119.901921,111.705501 L92.9822809,138.62514 C91.8810909,139.726336 90.5418109,140.276925 88.9644209,140.276925 L79.9019209,140.276925 L68.4733539,145.991211 L65.6162109,143.134068 L71.3304969,131.705501 L71.3304969,122.643001 C71.3304969,121.065611 71.8810859,119.726331 72.9822819,118.625141 L99.9019209,91.7055009 L95.2144209,87.0180009 C94.9168009,86.7203809 94.7680009,86.3781209 94.7680009,85.9912109 C94.7680009,85.6043009 94.9168009,85.2620409 95.2144209,84.9644209 L104.589421,75.5894209 C104.887041,75.2918009 105.229301,75.1430009 105.616211,75.1430009 C106.003121,75.1430009 106.345381,75.2918009 106.643001,75.5894209 L111.285851,80.2322809 L121.241211,70.1876409 C124.009081,67.3900109 127.364701,65.9912109 131.308171,65.9912109 C135.251651,65.9912109 138.622151,67.3900109 141.419781,70.1876409 C144.217411,72.9852709 145.616211,76.3557709 145.616211,80.2992509 Z M87.6876409,134.276931 L116.019531,105.5 L105.948101,95.4285704 L77.6162109,124.205501 L77.6162109,134.276931 L87.6876409,134.276931 Z" id="icon_SampleA"></path>
        </g>
    </g>
</svg>