<?xml version="1.0" encoding="UTF-8" standalone="no"?>
<svg width="211px" height="211px" viewBox="0 0 211 211" version="1.1" xmlns="http://www.w3.org/2000/svg" xmlns:xlink="http://www.w3.org/1999/xlink">
    <!-- Generator: Sketch 3.7.2 (28276) - http://www.bohemiancoding.com/sketch -->
    <title>icon_2.3C</title>
    <desc>Created with Sketch.</desc>
    <defs></defs>
    <g id="Page-1" stroke="none" stroke-width="1" fill="none" fill-rule="evenodd">
        <g id="icon_2.3C" fill="#6B7CBC">
            <path d="M105.414062,0.991210938 C134.42076,0.991210938 159.138442,11.2057677 179.567884,31.6352405 C199.997357,52.0646834 210.211914,76.7823646 210.211914,105.789062 C210.211914,134.79576 199.997357,159.513442 179.567884,179.942884 C159.138442,200.372345 134.42076,210.586914 105.414062,210.586914 C76.4073646,210.586914 51.6896834,200.372345 31.2602405,179.942884 C10.8307797,159.513442 0.616210938,134.79576 0.616210938,105.789062 C0.616210938,76.7823646 10.8307797,52.0646834 31.2602405,31.6352405 C51.6896834,11.2057677 76.4073646,0.991210938 105.414062,0.991210938 Z M105.414062,18.4912109 C129.576985,18.4912109 150.167107,27.0000577 167.185074,44.0180505 C184.203067,61.0360184 192.711914,81.6261396 192.711914,105.789062 C192.711914,129.951985 184.203067,150.542107 167.185074,167.560074 C150.167107,184.578057 129.576985,193.086914 105.414062,193.086914 C81.2511396,193.086914 60.6610184,184.578057 43.6430505,167.560074 C26.6250677,150.542107 18.1162109,129.951985 18.1162109,105.789062 C18.1162109,81.6261396 26.6250677,61.0360184 43.6430505,44.0180505 C60.6610184,27.0000577 81.2511396,18.4912109 105.414062,18.4912109 Z M110.454589,97.895004 L76.4265842,60.354368 C74.7296412,58.4866507 72.6754767,57.552828 70.2640307,57.552828 C67.8525846,57.552828 65.7984201,58.4866507 64.1014771,60.354368 C62.4045335,62.315446 61.5560745,64.6266941 61.5560745,67.288166 C61.5560745,69.949638 62.4045335,72.2141967 64.1014771,74.081896 L91.8329682,104.758768 L64.1014771,135.43564 C62.4045335,137.303339 61.5560745,139.567898 61.5560745,142.22937 C61.5560745,144.890842 62.4045335,147.155397 64.1014771,149.0231 C65.7984201,150.890803 67.8525846,151.82464 70.2640307,151.82464 C72.6754767,151.82464 74.7296412,150.890803 76.4265842,149.0231 L110.454589,111.482464 C112.151535,109.614765 113,107.350206 113,104.688734 C113,102.027262 112.151535,99.7627033 110.454589,97.895004 L110.454589,97.895004 Z M161.898514,100.556458 L119.162554,55.871904 C117.465607,54.0975833 115.411451,53.210432 113,53.210432 C110.588549,53.210432 108.534393,54.0975833 106.837446,55.871904 C105.1405,57.6462067 104.292052,59.7706974 104.292052,62.245394 C104.292052,64.7201086 105.1405,66.8445814 106.837446,68.618902 L143.544831,107 L106.837446,145.381098 C105.1405,147.155415 104.292052,149.279895 104.292052,151.754602 C104.292052,154.229308 105.1405,156.353788 106.837446,158.128105 C108.534393,159.902423 110.588549,160.789568 113,160.789568 C115.411451,160.789568 117.465607,159.902423 119.162554,158.128105 L161.898514,113.443542 C163.595461,111.669221 164.443925,109.521404 164.443925,107 C164.443925,104.478596 163.595461,102.330779 161.898514,100.556458 L161.898514,100.556458 Z" id="icon_SampleA"></path>
        </g>
    </g>
</svg>