<?xml version="1.0" encoding="UTF-8" standalone="no"?>
<svg width="211px" height="211px" viewBox="0 0 211 211" version="1.1" xmlns="http://www.w3.org/2000/svg" xmlns:xlink="http://www.w3.org/1999/xlink">
    <!-- Generator: Sketch 3.7.2 (28276) - http://www.bohemiancoding.com/sketch -->
    <title>icon_2.3B</title>
    <desc>Created with Sketch.</desc>
    <defs></defs>
    <g id="Page-1" stroke="none" stroke-width="1" fill="none" fill-rule="evenodd">
        <g id="icon_2.3B" fill="#6B7CBC">
            <path d="M105.414062,0.991210938 C134.42076,0.991210938 159.138442,11.2057677 179.567884,31.6352405 C199.997357,52.0646834 210.211914,76.7823646 210.211914,105.789062 C210.211914,134.79576 199.997357,159.513442 179.567884,179.942884 C159.138442,200.372345 134.42076,210.586914 105.414062,210.586914 C76.4073646,210.586914 51.6896834,200.372345 31.2602405,179.942884 C10.8307797,159.513442 0.616210938,134.79576 0.616210938,105.789062 C0.616210938,76.7823646 10.8307797,52.0646834 31.2602405,31.6352405 C51.6896834,11.2057677 76.4073646,0.991210938 105.414062,0.991210938 Z M105.414062,18.4912109 C129.576985,18.4912109 150.167107,27.0000577 167.185074,44.0180505 C184.203067,61.0360184 192.711914,81.6261396 192.711914,105.789062 C192.711914,129.951985 184.203067,150.542107 167.185074,167.560074 C150.167107,184.578057 129.576985,193.086914 105.414062,193.086914 C81.2511396,193.086914 60.6610184,184.578057 43.6430505,167.560074 C26.6250677,150.542107 18.1162109,129.951985 18.1162109,105.789062 C18.1162109,81.6261396 26.6250677,61.0360184 43.6430505,44.0180505 C60.6610184,27.0000577 81.2511396,18.4912109 105.414062,18.4912109 Z M95.9781061,76.6624497 L95.9781061,115.361997 C95.9781061,116.235425 95.6589784,116.991272 95.0207004,117.62955 C94.3824224,118.267828 93.6265752,118.586956 92.7531475,118.586956 L92.7531475,147.611613 C92.7531475,148.485045 92.4340085,149.240888 91.7957306,149.879164 C91.1574639,150.517441 90.4016167,150.836575 89.528189,150.836575 L63.7284903,150.836575 C62.8550581,150.836575 62.0992155,150.517441 61.4609389,149.879164 C60.8226621,149.240888 60.5035284,148.485045 60.5035284,147.611613 L60.5035284,121.811914 L73.0506436,77.8214251 C73.2858046,77.0487711 73.8064908,76.6624497 74.6127361,76.6624497 L95.9781061,76.6624497 Z M111.78043,76.6624497 L111.78043,112.137039 L98.8805732,112.137039 L98.8805732,76.6624497 L111.78043,76.6624497 Z M150.157463,121.811914 L150.157463,147.611613 C150.157463,148.485045 149.838324,149.240888 149.200058,149.879164 C148.56178,150.517441 147.805933,150.836575 146.932505,150.836575 L121.132803,150.836575 C120.259375,150.836575 119.503528,150.517441 118.865261,149.879164 C118.226983,149.240888 117.907844,148.485045 117.907844,147.611613 L117.907844,118.586956 C117.034417,118.586956 116.278569,118.267828 115.640292,117.62955 C115.002014,116.991272 114.682886,116.235425 114.682886,115.361997 L114.682886,76.6624497 L136.048256,76.6624497 C136.854501,76.6624497 137.375187,77.0487711 137.610348,77.8214251 L150.157463,121.811914 Z M97.429334,62.4726164 L97.429334,73.7599825 L79.6920508,73.7599825 L79.6920508,62.4726164 C79.6920508,62.0023057 79.8432112,61.6159843 80.1455546,61.3136522 C80.447898,61.0113088 80.8342194,60.8601371 81.3045301,60.8601371 L95.8168547,60.8601371 C96.2871654,60.8601371 96.6734868,61.0113088 96.9758302,61.3136522 C97.2781736,61.6159843 97.429334,62.0023057 97.429334,62.4726164 L97.429334,62.4726164 Z M131.291432,62.4726164 L131.291432,73.7599825 L113.554149,73.7599825 L113.554149,62.4726164 C113.554149,62.0023057 113.70531,61.6159843 114.007653,61.3136522 C114.309996,61.0113088 114.696318,60.8601371 115.166628,60.8601371 L129.678953,60.8601371 C130.149264,60.8601371 130.535585,61.0113088 130.837929,61.3136522 C131.140272,61.6159843 131.291432,62.0023057 131.291432,62.4726164 L131.291432,62.4726164 Z" id="icon_SampleA"></path>
        </g>
    </g>
</svg>