<?xml version="1.0" encoding="UTF-8" standalone="no"?>
<svg width="211px" height="211px" viewBox="0 0 211 211" version="1.1" xmlns="http://www.w3.org/2000/svg" xmlns:xlink="http://www.w3.org/1999/xlink">
    <!-- Generator: Sketch 3.7.2 (28276) - http://www.bohemiancoding.com/sketch -->
    <title>icon_2.2F</title>
    <desc>Created with Sketch.</desc>
    <defs></defs>
    <g id="Page-1" stroke="none" stroke-width="1" fill="none" fill-rule="evenodd">
        <g id="icon_2.2F" fill="#6B7CBC">
            <g id="hex" transform="translate(23.000000, 9.000000)">
                <path d="M82.8633427,1.27897692e-13 L165.726685,48.7081984 L165.726685,146.124595 L82.8633427,194.832793 L7.19192821e-13,146.124595 L6.66307589e-13,48.7081984 L82.8633427,1.27897692e-13 Z M116.740336,90.4548372 C130.749456,90.4548372 137.753914,92.7621893 137.753914,97.3769568 C137.753914,101.991724 130.749456,104.299076 116.740336,104.299076 C110.642242,104.299076 102.978545,103.1454 93.7490104,100.838017 C93.4193909,101.826891 93.0897556,102.568546 92.7601362,103.062984 C101.000797,108.007386 107.263598,112.622075 111.548746,116.907223 C121.437536,126.96083 124.816163,133.553251 121.684707,136.684707 C118.553251,139.816159 111.96083,136.437536 101.907223,126.548746 C97.6220747,122.263598 93.0073864,116.000797 88.0629836,107.760136 C87.7333641,107.924954 86.9093075,108.254573 85.590798,108.74901 C88.0629994,118.6378 89.2990764,126.301496 89.2990764,131.740336 C89.2990764,145.749458 86.9917243,152.753914 82.3769568,152.753914 C77.7621893,152.753914 75.4548372,145.749458 75.4548372,131.740336 C75.4548372,126.301496 76.6909141,118.6378 79.1631155,108.74901 C77.844606,108.254573 77.0205494,107.924954 76.6909299,107.760136 C71.7465272,116.000797 67.1318388,122.263598 62.8466908,126.548746 C52.7930834,136.437536 46.2006624,139.816159 43.0692062,136.684707 C39.9377548,133.553251 43.3163773,126.96083 53.205167,116.907223 C57.4903151,112.622075 63.7531166,108.007386 71.9937774,103.062984 C71.6641579,102.568546 71.3345226,101.826891 71.0049031,100.838017 C61.7753682,103.1454 54.111672,104.299076 48.0135773,104.299076 C34.0044556,104.299076 27,101.991724 27,97.3769568 C27,92.7621893 34.0044556,90.4548372 48.0135773,90.4548372 C53.4524172,90.4548372 61.1161134,91.6909141 71.0049031,94.1631155 C71.4993403,92.844606 71.8289597,92.0205494 71.9937774,91.6909299 C63.4234971,86.4169077 57.1606798,81.8846202 53.205167,78.0939093 C43.3163773,68.2051196 39.9377548,61.6126827 43.0692062,58.3164248 C46.3654642,55.0201668 52.957901,58.3163773 62.8466908,68.205167 C67.1318388,72.4903151 71.7465272,78.7531166 76.6909299,86.9937774 C77.1853671,86.6641579 77.9270227,86.3345226 78.915897,86.0049031 C76.6085132,76.7753682 75.4548372,69.111672 75.4548372,63.0135773 C75.4548372,49.0044572 77.7621893,42 82.3769568,42 C86.9917243,42 89.2990764,49.0044572 89.2990764,63.0135773 C89.2990764,69.111672 88.1454003,76.7753682 85.8380166,86.0049031 C86.8268908,86.3345226 87.5685465,86.6641579 88.0629836,86.9937774 C93.0073864,78.7531166 97.6220747,72.4903151 101.907223,68.205167 C111.796013,58.3163773 118.388449,55.0201668 121.684707,58.3164248 C124.816163,61.6126827 121.437536,68.2051196 111.548746,78.0939093 C107.593234,81.8846202 101.330416,86.4169077 92.7601362,91.6909299 C92.9249538,92.0205494 93.2545733,92.844606 93.7490104,94.1631155 C103.6378,91.6909141 111.301496,90.4548372 116.740336,90.4548372 Z M92,121 C95.9555127,126.603642 99.9933789,130.888726 104.113709,133.855365 C106.585911,142.096024 106.173874,146.875536 102.877617,148.194041 C102.547997,148.358854 102.135961,148.44126 101.641524,148.44126 C98.6748852,148.44126 95.6258933,145.557073 92.4944371,139.78861 C92.8240566,136.821973 92.9476738,133.937782 92.8652729,131.135961 C92.7828561,128.33414 92.6592548,125.944387 92.4944371,123.966623 L92,121 Z M72.4557628,72.4412598 C68.005813,66.6728005 64.0503477,62.4701166 60.5892721,59.8331134 C58.1170707,51.427635 58.5291069,46.5657281 61.8253649,45.2472186 C62.1549844,45.0824009 62.5670206,45 63.0614577,45 C65.8632785,45 68.9122863,47.966591 72.2085443,53.8998681 C71.7141072,56.8665066 71.5080891,59.7506967 71.5905058,62.5525175 C71.6729067,65.3543384 71.8789248,67.6616905 72.2085443,69.4746371 L72.4557628,72.4412598 Z M58.4464138,107 C52.842772,110.955513 48.6400882,114.910978 45.8382674,118.866491 C42.8716304,119.855365 39.9874419,120.349802 37.1856179,120.349802 C34.0541665,120.349802 32.0764386,119.443345 31.2523725,117.630398 C30.0986806,114.993395 32.9004619,111.614767 39.6578034,107.494437 C42.6244404,107.824057 45.5086321,107.947674 48.3104529,107.865257 C51.1122738,107.782856 53.5020268,107.576838 55.4797911,107.247219 L58.4464138,107 Z M107,87.3498021 C112.43884,83.2294717 116.641508,79.1916055 119.608146,75.2360928 C122.245165,74.4120204 125.12934,74 128.260796,74 C131.557054,74 133.534787,74.8240566 134.194041,76.4721856 C135.512551,79.2740064 132.710762,82.7350346 125.78861,86.855365 C122.821972,86.5257455 119.937782,86.4021283 117.135961,86.4845292 C114.33414,86.5669459 111.944387,86.6905473 109.966623,86.855365 L107,87.3498021 Z M59.2275779,134.597021 C61.5349617,132.784074 63.7599129,130.765141 65.902479,128.540158 C68.0450451,126.315191 69.6931582,124.46106 70.8468501,122.977748 L72.3301615,121 C72.1653438,121.659255 72.000542,122.565712 71.8357243,123.719404 C71.6709067,124.873096 71.5061049,127.139248 71.3412872,130.517907 C71.1764696,133.896581 71.2588863,136.57476 71.5885058,138.552518 C67.7977949,144.980232 64.5840011,148.194041 61.9469821,148.194041 C61.2877273,148.194041 60.7932902,148.111636 60.4636707,147.946823 C57.6618499,146.628318 57.2498137,142.178428 59.2275779,134.597021 Z M105.102584,59.5970206 C102.960017,61.080332 100.817467,62.9756637 98.674901,65.2830474 C96.5323349,67.5904312 94.8842218,69.4857629 93.7305299,70.9690743 L92,73.1940413 C92.1648176,72.3699689 92.3296195,71.2987095 92.4944371,69.9802 C92.6592548,68.6616905 92.865257,66.230737 93.1124756,62.6872447 C93.35971,59.1437682 93.2360928,56.7952156 92.7416557,55.6415237 C96.0379136,49.2138096 99.2517232,46 102.383179,46 C103.042434,46 103.536871,46.0824009 103.866491,46.2472186 C106.668312,47.5657281 107.080348,52.0156146 105.102584,59.5970206 Z M40.687309,86.5970206 C33.1059014,82.4766903 29.974499,78.8508603 31.2930038,75.7194041 C32.1170699,73.9064575 33.929988,73 36.7318121,73 C39.698449,73 42.2530165,73.4120204 44.3955873,74.2360928 C45.7140968,76.0490394 47.5270118,78.0267721 49.8343956,80.1693382 C52.1417793,82.3119043 54.037111,84.0424183 55.5204224,85.3609278 L57.992608,87.3386763 C57.3333532,87.1738587 56.4268957,87.0090568 55.2732038,86.8442392 C54.119512,86.6794215 51.8533603,86.5146197 48.4747014,86.3498021 C45.0960267,86.1849844 42.500254,86.2674012 40.687309,86.5970206 Z M124.305299,107.494437 C131.886705,111.779585 135.018114,115.487816 133.699604,118.619272 C133.040349,120.267401 131.227434,121.091458 128.260796,121.091458 C125.623793,121.091458 123.069222,120.679437 120.597021,119.855365 C119.113709,117.877601 117.259578,115.817467 115.034595,113.674901 C112.809628,111.532335 110.955497,109.884222 109.472186,108.73053 L107,107 C107.824072,107.164818 108.854131,107.329619 110.090224,107.494437 C111.326333,107.659255 113.633685,107.824057 117.012344,107.988874 C120.391018,108.153692 122.821988,107.988874 124.305299,107.494437 Z" id="Polygon-1-Copy-2"></path>
            </g>
        </g>
    </g>
</svg>