<?xml version="1.0" encoding="UTF-8" standalone="no"?>
<svg width="189px" height="178px" viewBox="0 0 189 178" version="1.1" xmlns="http://www.w3.org/2000/svg" xmlns:xlink="http://www.w3.org/1999/xlink">
    <!-- Generator: Sketch 3.7.2 (28276) - http://www.bohemiancoding.com/sketch -->
    <title>icon_userLicense</title>
    <desc>Created with Sketch.</desc>
    <defs></defs>
    <g id="Symbols" stroke="none" stroke-width="1" fill="none" fill-rule="evenodd">
        <g id="icon_userLicense" fill="#6B7CBC">
            <path d="M93.3715064,42.831306 C93.3715064,36.8824704 91.2894377,31.8260465 87.1252754,27.6618841 C82.961088,23.4977217 77.904664,21.415653 71.9558535,21.415653 C66.0070179,21.415653 60.9505939,23.4977217 56.7864316,27.6618841 C52.6222442,31.8260465 50.5402005,36.8824704 50.5402005,42.831306 C50.5402005,45.9544215 51.2466242,49.0403345 52.6594467,52.0891199 C49.6106863,50.6762724 46.5247733,49.9698486 43.4016578,49.9698486 C37.4528223,49.9698486 32.3963983,52.0519173 28.2322359,56.2160797 C24.0680585,60.3802671 21.9860023,65.4366911 21.9860023,71.3855016 C21.9860023,77.3343122 24.0680585,82.3907362 28.2322359,86.5549235 C32.3963983,90.7190859 37.4528223,92.8011546 43.4016578,92.8011546 C49.3504683,92.8011546 54.4068923,90.7190859 58.5710797,86.5549235 C62.7352421,82.3907362 64.8173108,77.3343122 64.8173108,71.3855016 C64.8173108,68.2623611 64.110887,65.1764731 62.6980395,62.1276877 C65.7468249,63.5405352 68.8327129,64.246959 71.9558535,64.246959 C77.904664,64.246959 82.961088,62.1648903 87.1252754,58.0007279 C91.2894377,53.8365405 93.3715064,48.7801165 93.3715064,42.831306 L93.3715064,42.831306 Z M188.291907,121.35535 C188.291907,122.619463 186.470107,125.073332 182.826455,128.716983 C179.182804,132.360635 176.728934,134.182436 175.464822,134.182436 C174.795576,134.182436 173.735965,133.587569 172.28594,132.397787 C170.835915,131.20803 169.478859,129.981096 168.214722,128.716983 C166.950609,127.452846 165.519198,125.965668 163.920438,124.255375 C162.321703,122.545107 161.410802,121.578441 161.187712,121.35535 L150.479898,132.063164 L175.018666,156.60194 C177.10076,158.684026 178.141782,161.212238 178.141782,164.186649 C178.141782,167.309779 176.691782,170.321325 173.791732,173.221377 C170.891681,176.121427 167.880124,177.57143 164.757008,177.57143 C161.782578,177.57143 159.254378,176.530402 157.172285,174.448314 L82.3290444,99.6050742 C69.2416412,109.346271 55.6711045,114.216808 41.6170096,114.216808 C29.4962982,114.216808 19.6251119,110.405882 12.0031859,102.783956 C4.38125736,95.1620301 0.570351828,85.2908613 0.570351828,73.1701498 C0.570351828,61.2725037 4.10241062,49.6353005 11.1666356,38.2581654 C18.2308631,26.8810552 27.451407,17.6605188 38.8285172,10.5962813 C50.2056273,3.53206878 61.8428556,0 73.7404766,0 C85.8612131,0 95.7323819,3.81090054 103.354308,11.4328265 C110.976234,19.0547525 114.787159,28.9259463 114.787159,41.0466578 C114.787159,55.1007527 109.916623,68.6712894 100.175426,81.7587175 L139.772084,121.35535 L150.479898,110.647536 C150.256807,110.424446 149.290141,109.513546 147.579873,107.91481 C145.86958,106.31605 144.382402,104.884639 143.118265,103.620526 C141.854152,102.356389 140.627218,100.999333 139.437461,99.5493078 C138.247679,98.0992828 137.652813,97.0396721 137.652813,96.370426 C137.652813,95.1063137 139.474613,92.6524444 143.118265,89.0087929 C146.761916,85.3651414 149.215786,83.5433407 150.479898,83.5433407 C151.446589,83.5433407 152.301723,83.9151414 153.045325,84.6587427 C153.491481,85.1048985 155.201724,86.7594002 158.176154,89.6222727 C161.150559,92.4851453 164.199295,95.4409118 167.32241,98.4896722 C170.445551,101.538458 173.661585,104.735903 176.970614,108.082109 C180.279642,111.428315 182.993754,114.32834 185.113025,116.78221 C187.232297,119.236104 188.291907,120.760459 188.291907,121.35535 L188.291907,121.35535 Z"></path>
        </g>
    </g>
</svg>