<?xml version="1.0" encoding="UTF-8" standalone="no"?>
<svg width="933px" height="1129px" viewBox="0 0 933 1129" version="1.1" xmlns="http://www.w3.org/2000/svg" xmlns:xlink="http://www.w3.org/1999/xlink">
    <!-- Generator: Sketch 3.7.2 (28276) - http://www.bohemiancoding.com/sketch -->
    <title>illustration_1A</title>
    <desc>Created with Sketch.</desc>
    <defs>
        <polygon id="path-1" points="231.5 403 278 429.846788 278 483.540363 231.5 510.38715 185 483.540363 185 429.846788"></polygon>
        <filter x="-50%" y="-50%" width="200%" height="200%" filterUnits="objectBoundingBox" id="filter-2">
            <feMorphology radius="2.25" operator="dilate" in="SourceAlpha" result="shadowSpreadOuter1"></feMorphology>
            <feOffset dx="0" dy="2" in="shadowSpreadOuter1" result="shadowOffsetOuter1"></feOffset>
            <feGaussianBlur stdDeviation="2.5" in="shadowOffsetOuter1" result="shadowBlurOuter1"></feGaussianBlur>
            <feComposite in="shadowBlurOuter1" in2="SourceAlpha" operator="out" result="shadowBlurOuter1"></feComposite>
            <feColorMatrix values="0 0 0 0 0   0 0 0 0 0   0 0 0 0 0  0 0 0 0.558480525 0" type="matrix" in="shadowBlurOuter1"></feColorMatrix>
        </filter>
        <polygon id="path-3" points="61.1243557 272 122.248711 307.290163 122.248711 377.87049 61.1243557 413.160653 7.63833441e-13 377.87049 7.2475359e-13 307.290163"></polygon>
        <filter x="-50%" y="-50%" width="200%" height="200%" filterUnits="objectBoundingBox" id="filter-4">
            <feMorphology radius="2.25" operator="dilate" in="SourceAlpha" result="shadowSpreadOuter1"></feMorphology>
            <feOffset dx="0" dy="2" in="shadowSpreadOuter1" result="shadowOffsetOuter1"></feOffset>
            <feGaussianBlur stdDeviation="2.5" in="shadowOffsetOuter1" result="shadowBlurOuter1"></feGaussianBlur>
            <feComposite in="shadowBlurOuter1" in2="SourceAlpha" operator="out" result="shadowBlurOuter1"></feComposite>
            <feColorMatrix values="0 0 0 0 0   0 0 0 0 0   0 0 0 0 0  0 0 0 0.333842844 0" type="matrix" in="shadowBlurOuter1"></feColorMatrix>
        </filter>
        <polygon id="path-5" points="434.624356 608 480.248711 634.341234 480.248711 687.023702 434.624356 713.364936 389 687.023702 389 634.341234"></polygon>
        <filter x="-50%" y="-50%" width="200%" height="200%" filterUnits="objectBoundingBox" id="filter-6">
            <feMorphology radius="2.25" operator="dilate" in="SourceAlpha" result="shadowSpreadOuter1"></feMorphology>
            <feOffset dx="0" dy="2" in="shadowSpreadOuter1" result="shadowOffsetOuter1"></feOffset>
            <feGaussianBlur stdDeviation="2.5" in="shadowOffsetOuter1" result="shadowBlurOuter1"></feGaussianBlur>
            <feComposite in="shadowBlurOuter1" in2="SourceAlpha" operator="out" result="shadowBlurOuter1"></feComposite>
            <feColorMatrix values="0 0 0 0 0   0 0 0 0 0   0 0 0 0 0  0 0 0 0.558480525 0" type="matrix" in="shadowBlurOuter1"></feColorMatrix>
        </filter>
        <polygon id="path-7" points="253.124356 837 314.248711 872.290163 314.248711 942.87049 253.124356 978.160653 192 942.87049 192 872.290163"></polygon>
        <filter x="-50%" y="-50%" width="200%" height="200%" filterUnits="objectBoundingBox" id="filter-8">
            <feMorphology radius="2.25" operator="dilate" in="SourceAlpha" result="shadowSpreadOuter1"></feMorphology>
            <feOffset dx="0" dy="2" in="shadowSpreadOuter1" result="shadowOffsetOuter1"></feOffset>
            <feGaussianBlur stdDeviation="2.5" in="shadowOffsetOuter1" result="shadowBlurOuter1"></feGaussianBlur>
            <feComposite in="shadowBlurOuter1" in2="SourceAlpha" operator="out" result="shadowBlurOuter1"></feComposite>
            <feColorMatrix values="0 0 0 0 0   0 0 0 0 0   0 0 0 0 0  0 0 0 0.333842844 0" type="matrix" in="shadowBlurOuter1"></feColorMatrix>
        </filter>
        <polygon id="path-9" points="712.5 616 758 642.269437 758 694.808312 712.5 721.077749 667 694.808312 667 642.269437"></polygon>
        <filter x="-50%" y="-50%" width="200%" height="200%" filterUnits="objectBoundingBox" id="filter-10">
            <feMorphology radius="2.25" operator="dilate" in="SourceAlpha" result="shadowSpreadOuter1"></feMorphology>
            <feOffset dx="0" dy="2" in="shadowSpreadOuter1" result="shadowOffsetOuter1"></feOffset>
            <feGaussianBlur stdDeviation="2.5" in="shadowOffsetOuter1" result="shadowBlurOuter1"></feGaussianBlur>
            <feComposite in="shadowBlurOuter1" in2="SourceAlpha" operator="out" result="shadowBlurOuter1"></feComposite>
            <feColorMatrix values="0 0 0 0 0   0 0 0 0 0   0 0 0 0 0  0 0 0 0.558480525 0" type="matrix" in="shadowBlurOuter1"></feColorMatrix>
        </filter>
        <polygon id="path-11" points="785.124356 767 846.248711 802.290163 846.248711 872.87049 785.124356 908.160653 724 872.87049 724 802.290163"></polygon>
        <filter x="-50%" y="-50%" width="200%" height="200%" filterUnits="objectBoundingBox" id="filter-12">
            <feMorphology radius="2.25" operator="dilate" in="SourceAlpha" result="shadowSpreadOuter1"></feMorphology>
            <feOffset dx="0" dy="2" in="shadowSpreadOuter1" result="shadowOffsetOuter1"></feOffset>
            <feGaussianBlur stdDeviation="2.5" in="shadowOffsetOuter1" result="shadowBlurOuter1"></feGaussianBlur>
            <feComposite in="shadowBlurOuter1" in2="SourceAlpha" operator="out" result="shadowBlurOuter1"></feComposite>
            <feColorMatrix values="0 0 0 0 0   0 0 0 0 0   0 0 0 0 0  0 0 0 0.333842844 0" type="matrix" in="shadowBlurOuter1"></feColorMatrix>
        </filter>
        <polygon id="path-13" points="819.5 728 854 747.918584 854 787.755753 819.5 807.674337 785 787.755753 785 747.918584"></polygon>
        <filter x="-50%" y="-50%" width="200%" height="200%" filterUnits="objectBoundingBox" id="filter-14">
            <feMorphology radius="2.25" operator="dilate" in="SourceAlpha" result="shadowSpreadOuter1"></feMorphology>
            <feOffset dx="0" dy="2" in="shadowSpreadOuter1" result="shadowOffsetOuter1"></feOffset>
            <feGaussianBlur stdDeviation="2.5" in="shadowOffsetOuter1" result="shadowBlurOuter1"></feGaussianBlur>
            <feComposite in="shadowBlurOuter1" in2="SourceAlpha" operator="out" result="shadowBlurOuter1"></feComposite>
            <feColorMatrix values="0 0 0 0 0   0 0 0 0 0   0 0 0 0 0  0 0 0 0.558480525 0" type="matrix" in="shadowBlurOuter1"></feColorMatrix>
        </filter>
        <polygon id="path-15" points="906.638784 787 932.277568 801.802559 932.277568 831.407677 906.638784 846.210236 881 831.407677 881 801.802559"></polygon>
        <filter x="-50%" y="-50%" width="200%" height="200%" filterUnits="objectBoundingBox" id="filter-16">
            <feMorphology radius="2.25" operator="dilate" in="SourceAlpha" result="shadowSpreadOuter1"></feMorphology>
            <feOffset dx="0" dy="2" in="shadowSpreadOuter1" result="shadowOffsetOuter1"></feOffset>
            <feGaussianBlur stdDeviation="2.5" in="shadowOffsetOuter1" result="shadowBlurOuter1"></feGaussianBlur>
            <feComposite in="shadowBlurOuter1" in2="SourceAlpha" operator="out" result="shadowBlurOuter1"></feComposite>
            <feColorMatrix values="0 0 0 0 0   0 0 0 0 0   0 0 0 0 0  0 0 0 0.333842844 0" type="matrix" in="shadowBlurOuter1"></feColorMatrix>
        </filter>
        <polygon id="path-17" points="584.124356 788 645.248711 823.290163 645.248711 893.87049 584.124356 929.160653 523 893.87049 523 823.290163"></polygon>
        <filter x="-50%" y="-50%" width="200%" height="200%" filterUnits="objectBoundingBox" id="filter-18">
            <feMorphology radius="2.25" operator="dilate" in="SourceAlpha" result="shadowSpreadOuter1"></feMorphology>
            <feOffset dx="0" dy="2" in="shadowSpreadOuter1" result="shadowOffsetOuter1"></feOffset>
            <feGaussianBlur stdDeviation="2.5" in="shadowOffsetOuter1" result="shadowBlurOuter1"></feGaussianBlur>
            <feComposite in="shadowBlurOuter1" in2="SourceAlpha" operator="out" result="shadowBlurOuter1"></feComposite>
            <feColorMatrix values="0 0 0 0 0   0 0 0 0 0   0 0 0 0 0  0 0 0 0.558480525 0" type="matrix" in="shadowBlurOuter1"></feColorMatrix>
        </filter>
        <polygon id="path-19" points="460.124356 721 521.248711 756.290163 521.248711 826.87049 460.124356 862.160653 399 826.87049 399 756.290163"></polygon>
        <filter x="-50%" y="-50%" width="200%" height="200%" filterUnits="objectBoundingBox" id="filter-20">
            <feMorphology radius="2.25" operator="dilate" in="SourceAlpha" result="shadowSpreadOuter1"></feMorphology>
            <feOffset dx="0" dy="2" in="shadowSpreadOuter1" result="shadowOffsetOuter1"></feOffset>
            <feGaussianBlur stdDeviation="2.5" in="shadowOffsetOuter1" result="shadowBlurOuter1"></feGaussianBlur>
            <feComposite in="shadowBlurOuter1" in2="SourceAlpha" operator="out" result="shadowBlurOuter1"></feComposite>
            <feColorMatrix values="0 0 0 0 0   0 0 0 0 0   0 0 0 0 0  0 0 0 0.333842844 0" type="matrix" in="shadowBlurOuter1"></feColorMatrix>
        </filter>
        <polygon id="path-21" points="390.124356 840 451.248711 875.290163 451.248711 945.87049 390.124356 981.160653 329 945.87049 329 875.290163"></polygon>
        <filter x="-50%" y="-50%" width="200%" height="200%" filterUnits="objectBoundingBox" id="filter-22">
            <feMorphology radius="2.25" operator="dilate" in="SourceAlpha" result="shadowSpreadOuter1"></feMorphology>
            <feOffset dx="0" dy="2" in="shadowSpreadOuter1" result="shadowOffsetOuter1"></feOffset>
            <feGaussianBlur stdDeviation="2.5" in="shadowOffsetOuter1" result="shadowBlurOuter1"></feGaussianBlur>
            <feComposite in="shadowBlurOuter1" in2="SourceAlpha" operator="out" result="shadowBlurOuter1"></feComposite>
            <feColorMatrix values="0 0 0 0 0   0 0 0 0 0   0 0 0 0 0  0 0 0 0.333842844 0" type="matrix" in="shadowBlurOuter1"></feColorMatrix>
        </filter>
        <polygon id="path-23" points="288.054791 562 349.109582 597.25 349.109582 667.75 288.054791 703 227 667.75 227 597.25"></polygon>
        <filter x="-50%" y="-50%" width="200%" height="200%" filterUnits="objectBoundingBox" id="filter-24">
            <feMorphology radius="2.25" operator="dilate" in="SourceAlpha" result="shadowSpreadOuter1"></feMorphology>
            <feOffset dx="0" dy="2" in="shadowSpreadOuter1" result="shadowOffsetOuter1"></feOffset>
            <feGaussianBlur stdDeviation="2.5" in="shadowOffsetOuter1" result="shadowBlurOuter1"></feGaussianBlur>
            <feComposite in="shadowBlurOuter1" in2="SourceAlpha" operator="out" result="shadowBlurOuter1"></feComposite>
            <feColorMatrix values="0 0 0 0 0   0 0 0 0 0   0 0 0 0 0  0 0 0 0.333842844 0" type="matrix" in="shadowBlurOuter1"></feColorMatrix>
        </filter>
        <polygon id="path-25" points="79.014411 4.26325641e-14 158.028822 45.4795765 158.028822 136.43873 79.014411 181.918306 2.06057393e-13 136.43873 1.56319402e-13 45.4795765"></polygon>
        <filter x="-50%" y="-50%" width="200%" height="200%" filterUnits="objectBoundingBox" id="filter-26">
            <feMorphology radius="2.25" operator="dilate" in="SourceAlpha" result="shadowSpreadOuter1"></feMorphology>
            <feOffset dx="0" dy="2" in="shadowSpreadOuter1" result="shadowOffsetOuter1"></feOffset>
            <feGaussianBlur stdDeviation="2.5" in="shadowOffsetOuter1" result="shadowBlurOuter1"></feGaussianBlur>
            <feComposite in="shadowBlurOuter1" in2="SourceAlpha" operator="out" result="shadowBlurOuter1"></feComposite>
            <feColorMatrix values="0 0 0 0 0   0 0 0 0 0   0 0 0 0 0  0 0 0 0.333842844 0" type="matrix" in="shadowBlurOuter1"></feColorMatrix>
        </filter>
        <polygon id="path-27" points="60.1304637 -5.68434189e-14 120.260927 34.7931186 120.260927 104.379356 60.1304637 139.172475 1.66977543e-13 104.379356 1.27897692e-13 34.7931186"></polygon>
        <filter x="-50%" y="-50%" width="200%" height="200%" filterUnits="objectBoundingBox" id="filter-28">
            <feMorphology radius="2.25" operator="dilate" in="SourceAlpha" result="shadowSpreadOuter1"></feMorphology>
            <feOffset dx="0" dy="2" in="shadowSpreadOuter1" result="shadowOffsetOuter1"></feOffset>
            <feGaussianBlur stdDeviation="2.5" in="shadowOffsetOuter1" result="shadowBlurOuter1"></feGaussianBlur>
            <feComposite in="shadowBlurOuter1" in2="SourceAlpha" operator="out" result="shadowBlurOuter1"></feComposite>
            <feColorMatrix values="0 0 0 0 0   0 0 0 0 0   0 0 0 0 0  0 0 0 0.558480525 0" type="matrix" in="shadowBlurOuter1"></feColorMatrix>
        </filter>
        <polygon id="path-29" points="74.0449512 -7.10542736e-14 148.089902 42.7458315 148.089902 128.237494 74.0449512 170.983326 2.04281037e-13 128.237494 1.56319402e-13 42.7458315"></polygon>
        <filter x="-50%" y="-50%" width="200%" height="200%" filterUnits="objectBoundingBox" id="filter-30">
            <feMorphology radius="2.25" operator="dilate" in="SourceAlpha" result="shadowSpreadOuter1"></feMorphology>
            <feOffset dx="0" dy="2" in="shadowSpreadOuter1" result="shadowOffsetOuter1"></feOffset>
            <feGaussianBlur stdDeviation="2.5" in="shadowOffsetOuter1" result="shadowBlurOuter1"></feGaussianBlur>
            <feComposite in="shadowBlurOuter1" in2="SourceAlpha" operator="out" result="shadowBlurOuter1"></feComposite>
            <feColorMatrix values="0 0 0 0 0   0 0 0 0 0   0 0 0 0 0  0 0 0 0.333842844 0" type="matrix" in="shadowBlurOuter1"></feColorMatrix>
        </filter>
        <polygon id="path-31" points="80.5052489 7.10542736e-14 161.010498 46.4736656 161.010498 139.420997 80.5052489 185.894662 2.64677169e-13 139.420997 2.13162821e-13 46.4736656"></polygon>
        <filter x="-50%" y="-50%" width="200%" height="200%" filterUnits="objectBoundingBox" id="filter-32">
            <feMorphology radius="2.25" operator="dilate" in="SourceAlpha" result="shadowSpreadOuter1"></feMorphology>
            <feOffset dx="0" dy="2" in="shadowSpreadOuter1" result="shadowOffsetOuter1"></feOffset>
            <feGaussianBlur stdDeviation="2.5" in="shadowOffsetOuter1" result="shadowBlurOuter1"></feGaussianBlur>
            <feComposite in="shadowBlurOuter1" in2="SourceAlpha" operator="out" result="shadowBlurOuter1"></feComposite>
            <feColorMatrix values="0 0 0 0 0   0 0 0 0 0   0 0 0 0 0  0 0 0 0.333842844 0" type="matrix" in="shadowBlurOuter1"></feColorMatrix>
        </filter>
        <polygon id="path-33" points="87.9483954 8.52651283e-14 175.896791 50.6925702 175.896791 152.077711 87.9483954 202.770281 1.42108547e-13 152.077711 8.52651283e-14 50.6925702"></polygon>
        <filter x="-50%" y="-50%" width="200%" height="200%" filterUnits="objectBoundingBox" id="filter-34">
            <feMorphology radius="2.25" operator="dilate" in="SourceAlpha" result="shadowSpreadOuter1"></feMorphology>
            <feOffset dx="0" dy="2" in="shadowSpreadOuter1" result="shadowOffsetOuter1"></feOffset>
            <feGaussianBlur stdDeviation="2.5" in="shadowOffsetOuter1" result="shadowBlurOuter1"></feGaussianBlur>
            <feComposite in="shadowBlurOuter1" in2="SourceAlpha" operator="out" result="shadowBlurOuter1"></feComposite>
            <feColorMatrix values="0 0 0 0 0   0 0 0 0 0   0 0 0 0 0  0 0 0 0.333842844 0" type="matrix" in="shadowBlurOuter1"></feColorMatrix>
        </filter>
        <polygon id="path-35" points="70.0693833 1.56319402e-13 140.138767 40.509131 140.138767 121.527393 70.0693833 162.036524 6.41264819e-13 121.527393 5.96855898e-13 40.509131"></polygon>
        <filter x="-50%" y="-50%" width="200%" height="200%" filterUnits="objectBoundingBox" id="filter-36">
            <feMorphology radius="2.25" operator="dilate" in="SourceAlpha" result="shadowSpreadOuter1"></feMorphology>
            <feOffset dx="0" dy="2" in="shadowSpreadOuter1" result="shadowOffsetOuter1"></feOffset>
            <feGaussianBlur stdDeviation="2.5" in="shadowOffsetOuter1" result="shadowBlurOuter1"></feGaussianBlur>
            <feComposite in="shadowBlurOuter1" in2="SourceAlpha" operator="out" result="shadowBlurOuter1"></feComposite>
            <feColorMatrix values="0 0 0 0 0   0 0 0 0 0   0 0 0 0 0  0 0 0 0.333842844 0" type="matrix" in="shadowBlurOuter1"></feColorMatrix>
        </filter>
        <polygon id="path-37" points="68.0815994 -5.68434189e-14 136.163199 39.2665196 136.163199 117.799559 68.0815994 157.066078 6.39488462e-13 117.799559 5.96855898e-13 39.2665196"></polygon>
        <filter x="-50%" y="-50%" width="200%" height="200%" filterUnits="objectBoundingBox" id="filter-38">
            <feMorphology radius="2.25" operator="dilate" in="SourceAlpha" result="shadowSpreadOuter1"></feMorphology>
            <feOffset dx="0" dy="2" in="shadowSpreadOuter1" result="shadowOffsetOuter1"></feOffset>
            <feGaussianBlur stdDeviation="2.5" in="shadowOffsetOuter1" result="shadowBlurOuter1"></feGaussianBlur>
            <feComposite in="shadowBlurOuter1" in2="SourceAlpha" operator="out" result="shadowBlurOuter1"></feComposite>
            <feColorMatrix values="0 0 0 0 0   0 0 0 0 0   0 0 0 0 0  0 0 0 0.333842844 0" type="matrix" in="shadowBlurOuter1"></feColorMatrix>
        </filter>
        <polygon id="path-39" points="52.4994466 4.26325641e-14 104.998893 30.2311486 104.998893 90.6934457 52.4994466 120.924594 -8.40216785e-13 90.6934457 -8.73967565e-13 30.2311486"></polygon>
        <filter x="-50%" y="-50%" width="200%" height="200%" filterUnits="objectBoundingBox" id="filter-40">
            <feMorphology radius="2.25" operator="dilate" in="SourceAlpha" result="shadowSpreadOuter1"></feMorphology>
            <feOffset dx="0" dy="2" in="shadowSpreadOuter1" result="shadowOffsetOuter1"></feOffset>
            <feGaussianBlur stdDeviation="2.5" in="shadowOffsetOuter1" result="shadowBlurOuter1"></feGaussianBlur>
            <feComposite in="shadowBlurOuter1" in2="SourceAlpha" operator="out" result="shadowBlurOuter1"></feComposite>
            <feColorMatrix values="0 0 0 0 0   0 0 0 0 0   0 0 0 0 0  0 0 0 0.333842844 0" type="matrix" in="shadowBlurOuter1"></feColorMatrix>
        </filter>
        <polygon id="path-41" points="79.5113569 -4.26325641e-14 159.022714 45.9739488 159.022714 137.921846 79.5113569 183.895795 -2.04281037e-13 137.921846 -2.55795385e-13 45.9739488"></polygon>
        <filter x="-50%" y="-50%" width="200%" height="200%" filterUnits="objectBoundingBox" id="filter-42">
            <feMorphology radius="2.25" operator="dilate" in="SourceAlpha" result="shadowSpreadOuter1"></feMorphology>
            <feOffset dx="0" dy="2" in="shadowSpreadOuter1" result="shadowOffsetOuter1"></feOffset>
            <feGaussianBlur stdDeviation="2.5" in="shadowOffsetOuter1" result="shadowBlurOuter1"></feGaussianBlur>
            <feComposite in="shadowBlurOuter1" in2="SourceAlpha" operator="out" result="shadowBlurOuter1"></feComposite>
            <feColorMatrix values="0 0 0 0 0   0 0 0 0 0   0 0 0 0 0  0 0 0 0.558480525 0" type="matrix" in="shadowBlurOuter1"></feColorMatrix>
        </filter>
        <polygon id="path-43" points="84.4403049 4.26325641e-14 168.88061 48.9390533 168.88061 146.81716 84.4403049 195.756213 1.54543045e-13 146.81716 9.9475983e-14 48.9390533"></polygon>
        <filter x="-50%" y="-50%" width="200%" height="200%" filterUnits="objectBoundingBox" id="filter-44">
            <feMorphology radius="2.25" operator="dilate" in="SourceAlpha" result="shadowSpreadOuter1"></feMorphology>
            <feOffset dx="0" dy="2" in="shadowSpreadOuter1" result="shadowOffsetOuter1"></feOffset>
            <feGaussianBlur stdDeviation="2.5" in="shadowOffsetOuter1" result="shadowBlurOuter1"></feGaussianBlur>
            <feComposite in="shadowBlurOuter1" in2="SourceAlpha" operator="out" result="shadowBlurOuter1"></feComposite>
            <feColorMatrix values="0 0 0 0 0   0 0 0 0 0   0 0 0 0 0  0 0 0 0.333842844 0" type="matrix" in="shadowBlurOuter1"></feColorMatrix>
        </filter>
        <polygon id="path-45" points="609 7 634 21.4337567 634 50.3012702 609 64.7350269 584 50.3012702 584 21.4337567"></polygon>
        <filter x="-50%" y="-50%" width="200%" height="200%" filterUnits="objectBoundingBox" id="filter-46">
            <feMorphology radius="2.25" operator="dilate" in="SourceAlpha" result="shadowSpreadOuter1"></feMorphology>
            <feOffset dx="0" dy="2" in="shadowSpreadOuter1" result="shadowOffsetOuter1"></feOffset>
            <feGaussianBlur stdDeviation="2.5" in="shadowOffsetOuter1" result="shadowBlurOuter1"></feGaussianBlur>
            <feComposite in="shadowBlurOuter1" in2="SourceAlpha" operator="out" result="shadowBlurOuter1"></feComposite>
            <feColorMatrix values="0 0 0 0 0   0 0 0 0 0   0 0 0 0 0  0 0 0 0.558480525 0" type="matrix" in="shadowBlurOuter1"></feColorMatrix>
        </filter>
        <polygon id="path-47" points="251.5 91.3923048 272 103.227985 272 126.899346 251.5 138.735027 231 126.899346 231 103.227985"></polygon>
        <filter x="-50%" y="-50%" width="200%" height="200%" filterUnits="objectBoundingBox" id="filter-48">
            <feMorphology radius="2.25" operator="dilate" in="SourceAlpha" result="shadowSpreadOuter1"></feMorphology>
            <feOffset dx="0" dy="2" in="shadowSpreadOuter1" result="shadowOffsetOuter1"></feOffset>
            <feGaussianBlur stdDeviation="2.5" in="shadowOffsetOuter1" result="shadowBlurOuter1"></feGaussianBlur>
            <feComposite in="shadowBlurOuter1" in2="SourceAlpha" operator="out" result="shadowBlurOuter1"></feComposite>
            <feColorMatrix values="0 0 0 0 0   0 0 0 0 0   0 0 0 0 0  0 0 0 0.558480525 0" type="matrix" in="shadowBlurOuter1"></feColorMatrix>
        </filter>
        <polygon id="path-49" points="349.5 690 370 701.835681 370 725.507042 349.5 737.342722 329 725.507042 329 701.835681"></polygon>
        <filter x="-50%" y="-50%" width="200%" height="200%" filterUnits="objectBoundingBox" id="filter-50">
            <feMorphology radius="2.25" operator="dilate" in="SourceAlpha" result="shadowSpreadOuter1"></feMorphology>
            <feOffset dx="0" dy="2" in="shadowSpreadOuter1" result="shadowOffsetOuter1"></feOffset>
            <feGaussianBlur stdDeviation="2.5" in="shadowOffsetOuter1" result="shadowBlurOuter1"></feGaussianBlur>
            <feComposite in="shadowBlurOuter1" in2="SourceAlpha" operator="out" result="shadowBlurOuter1"></feComposite>
            <feColorMatrix values="0 0 0 0 0   0 0 0 0 0   0 0 0 0 0  0 0 0 0.333842844 0" type="matrix" in="shadowBlurOuter1"></feColorMatrix>
        </filter>
        <polygon id="path-51" points="75.0388431 1.42108547e-13 150.077686 43.2345457 150.077686 129.703637 75.0388431 172.938183 6.02184969e-13 129.703637 5.54223334e-13 43.2345457"></polygon>
        <filter x="-50%" y="-50%" width="200%" height="200%" filterUnits="objectBoundingBox" id="filter-52">
            <feMorphology radius="2.25" operator="dilate" in="SourceAlpha" result="shadowSpreadOuter1"></feMorphology>
            <feOffset dx="0" dy="2" in="shadowSpreadOuter1" result="shadowOffsetOuter1"></feOffset>
            <feGaussianBlur stdDeviation="2.5" in="shadowOffsetOuter1" result="shadowBlurOuter1"></feGaussianBlur>
            <feComposite in="shadowBlurOuter1" in2="SourceAlpha" operator="out" result="shadowBlurOuter1"></feComposite>
            <feColorMatrix values="0 0 0 0 0   0 0 0 0 0   0 0 0 0 0  0 0 0 0.333842844 0" type="matrix" in="shadowBlurOuter1"></feColorMatrix>
        </filter>
        <polygon id="path-53" points="65.0999235 -5.68434189e-14 130.199847 37.5268637 130.199847 112.580591 65.0999235 150.107455 3.96127575e-13 112.580591 3.55271368e-13 37.5268637"></polygon>
        <filter x="-50%" y="-50%" width="200%" height="200%" filterUnits="objectBoundingBox" id="filter-54">
            <feMorphology radius="2.25" operator="dilate" in="SourceAlpha" result="shadowSpreadOuter1"></feMorphology>
            <feOffset dx="0" dy="2" in="shadowSpreadOuter1" result="shadowOffsetOuter1"></feOffset>
            <feGaussianBlur stdDeviation="2.5" in="shadowOffsetOuter1" result="shadowBlurOuter1"></feGaussianBlur>
            <feComposite in="shadowBlurOuter1" in2="SourceAlpha" operator="out" result="shadowBlurOuter1"></feComposite>
            <feColorMatrix values="0 0 0 0 0   0 0 0 0 0   0 0 0 0 0  0 0 0 0.558480525 0" type="matrix" in="shadowBlurOuter1"></feColorMatrix>
        </filter>
        <polygon id="path-55" points="75.0388431 4.26325641e-14 150.077686 43.242876 150.077686 129.728628 75.0388431 172.971504 6.59028387e-13 129.728628 6.11066753e-13 43.242876"></polygon>
        <filter x="-50%" y="-50%" width="200%" height="200%" filterUnits="objectBoundingBox" id="filter-56">
            <feMorphology radius="2.25" operator="dilate" in="SourceAlpha" result="shadowSpreadOuter1"></feMorphology>
            <feOffset dx="0" dy="2" in="shadowSpreadOuter1" result="shadowOffsetOuter1"></feOffset>
            <feGaussianBlur stdDeviation="2.5" in="shadowOffsetOuter1" result="shadowBlurOuter1"></feGaussianBlur>
            <feComposite in="shadowBlurOuter1" in2="SourceAlpha" operator="out" result="shadowBlurOuter1"></feComposite>
            <feColorMatrix values="0 0 0 0 0   0 0 0 0 0   0 0 0 0 0  0 0 0 0.333842844 0" type="matrix" in="shadowBlurOuter1"></feColorMatrix>
        </filter>
        <polygon id="path-57" points="77.1875209 4.26325641e-14 154.375042 44.4649907 154.375042 133.394972 77.1875209 177.859963 -9.23705556e-14 133.394972 -1.42108547e-13 44.4649907"></polygon>
        <filter x="-50%" y="-50%" width="200%" height="200%" filterUnits="objectBoundingBox" id="filter-58">
            <feMorphology radius="2.25" operator="dilate" in="SourceAlpha" result="shadowSpreadOuter1"></feMorphology>
            <feOffset dx="0" dy="2" in="shadowSpreadOuter1" result="shadowOffsetOuter1"></feOffset>
            <feGaussianBlur stdDeviation="2.5" in="shadowOffsetOuter1" result="shadowBlurOuter1"></feGaussianBlur>
            <feComposite in="shadowBlurOuter1" in2="SourceAlpha" operator="out" result="shadowBlurOuter1"></feComposite>
            <feColorMatrix values="0 0 0 0 0   0 0 0 0 0   0 0 0 0 0  0 0 0 0.558480525 0" type="matrix" in="shadowBlurOuter1"></feColorMatrix>
        </filter>
        <polygon id="path-59" points="93.9420093 1.42108547e-13 187.884019 54.187369 187.884019 162.562107 93.9420093 216.749476 3.00204306e-13 162.562107 2.4158453e-13 54.187369"></polygon>
        <filter x="-50%" y="-50%" width="200%" height="200%" filterUnits="objectBoundingBox" id="filter-60">
            <feMorphology radius="2.25" operator="dilate" in="SourceAlpha" result="shadowSpreadOuter1"></feMorphology>
            <feOffset dx="0" dy="2" in="shadowSpreadOuter1" result="shadowOffsetOuter1"></feOffset>
            <feGaussianBlur stdDeviation="2.5" in="shadowOffsetOuter1" result="shadowBlurOuter1"></feGaussianBlur>
            <feComposite in="shadowBlurOuter1" in2="SourceAlpha" operator="out" result="shadowBlurOuter1"></feComposite>
            <feColorMatrix values="0 0 0 0 0   0 0 0 0 0   0 0 0 0 0  0 0 0 0.333842844 0" type="matrix" in="shadowBlurOuter1"></feColorMatrix>
        </filter>
    </defs>
    <g id="Symbols" stroke="none" stroke-width="1" fill="none" fill-rule="evenodd">
        <g id="illustration_1A">
            <g transform="translate(0.000000, 147.000000)">
                <g id="Polygon-1-Copy-22">
                    <use fill="black" fill-opacity="1" filter="url(#filter-2)" xlink:href="#path-1"></use>
                    <use stroke="#474F5B" stroke-width="4.5" fill="#2D333C" fill-rule="evenodd" xlink:href="#path-1"></use>
                </g>
                <g id="Polygon-1-Copy-30">
                    <use fill="black" fill-opacity="1" filter="url(#filter-4)" xlink:href="#path-3"></use>
                    <use stroke="#474F5B" stroke-width="4.5" fill="#373D46" fill-rule="evenodd" xlink:href="#path-3"></use>
                </g>
                <g id="Polygon-1-Copy-25">
                    <use fill="black" fill-opacity="1" filter="url(#filter-6)" xlink:href="#path-5"></use>
                    <use stroke="#474F5B" stroke-width="4.5" fill="#2D333C" fill-rule="evenodd" xlink:href="#path-5"></use>
                </g>
                <g id="Polygon-1-Copy-35">
                    <use fill="black" fill-opacity="1" filter="url(#filter-8)" xlink:href="#path-7"></use>
                    <use stroke="#474F5B" stroke-width="4.5" fill="#373D46" fill-rule="evenodd" xlink:href="#path-7"></use>
                </g>
                <g id="Polygon-1-Copy-16">
                    <use fill="black" fill-opacity="1" filter="url(#filter-10)" xlink:href="#path-9"></use>
                    <use stroke="#474F5B" stroke-width="4.5" fill="#2D333C" fill-rule="evenodd" xlink:href="#path-9"></use>
                </g>
                <g id="Polygon-1-Copy-18">
                    <use fill="black" fill-opacity="1" filter="url(#filter-12)" xlink:href="#path-11"></use>
                    <use stroke="#474F5B" stroke-width="4.5" fill="#373D46" fill-rule="evenodd" xlink:href="#path-11"></use>
                </g>
                <g id="Polygon-1-Copy-17">
                    <use fill="black" fill-opacity="1" filter="url(#filter-14)" xlink:href="#path-13"></use>
                    <use stroke="#474F5B" stroke-width="4.5" fill="#2D333C" fill-rule="evenodd" xlink:href="#path-13"></use>
                </g>
                <g id="Polygon-1-Copy-20">
                    <use fill="black" fill-opacity="1" filter="url(#filter-16)" xlink:href="#path-15"></use>
                    <use stroke="#474F5B" stroke-width="4.5" fill="#373D46" fill-rule="evenodd" xlink:href="#path-15"></use>
                </g>
                <g id="Polygon-1-Copy-21">
                    <use fill="black" fill-opacity="1" filter="url(#filter-18)" xlink:href="#path-17"></use>
                    <use stroke="#474F5B" stroke-width="4.5" fill="#2D333C" fill-rule="evenodd" xlink:href="#path-17"></use>
                </g>
                <g id="Polygon-1-Copy-26">
                    <use fill="black" fill-opacity="1" filter="url(#filter-20)" xlink:href="#path-19"></use>
                    <use stroke="#474F5B" stroke-width="4.5" fill="#373D46" fill-rule="evenodd" xlink:href="#path-19"></use>
                </g>
                <g id="Polygon-1-Copy-32">
                    <use fill="black" fill-opacity="1" filter="url(#filter-22)" xlink:href="#path-21"></use>
                    <use stroke="#474F5B" stroke-width="4.5" fill="#373D46" fill-rule="evenodd" xlink:href="#path-21"></use>
                </g>
                <g id="Polygon-1-Copy-27">
                    <use fill="black" fill-opacity="1" filter="url(#filter-24)" xlink:href="#path-23"></use>
                    <use stroke="#474F5B" stroke-width="4.5" fill="#373D46" fill-rule="evenodd" xlink:href="#path-23"></use>
                </g>
                <g id="Group-7" transform="translate(134.000000, 160.000000)">
                    <g id="Polygon-1-Copy-3">
                        <use fill="black" fill-opacity="1" filter="url(#filter-26)" xlink:href="#path-25"></use>
                        <use stroke="#474F5B" stroke-width="4.5" fill="#373D46" fill-rule="evenodd" xlink:href="#path-25"></use>
                    </g>
                    <path d="M107.224048,116.165403 L105.600578,117.713537 C104.706489,118.604892 103.635957,119.050563 102.388937,119.050563 C101.141925,119.050563 100.071384,118.604892 99.1772956,117.713537 L86.40133,104.976611 C85.6484123,104.225995 85.2249085,103.346384 85.1307915,102.337743 C85.0366746,101.329112 85.2484355,100.402582 85.7660653,99.5581447 L78.7780992,92.5211691 C76.848751,93.9285643 74.7429775,95.0310163 72.4606974,95.8285432 C70.1784263,96.6260701 67.7903109,97.0248335 65.2962699,97.0248335 C62.1434371,97.0248335 59.190647,96.4266928 56.4378001,95.2304025 C53.6849532,94.0341121 51.2850689,92.4156213 49.2380803,90.3748848 C47.1910909,88.3341574 45.5794057,85.9416037 44.4029752,83.1971697 C43.2265448,80.4527357 42.6383384,77.5324246 42.6383384,74.4361373 C42.6383384,71.2929399 43.2265448,68.3491647 44.4029752,65.6047307 C45.5794057,62.8602967 47.1910909,60.467752 49.2380803,58.4270156 C51.2850689,56.3862882 53.6849532,54.7795248 56.4378001,53.6066896 C59.190647,52.4338543 62.1434371,51.8474412 65.2962699,51.8474412 C68.4020486,51.8474412 71.3313208,52.4338543 74.0841677,53.6066896 C76.8370146,54.7795248 79.2368935,56.3862882 81.2838857,58.4270156 C83.3308688,60.467752 84.9543211,62.8602967 86.1542786,65.6047307 C87.3542361,68.3491647 87.9542104,71.2929399 87.9542104,74.4361373 C87.9542104,77.3447659 87.4248261,80.0891639 86.3660395,82.6694033 C85.307253,85.2496337 83.8837891,87.5249029 82.0956208,89.4952651 L88.9424069,96.321127 C89.8364956,95.8519982 90.7893927,95.6643486 91.8011162,95.7581689 C92.8128488,95.8519982 93.6716289,96.2507617 94.3774836,96.9544593 L107.224048,109.761755 C108.118128,110.653109 108.565168,111.720373 108.565168,112.963579 C108.565168,114.206784 108.118128,115.274048 107.224048,116.165403 L107.224048,116.165403 Z M82.2367827,74.2953978 C82.2367827,71.9966375 81.789752,69.8151975 80.8956633,67.751015 C80.0015747,65.6868235 78.7898717,63.8924105 77.2605093,62.3677219 C75.731156,60.8430424 73.9312423,59.6350335 71.8607231,58.7436863 C69.7902039,57.85233 67.57855,57.4066564 65.2256889,57.4066564 C62.8728279,57.4066564 60.6611739,57.85233 58.5906547,58.7436863 C56.5201355,59.6350335 54.7202218,60.8430424 53.1908685,62.3677219 C51.661507,63.8924105 50.4498013,65.6868235 49.5557145,67.751015 C48.6616277,69.8151975 48.2145906,71.9966375 48.2145906,74.2953978 C48.2145906,76.6410684 48.6616277,78.8459634 49.5557145,80.9101549 C50.4498013,82.9743464 51.661507,84.7687594 53.1908685,86.293439 C54.7202218,87.8181275 56.5201355,89.0261274 58.5906547,89.9174837 C60.6611739,90.8088399 62.8728279,91.2545045 65.2256889,91.2545045 C67.57855,91.2545045 69.7902039,90.8088399 71.8607231,89.9174837 C73.9312423,89.0261274 75.731156,87.8181275 77.2605093,86.293439 C78.7898717,84.7687594 80.0015747,82.9743464 80.8956633,80.9101549 C81.789752,78.8459634 82.2367827,76.6410684 82.2367827,74.2953978 L82.2367827,74.2953978 Z" id="Page-1" fill="#6B7CBC"></path>
                </g>
                <g id="Group-12" transform="translate(296.000000, 428.000000)">
                    <g id="Polygon-1-Copy-5">
                        <use fill="black" fill-opacity="1" filter="url(#filter-28)" xlink:href="#path-27"></use>
                        <use stroke="#474F5B" stroke-width="4.5" fill="#2D333C" fill-rule="evenodd" xlink:href="#path-27"></use>
                    </g>
                    <path d="M67.3861789,41.2544014 C67.3861789,40.7620807 67.2077094,40.3360436 66.8507562,39.9762755 C66.4938101,39.6165001 66.0711148,39.4366197 65.5826558,39.4366197 L58.3685637,39.4366197 C57.8801069,39.4366197 57.4574109,39.6165001 57.1004619,39.9762755 C56.7435122,40.3360436 56.5650407,40.7620807 56.5650407,41.2544014 L56.5650407,46.7077465 L67.3861789,46.7077465 L67.3861789,41.2544014 Z M67.3861789,61.25 L67.3861789,50.3433099 L56.5650407,50.3433099 L56.5650407,61.25 C54.7239351,61.25 53.361913,61.9600619 52.4789341,63.3802147 C51.5959545,64.8003603 51.1544715,66.5139831 51.1544715,68.5211268 L51.1544715,97.6056338 L72.796748,97.6056338 L72.796748,68.5211268 C72.796748,66.5139831 72.3458744,64.8003603 71.4441057,63.3802147 C70.542337,61.9600619 69.1897091,61.25 67.3861789,61.25 L67.3861789,61.25 Z" id="Page-1" fill="#52BEAC"></path>
                </g>
                <g id="Group-15" transform="translate(654.000000, 476.000000)">
                    <g id="Polygon-1-Copy-14">
                        <use fill="black" fill-opacity="1" filter="url(#filter-30)" xlink:href="#path-29"></use>
                        <use stroke="#474F5B" stroke-width="4.5" fill="#373D46" fill-rule="evenodd" xlink:href="#path-29"></use>
                    </g>
                    <path d="M83.6837907,99.2806841 C86.8485448,101.477924 88.4308943,104.534903 88.4308943,108.45171 C88.4308943,111.604266 87.3040642,114.303005 85.0503765,116.548007 C82.796698,118.793009 80.0875184,119.915493 76.9227642,119.915493 C73.7580128,119.915493 71.0488342,118.793009 68.7951474,116.548007 C66.5414605,114.303005 65.4146341,111.604266 65.4146341,108.45171 C65.4146341,104.439368 66.9969864,101.334627 70.1617378,99.1373868 L70.1617378,62.3099849 C70.1617378,60.4948738 70.8090637,58.9425033 72.1037348,57.6528278 C73.3984058,56.3631431 75.0047364,55.7183099 76.9227642,55.7183099 C78.840792,55.7183099 80.4471245,56.3631431 81.7417983,57.6528278 C83.0364629,58.9425033 83.6837907,60.4948738 83.6837907,62.3099849 L83.6837907,99.2806841 Z M74.7649898,62.3099849 L74.7649898,69.4748491 L79.0805386,69.4748491 L79.0805386,62.3099849 C79.0805386,60.9725375 78.3612897,60.3038229 76.9227642,60.3038229 C75.4842388,60.3038229 74.7649898,60.9725375 74.7649898,62.3099849 L74.7649898,62.3099849 Z M79.2243902,92.4024145 L79.2243902,90.1096579 L76.9227642,90.1096579 L76.9227642,92.4024145 L79.2243902,92.4024145 Z M79.2243902,87.8169014 L79.2243902,78.6458753 L76.9227642,78.6458753 L76.9227642,87.8169014 L79.2243902,87.8169014 Z" id="Page-1" fill="#6B7CBC"></path>
                </g>
                <g id="Group-14" transform="translate(534.000000, 504.000000)">
                    <g id="Polygon-1-Copy-11">
                        <use fill="black" fill-opacity="1" filter="url(#filter-32)" xlink:href="#path-31"></use>
                        <use stroke="#474F5B" stroke-width="4.5" fill="#373D46" fill-rule="evenodd" xlink:href="#path-31"></use>
                    </g>
                    <path d="M95.2055778,103.658954 L109.103932,103.658954 C108.952037,103.841202 108.800142,104.000671 108.648247,104.13736 C108.496352,104.274048 108.359645,104.387957 108.238127,104.479076 L108.101431,104.661325 L79.7123302,131.998791 C79.1655038,132.545543 78.4971695,132.818915 77.7073171,132.818915 C76.9174647,132.818915 76.2491304,132.545543 75.702304,131.998791 L47.2676379,104.570206 C47.1157428,104.509449 46.7967683,104.205709 46.310703,103.658954 L63.1254399,103.658954 C63.7937742,103.658954 64.3937501,103.453926 64.925388,103.04386 C65.4570157,102.633803 65.7987771,102.109838 65.9506722,101.471954 L69.1404588,88.6689121 L77.7984582,119.059062 C77.9807303,119.666563 78.3300859,120.167738 78.8465251,120.562618 C79.3629745,120.957498 79.9553562,121.154933 80.6236905,121.154933 C81.261658,121.154933 81.8388511,120.957498 82.3552904,120.562618 C82.8717398,120.167738 83.2210852,119.666563 83.4033675,119.059062 L90.0563436,96.9612757 L92.6081729,102.064269 C93.1549993,103.127396 94.0207941,103.658954 95.2055778,103.658954 L95.2055778,103.658954 Z M118.536585,84.1582338 C118.536585,88.562627 116.972089,93.118824 113.843047,97.8269678 L97.0283086,97.8269678 L91.9702156,87.7576605 C91.7271896,87.2412886 91.3398627,86.8312325 90.8082248,86.5274819 C90.2765971,86.2237314 89.7221867,86.1022291 89.1449833,86.1629752 C87.7779173,86.3148504 86.9273212,87.0134706 86.593154,88.258856 L80.7148316,107.850695 L71.7834292,76.5948634 C71.6011571,75.9873623 71.2442072,75.4861871 70.7125693,75.0913073 C70.1809416,74.6964275 69.5809555,74.4989927 68.9126212,74.4989927 C68.2442767,74.4989927 67.6518951,74.7040208 67.1354559,75.1140871 C66.6190065,75.5241534 66.2848393,76.0481185 66.1329442,76.6859926 L60.8470136,97.8269678 L41.5715916,97.8269678 C38.4425477,93.118824 36.8780488,88.562627 36.8780488,84.1582338 C36.8780488,77.4757114 38.8070908,72.2512672 42.6652332,68.4847583 C46.5233755,64.7182392 51.8548266,62.8350103 58.6597387,62.8350103 C60.5432337,62.8350103 62.4646795,63.1615406 64.4241373,63.8146012 C66.3835849,64.467672 68.2063055,65.3485303 69.8923399,66.4572269 C71.5783744,67.5659134 73.0289566,68.6062504 74.2441173,69.5782481 C75.459278,70.5502559 76.6136745,71.5829895 77.7073171,72.6764996 C78.8009596,71.5829895 79.955346,70.5502559 81.1705169,69.5782481 C82.3856775,68.6062504 83.8362598,67.5659134 85.5222942,66.4572269 C87.2083286,65.3485303 89.0310492,64.467672 90.9904969,63.8146012 C92.9499547,63.1615406 94.8714005,62.8350103 96.7548955,62.8350103 C103.559808,62.8350103 108.891263,64.7182392 112.749404,68.4847583 C116.607545,72.2512672 118.536585,77.4757114 118.536585,84.1582338 L118.536585,84.1582338 Z" id="Page-1" fill="#5DBDF2"></path>
                </g>
                <g id="Group-4" transform="translate(392.000000, 0.000000)">
                    <g id="Polygon-1-Copy-2">
                        <use fill="black" fill-opacity="1" filter="url(#filter-34)" xlink:href="#path-33"></use>
                        <use stroke="#474F5B" stroke-width="4.5" fill="#373D46" fill-rule="evenodd" xlink:href="#path-33"></use>
                    </g>
                    <path d="M86.48438,99.40625 C85.96354,103.52085 85.02605,106.90624 83.67188,109.5625 C82.3177,112.21876 80.92449,114.60155 79.49219,116.71094 C78.05989,118.82032 76.78386,120.87759 75.66406,122.88281 C74.54427,124.88803 73.98438,127.3229 73.98438,130.1875 C73.98438,133.729184 75.27342,136.749987 77.85156,139.25 C80.4297,141.750012 83.46352,143 86.95312,143 C90.44273,143 93.47655,141.750012 96.05469,139.25 C98.63283,136.749987 99.92188,133.729184 99.92188,130.1875 C99.92188,127.3229 99.36198,124.88803 98.24219,122.88281 C97.12239,120.87759 95.84636,118.82032 94.41406,116.71094 C92.98176,114.60155 91.58855,112.21876 90.23438,109.5625 C88.8802,106.90624 87.94271,103.52085 87.42188,99.40625 C87.36979,99.14583 87.21354,99.01562 86.95312,99.01562 C86.69271,99.01562 86.53646,99.14583 86.48438,99.40625 L86.48438,99.40625 Z M62.5,63.39062 C61.97916,67.50523 61.04167,70.89061 59.6875,73.54688 C58.333327,76.20314 56.940111,78.58593 55.507812,80.69531 C54.075514,82.8047 52.799485,84.87499 51.679688,86.90625 C50.5598902,88.93751 50,91.3854 50,94.25 C50,97.7396 51.276029,100.73436 53.828125,103.23438 C56.380221,105.73439 59.427066,106.98438 62.96875,106.98438 C66.45835,106.98438 69.49217,105.73439 72.07031,103.23438 C74.64845,100.73436 75.9375,97.7396 75.9375,94.25 C75.9375,91.3854 75.37761,88.93751 74.25781,86.90625 C73.13802,84.87499 71.86199,82.8047 70.42969,80.69531 C68.99739,78.58593 67.60417,76.20314 66.25,73.54688 C64.89583,70.89061 63.95834,67.50523 63.4375,63.39062 C63.38542,63.13021 63.21615,63 62.92969,63 C62.64323,63 62.5,63.13021 62.5,63.39062 L62.5,63.39062 Z M110.46875,63.39062 C109.94791,67.50523 109.01042,70.89061 107.65625,73.54688 C106.30208,76.20314 104.90886,78.58593 103.47656,80.69531 C102.04426,82.8047 100.76823,84.87499 99.64844,86.90625 C98.52864,88.93751 97.96875,91.3854 97.96875,94.25 C97.96875,97.7396 99.2578,100.73436 101.83594,103.23438 C104.41408,105.73439 107.4479,106.98438 110.9375,106.98438 C114.47918,106.98438 117.52603,105.73439 120.07812,103.23438 C122.63022,100.73436 123.90625,97.7396 123.90625,94.25 C123.90625,91.3854 123.34636,88.93751 122.22656,86.90625 C121.10677,84.87499 119.83074,82.8047 118.39844,80.69531 C116.96614,78.58593 115.57292,76.20314 114.21875,73.54688 C112.86458,70.89061 111.92709,67.50523 111.40625,63.39062 C111.40625,63.13021 111.26302,63 110.97656,63 C110.6901,63 110.52083,63.13021 110.46875,63.39062 L110.46875,63.39062 Z" id="Page-1" fill="#52BEAC"></path>
                </g>
                <g id="Group-16" transform="translate(615.000000, 675.000000)">
                    <g id="Polygon-1-Copy-13">
                        <use fill="black" fill-opacity="1" filter="url(#filter-36)" xlink:href="#path-35"></use>
                        <use stroke="#474F5B" stroke-width="4.5" fill="#373D46" fill-rule="evenodd" xlink:href="#path-35"></use>
                    </g>
                    <path d="M93.4033581,78.146011 C96.6871679,81.7331818 98.9858003,85.1708289 100.299324,88.4590669 C101.612848,91.7473049 101.642699,94.4974249 100.388888,96.709507 C99.075364,98.9215892 96.6871679,100.281709 93.2242537,100.789891 C89.7613281,101.298072 85.7014108,101.014085 81.0443757,99.9379401 C79.6711389,104.601255 77.8949286,108.337831 75.7156762,111.147777 C73.5364237,113.957724 71.163153,115.362676 68.5958181,115.362676 C66.0284833,115.362676 63.6701379,113.957724 61.5207362,111.147777 C59.3713459,108.337831 57.5801989,104.571363 56.1472606,99.8482672 C51.430524,100.984194 47.3258306,101.313017 43.8330519,100.834727 C40.3402745,100.356437 37.937161,98.9813827 36.6236383,96.709507 C35.369821,94.4974249 35.3996733,91.7323594 36.7131962,88.4142304 C38.0267189,85.0961014 40.3253491,81.6733999 43.6091566,78.146011 C40.2656442,74.5588516 37.9222345,71.1062591 36.5788587,67.7881301 C35.2354836,64.4700011 35.1907051,61.6750446 36.4445224,59.403169 C37.7580452,57.1312934 40.1760851,55.7562392 43.6987145,55.2779489 C47.2213416,54.7996587 51.3708225,55.1284825 56.1472606,56.2644089 C57.5204974,51.6010937 59.2967076,47.8495798 61.4759601,45.009741 C63.6552125,42.1699022 66.0284833,40.75 68.5958181,40.75 C71.163153,40.75 73.5364237,42.1549567 75.7156762,44.9649045 C77.8949286,47.7748408 79.6711389,51.5413117 81.0443757,56.2644089 C85.7611123,55.1284825 89.8658057,54.7996587 93.358582,55.2779489 C96.8513584,55.7562392 99.2544798,57.1312934 100.567992,59.403169 C101.821815,61.6750446 101.777039,64.4700011 100.433664,67.7881301 C99.0902894,71.1062591 96.7468808,74.5588516 93.4033581,78.146011 L93.4033581,78.146011 Z M39.1312602,60.9277011 C38.1759715,62.6615046 38.2953801,64.8735523 39.4894919,67.5639362 C40.6836037,70.2543086 42.7434154,73.0941015 45.6689889,76.0834067 C46.8033969,74.9474689 48.0422711,73.811554 49.3856457,72.6756162 C50.7290203,71.5396784 52.1768611,70.4037635 53.7292023,69.2678257 C53.9083181,67.4742403 54.1322101,65.7255258 54.4008896,64.0216248 C54.6695576,62.3177238 55.012864,60.6885732 55.4307972,59.1341272 C51.3708225,58.0579828 47.8930289,57.6544315 44.9973038,57.9234734 C42.1015834,58.1925037 40.146255,59.1939092 39.1312602,60.9277011 L39.1312602,60.9277011 Z M53.3709706,73.3930458 C52.3559769,74.1702688 51.3708455,74.9474689 50.4155533,75.7246919 C49.4602725,76.5019149 48.5647047,77.309006 47.7288269,78.146011 C48.5647047,78.923234 49.4602725,79.7153911 50.4155533,80.5225051 C51.3708455,81.3296191 52.3559769,82.1217646 53.3709706,82.8989877 C53.3112691,82.1217646 53.2814069,81.3296191 53.2814069,80.5225051 L53.2814069,78.056338 L53.2814069,75.6798554 C53.2814069,74.8727414 53.3112691,74.1104754 53.3709706,73.3930458 L53.3709706,73.3930458 Z M53.7292023,86.9345348 C52.1768611,85.8583789 50.7290203,84.7523551 49.3856457,83.6164173 C48.0422711,82.4804794 46.8033969,81.3445646 45.6689889,80.2086268 C42.8031203,83.197932 40.7880882,86.0078339 39.6238282,88.6384243 C38.4595695,91.2690147 38.3550873,93.4511715 39.3103761,95.1849749 C40.3253709,96.9187669 42.2657727,97.9201723 45.1316413,98.1892027 C47.9975064,98.4582445 51.430524,98.0845842 55.4307972,97.0682218 C55.012864,95.5137873 54.6695576,93.8846367 54.4008896,92.1807357 C54.1322101,90.4768347 53.9083181,88.7281087 53.7292023,86.9345348 L53.7292023,86.9345348 Z M80.2383486,89.0868235 C79.5815867,89.5053203 78.9248362,89.923817 78.2680742,90.3423138 C77.6113123,90.760822 76.9545618,91.1494278 76.2977998,91.5081426 C75.5813364,91.9266508 74.8797984,92.3152451 74.1931857,92.6739714 C73.506573,93.0326862 72.8348972,93.3913895 72.1781352,93.7501158 C73.3125433,94.288188 74.4618537,94.7664667 75.6261125,95.1849749 C76.7903713,95.6034717 77.9098425,95.9920775 78.9845376,96.3507923 C79.223355,95.2148544 79.4472469,94.0341031 79.656225,92.8084808 C79.8651916,91.5828701 80.0592328,90.3423253 80.2383486,89.0868235 L80.2383486,89.0868235 Z M68.5958181,112.223922 C70.566104,112.223922 72.3870903,111.043163 74.0588459,108.681614 C75.730613,106.320063 77.1336662,103.166396 78.2680742,99.2205106 C76.715733,98.7422204 75.1186272,98.2041596 73.4767223,97.606294 C71.8348174,97.0084284 70.1780216,96.3209013 68.5062659,95.5436897 C66.8942118,96.2611193 65.2821806,96.9187554 63.6701264,97.5166096 C62.0580837,98.1144752 60.4759033,98.6525474 58.923562,99.1308376 C60.0579701,103.136505 61.4610233,106.320063 63.1327903,108.681614 C64.8045459,111.043163 66.6255323,112.223922 68.5958181,112.223922 L68.5958181,112.223922 Z M58.2966508,96.2611193 C59.3116559,95.902393 60.3714142,95.5287442 61.4759601,95.140127 C62.5805174,94.7515212 63.7298279,94.288188 64.9239489,93.7501158 C64.207474,93.451183 63.5059474,93.1074137 62.8193347,92.7188079 C62.132722,92.3301906 61.431184,91.9266508 60.7147206,91.5081426 C60.0579586,91.1494278 59.4310589,90.7757675 58.8340098,90.3871618 C58.2369494,89.9985445 57.6100496,89.5950047 56.9532876,89.1764965 C57.1324035,90.4320097 57.3264447,91.642652 57.5354113,92.8084808 C57.7443894,93.9743096 57.998132,95.1251815 58.2966508,96.2611193 L58.2966508,96.2611193 Z M57.0428513,67.0258525 C57.6399003,66.6073558 58.2668001,66.188859 58.923562,65.7703623 C59.580324,65.351854 60.2370745,64.9632482 60.8938364,64.6045335 C61.5505984,64.1860252 62.2073489,63.7974309 62.8641108,63.4387046 C63.5208728,63.0799899 64.207474,62.7511775 64.9239489,62.4522447 C63.7298279,61.9141725 62.5805174,61.4358938 61.4759601,61.0173856 C60.3714142,60.5988773 59.2817937,60.240174 58.2070986,59.9412412 C57.9682813,61.0173856 57.7443894,62.1533119 57.5354113,63.3490317 C57.3264447,64.5447515 57.1622542,65.7703508 57.0428513,67.0258525 L57.0428513,67.0258525 Z M68.5958181,43.8887601 C66.6255323,43.8887601 64.8045459,45.084457 63.1327903,47.475908 C61.4610233,49.8673476 60.0579701,53.0658553 58.923562,57.0715229 C60.4759033,57.4900311 62.0431584,58.0131463 63.6253503,58.640903 C65.2075537,59.2686596 66.8344989,59.9412412 68.5062659,60.6586708 C70.1780216,59.8814477 71.8348174,59.1939206 73.4767223,58.5960665 C75.1186272,57.9982008 76.715733,57.4601287 78.2680742,56.9818385 C77.1336662,52.9761708 75.730613,49.7926087 74.0588459,47.4310601 C72.3870903,45.0695115 70.566104,43.8887601 68.5958181,43.8887601 L68.5958181,43.8887601 Z M78.9845376,59.8515568 C77.8501296,60.210283 76.7157445,60.5988773 75.5813364,61.0173856 C74.4469284,61.4358938 73.2826925,61.8842815 72.088583,62.3625603 C72.7453335,62.7212865 73.4170208,63.0799899 74.1036335,63.4387046 C74.7902462,63.7974309 75.461922,64.1860252 76.118684,64.6045335 C76.8351474,65.0230417 77.5366855,65.4564839 78.2232981,65.9048717 C78.9099108,66.3532709 79.5815867,66.7867132 80.2383486,67.2052214 C80.1189342,65.8899262 79.9398184,64.6194904 79.7010011,63.3938682 C79.4621837,62.1682574 79.223355,60.9874946 78.9845376,59.8515568 L78.9845376,59.8515568 Z M80.686144,71.1510841 C79.7308518,70.4934365 78.7457203,69.8357889 77.7307267,69.1781413 C76.715733,68.5205051 75.6709001,67.89276 74.596205,67.2948944 C73.5214984,66.6970287 72.4766655,66.129077 71.4616718,65.5909934 C70.4466781,65.0529212 69.4615467,64.5447515 68.5062659,64.0664613 C67.4912608,64.5447515 66.4762901,65.0529212 65.461285,65.5909934 C64.4462913,66.129077 63.4313206,66.6970287 62.4163269,67.2948944 C61.4013218,67.89276 60.4162018,68.5055482 59.4609096,69.1333048 C58.5056174,69.7610614 57.5503481,70.3738611 56.5950559,70.9717152 C56.5353545,72.107653 56.4756416,73.2734704 56.4159401,74.4691901 C56.3562386,75.6649099 56.3263879,76.8606182 56.3263879,78.056338 C56.3263879,79.3118513 56.3413133,80.5374391 56.371164,81.7331589 C56.4010147,82.9288901 56.4756416,84.094696 56.5950559,85.2306338 C57.4906352,85.8284994 58.4160652,86.4263421 59.3713459,87.0242077 C60.3266381,87.6220734 61.2819189,88.2199161 62.2371996,88.8177817 C63.3119062,89.4156473 64.3716645,89.9985445 65.4165089,90.5665192 C66.4613647,91.1344823 67.4912608,91.657609 68.5062659,92.1358877 C69.5212596,91.657609 70.5511557,91.1344823 71.5960116,90.5665192 C72.6408559,89.9985445 73.7006142,89.4156473 74.7753094,88.8177817 C75.7903145,88.2199161 76.7903598,87.6071279 77.7755028,86.9793713 C78.7606457,86.3516146 79.7010011,85.738815 80.5965803,85.1409608 C80.7159947,83.9452296 80.7906216,82.7644782 80.8204723,81.5986494 C80.850323,80.4328206 80.8652484,79.2520578 80.8652484,78.056338 C80.8652484,76.8606182 80.850323,75.6948009 80.8204723,74.5588631 C80.7906216,73.4229368 80.7458455,72.2870104 80.686144,71.1510841 L80.686144,71.1510841 Z M97.7021386,95.1849749 C98.6574308,93.4511715 98.5380279,91.2690147 97.3439069,88.6384243 C96.1497974,86.0078339 94.1496952,83.197932 91.3435316,80.2086268 C90.2091235,81.3445646 88.9851747,82.4655339 87.6716508,83.5715808 C86.3581384,84.6776161 84.9849245,85.7388035 83.5519976,86.7551659 C83.3728703,88.6085448 83.134053,90.4020958 82.8355342,92.1358877 C82.537004,93.8696912 82.208623,95.5436782 81.8503913,97.1578948 C85.7312501,98.1144752 89.1045662,98.443299 91.9704313,98.1443662 C94.8363079,97.8454334 96.7468579,96.8589849 97.7021386,95.1849749 L97.7021386,95.1849749 Z M83.8206657,82.7196303 C84.8356594,82.0022007 85.7909401,81.2548801 86.6865194,80.4776686 C87.5820986,79.7004456 88.4478157,78.923234 89.283705,78.146011 C88.4478157,77.3687994 87.5820986,76.5915879 86.6865194,75.8143763 C85.7909401,75.0371533 84.8356594,74.2599418 83.8206657,73.4827187 C83.8803672,74.2599418 83.9251547,75.0222078 83.9550055,75.7695284 C83.9848562,76.5168604 83.9997816,77.279115 83.9997816,78.056338 C83.9997816,78.8335611 83.9848562,79.6107611 83.9550055,80.3879842 C83.9251547,81.1652072 83.8803672,81.9424073 83.8206657,82.7196303 L83.8206657,82.7196303 Z M97.8812659,60.9277011 C96.8662608,59.2536911 94.9258601,58.2672427 92.059995,57.9683099 C89.1941298,57.669377 85.790963,58.0280918 81.8503913,59.0444542 C82.208623,60.6586823 82.537004,62.3326693 82.8355342,64.0664613 C83.134053,65.8002532 83.3728703,67.6237067 83.5519976,69.5368561 C85.0446259,70.5532299 86.4327652,71.6144173 87.7164384,72.7204527 C89.0001001,73.8264995 90.2091235,74.9474689 91.3435316,76.0834067 C94.2691096,73.0941015 96.3289133,70.2543086 97.5230342,67.5639362 C98.7171437,64.8735523 98.8365467,62.6615046 97.8812659,60.9277011 L97.8812659,60.9277011 Z M69.043602,83.975132 C67.3718464,83.975132 65.9389425,83.3772779 64.7448216,82.1815581 C63.550712,80.9858383 62.953663,79.5210996 62.953663,77.7872962 C62.953663,76.1132862 63.550712,74.6635045 64.7448216,73.4378823 C65.9389425,72.2122715 67.3718464,71.5994718 69.043602,71.5994718 C70.7750706,71.5994718 72.2378367,72.2122715 73.4319462,73.4378823 C74.6260557,74.6635045 75.2231047,76.1132862 75.2231047,77.7872962 C75.2231047,79.5210996 74.6260557,80.9858383 73.4319462,82.1815581 C72.2378367,83.3772779 70.7750706,83.975132 69.043602,83.975132 L69.043602,83.975132 Z" id="Page-1" fill="#52BEAC"></path>
                </g>
                <g id="Group-13" transform="translate(380.000000, 489.000000)">
                    <g id="Polygon-1-Copy-12">
                        <use fill="black" fill-opacity="1" filter="url(#filter-38)" xlink:href="#path-37"></use>
                        <use stroke="#474F5B" stroke-width="4.5" fill="#373D46" fill-rule="evenodd" xlink:href="#path-37"></use>
                    </g>
                    <path d="M67.3861789,47.8450704 C76.1361463,47.8450704 83.614199,50.9450176 89.8205715,57.1450095 C96.0269439,63.3450014 99.1300813,70.8153662 99.1300813,79.556338 C99.1300813,88.2973099 96.0269439,95.7676747 89.8205715,101.967667 C83.614199,108.167657 76.1361463,111.267606 67.3861789,111.267606 C58.6362115,111.267606 51.1581587,108.167657 44.9517863,101.967667 C38.7454158,95.7676747 35.6422764,88.2973099 35.6422764,79.556338 C35.6422764,70.8153662 38.7454158,63.3450014 44.9517863,57.1450095 C51.1581587,50.9450176 58.6362115,47.8450704 67.3861789,47.8450704 L67.3861789,47.8450704 Z M68.6070982,66.7498646 L68.6070982,78.3366739 L80.0532169,78.3366739 C79.9514703,73.6612719 79.3918888,69.3924865 78.3744528,65.5302004 C75.7291113,66.1400325 72.473359,66.5465905 68.6070982,66.7498646 L68.6070982,66.7498646 Z M68.6070982,64.3105363 C72.3716222,64.1072622 75.4238815,63.7007042 77.7639931,63.0908722 C76.7465571,59.6351441 75.3984668,56.8146952 73.7197027,54.6294473 C72.0409289,52.4442092 70.3367404,51.0975146 68.6070982,50.5893147 L68.6070982,64.3105363 Z M66.1652595,50.5893147 C62.502482,51.5040628 59.450213,55.6712161 57.0083646,63.0908722 C59.450213,63.7007042 62.502482,64.1072622 66.1652595,64.3105363 L66.1652595,50.5893147 Z M66.1652595,66.7498646 C62.1972522,66.5465905 58.8906315,66.1400325 56.24529,65.5302004 C55.227854,69.3924865 54.6682725,73.6612719 54.566526,78.3366739 L66.1652595,78.3366739 L66.1652595,66.7498646 Z M52.1246873,78.3366739 C52.3281706,72.9497979 52.8877619,68.4777384 53.8034514,64.9203684 C50.8528801,64.1072524 47.8514892,62.836782 44.7991714,61.1089179 C40.7294194,65.987594 38.5419618,71.730124 38.23673,78.3366739 L52.1246873,78.3366739 Z M52.1246873,80.7760022 L38.23673,80.7760022 C38.5419618,87.382552 40.7294194,93.1250723 44.7991714,98.0037581 C48.2584558,96.1742522 51.2598564,94.9037817 53.8034514,94.1923077 C52.8877619,90.6349377 52.3281706,86.1628781 52.1246873,80.7760022 L52.1246873,80.7760022 Z M54.566526,80.7760022 C54.6682725,85.4514041 55.227854,89.7201896 56.24529,93.5824756 C59.3993446,92.8710016 62.7059751,92.4136276 66.1652595,92.2103535 L66.1652595,80.7760022 L54.566526,80.7760022 Z M66.1652595,94.8021398 C62.502482,95.0054139 59.450213,95.4119718 57.0083646,96.0218039 C59.450213,103.441465 62.502482,107.608608 66.1652595,108.523361 L66.1652595,94.8021398 Z M68.6070982,108.523361 C70.3367404,108.015165 72.0409289,106.668467 73.7197027,104.483224 C75.3984668,102.297981 76.7465571,99.477532 77.7639931,96.0218039 C75.4238815,95.4119718 72.3716222,95.0054139 68.6070982,94.8021398 L68.6070982,108.523361 Z M68.6070982,92.2103535 C71.8628993,92.3119954 75.1186516,92.7693597 78.3744528,93.5824756 C79.3918888,89.7201896 79.9514703,85.4514041 80.0532169,80.7760022 L68.6070982,80.7760022 L68.6070982,92.2103535 Z M82.6476704,80.7760022 C82.4441871,85.7563202 81.8337275,90.2283797 80.8162914,94.1923077 C83.5633697,95.0054236 86.6156387,96.2758941 89.9731864,98.0037581 C94.0429402,93.1250723 96.2303979,87.382552 96.5356277,80.7760022 L82.6476704,80.7760022 Z M82.6476704,78.3366739 L96.5356277,78.3366739 C96.2303979,71.730124 94.0429402,65.987594 89.9731864,61.1089179 C86.5139019,62.9384239 83.5125013,64.2088944 80.9689063,64.9203684 C81.8845958,68.4777384 82.4441871,72.9497979 82.6476704,78.3366739 L82.6476704,78.3366739 Z M88.1418074,59.1269637 C84.0720535,55.0613938 79.4427865,52.4188207 74.2538501,51.1991468 C76.5939617,53.6384848 78.5779361,57.3990802 80.2058318,62.4810401 C83.0546566,61.566292 85.699959,60.4482698 88.1418074,59.1269637 L88.1418074,59.1269637 Z M60.5185077,51.1991468 C55.1260879,52.4188207 50.4968112,55.0613938 46.6305503,59.1269637 C48.258446,60.0417118 50.9037484,61.1089082 54.566526,62.3285821 C56.0926849,57.4498962 58.0766592,53.7401268 60.5185077,51.1991468 L60.5185077,51.1991468 Z M46.6305503,99.9857124 C50.7003042,104.05128 55.3295712,106.693859 60.5185077,107.913529 C57.9749127,105.27091 55.94007,101.510317 54.413911,96.631636 C51.4633397,97.648026 48.8689155,98.7660385 46.6305503,99.9857124 L46.6305503,99.9857124 Z M74.2538501,107.913529 C79.4427865,106.693859 84.0720535,104.05128 88.1418074,99.9857124 C85.699959,98.6644063 83.0546566,97.5463841 80.2058318,96.631636 C78.5779361,101.713595 76.5939617,105.474188 74.2538501,107.913529 L74.2538501,107.913529 Z" id="Page-1" fill="#6B7CBC"></path>
                </g>
                <g id="Group-17" transform="translate(455.000000, 653.000000)">
                    <g id="Polygon-1-Copy-15">
                        <use fill="black" fill-opacity="1" filter="url(#filter-40)" xlink:href="#path-39"></use>
                        <use stroke="#474F5B" stroke-width="4.5" fill="#373D46" fill-rule="evenodd" xlink:href="#path-39"></use>
                    </g>
                    <path d="M62.1039468,78.9522348 C62.1039468,80.3318632 62.5979569,81.5143839 63.585996,82.4998329 C64.5740352,83.4852818 65.7596619,83.9779988 67.1429142,83.9779988 C68.5261664,83.9779988 69.7117932,83.4852818 70.6998323,82.4998329 C71.6878715,81.5143839 72.1818815,80.3318632 72.1818815,78.9522348 C72.1818815,77.5397609 71.6878715,76.3408115 70.6998323,75.3553613 C69.7117932,74.3699173 68.5261664,73.8772017 67.1429142,73.8772017 C65.7596619,73.8772017 64.5740352,74.3699173 63.585996,75.3553613 C62.5979569,76.3408115 62.1039468,77.5397609 62.1039468,78.9522348 L62.1039468,78.9522348 Z M36.8103067,78.9522348 C36.8103067,80.3318632 37.3043168,81.5143839 38.2923559,82.4998329 C39.280395,83.4852818 40.4660218,83.9779988 41.8492741,83.9779988 C43.2325263,83.9779988 44.4181531,83.4852818 45.4061922,82.4998329 C46.3942313,81.5143839 46.8882414,80.3318632 46.8882414,78.9522348 C46.8882414,77.5397609 46.3942313,76.3408115 45.4061922,75.3553613 C44.4181531,74.3699173 43.2325263,73.8772017 41.8492741,73.8772017 C40.4660218,73.8772017 39.280395,74.3699173 38.2923559,75.3553613 C37.3043168,76.3408115 36.8103067,77.5397609 36.8103067,78.9522348 L36.8103067,78.9522348 Z M45.7520068,66.73273 L73.7627341,58.7999032 C74.0262116,58.7013588 74.2567505,58.5289109 74.454357,58.2825467 C74.6519636,58.0361889 74.7507669,57.7651902 74.7507669,57.4695571 L74.7507669,43.6240667 L39.3297872,43.6240667 L39.3297872,39.5837528 C39.3297872,39.2881134 39.2309902,39.0417555 39.0333837,38.8446667 C38.8357708,38.647578 38.5887658,38.5490336 38.2923559,38.5490336 L30.1904868,38.5490336 C29.9270099,38.5490336 29.6964714,38.647578 29.4988638,38.8446667 C29.3012563,39.0417555 29.202454,39.2881134 29.202454,39.5837528 L29.202454,43.6240667 L34.2414214,43.6240667 L39.0827822,66.190739 L39.3297872,68.6050735 L39.3297872,72.743938 C39.3297872,73.0395712 39.4285905,73.285929 39.6262034,73.4830241 C39.8238099,73.6801129 40.0543488,73.778651 40.31782,73.778651 L73.7133293,73.778651 C74.0097454,73.778651 74.2567505,73.6719014 74.454357,73.4583833 C74.6519636,73.2448715 74.7507669,73.0067251 74.7507669,72.743938 L74.7507669,68.8514313 L46.2954217,68.8514313 C44.8462985,68.8514313 44.0888172,68.5886505 44.0229462,68.0630762 C43.9570753,67.5375082 44.5334225,67.0940616 45.7520068,66.73273 L45.7520068,66.73273 Z" id="Page-1" fill="#52BEAC"></path>
                </g>
                <g id="Group-6" transform="translate(287.000000, 102.000000)">
                    <g id="Polygon-1-Copy">
                        <use fill="black" fill-opacity="1" filter="url(#filter-42)" xlink:href="#path-41"></use>
                        <use stroke="#474F5B" stroke-width="4.5" fill="#2D333C" fill-rule="evenodd" xlink:href="#path-41"></use>
                    </g>
                    <path d="M109.773882,96.349284 C109.773882,90.5506625 108.898653,85.1229609 107.14818,80.066024 C105.397708,75.0091 103.175974,70.3230702 100.482938,66.0078178 C97.7899016,61.5577103 94.827593,57.3773779 91.5959472,53.4666785 C88.3643015,49.5559791 85.2673501,45.8476208 82.3050028,42.3414743 C79.2079997,45.8476208 76.043727,49.5559791 72.8120812,53.4666785 C69.5804354,57.3773779 66.618132,61.5577103 63.9250908,66.0078178 C61.2320497,70.3230702 59.010324,75.0091 57.259848,80.066024 C55.5093715,85.1229609 54.6341463,90.5506625 54.6341463,96.349284 C54.6341463,101.743353 55.5093715,106.227093 57.259848,109.800674 C59.010324,113.374241 61.2320497,116.307217 63.9250908,118.599692 C66.4834802,120.892167 69.2774634,122.645221 72.307145,123.85888 C75.3368138,125.072539 78.0634717,126.083921 80.4872093,126.893027 L80.4872093,145.907012 L83.9208192,145.907012 L83.9208192,126.893027 C86.3445568,126.083921 89.0712147,125.072539 92.1008963,123.85888 C95.1305651,122.645221 97.9245444,120.892167 100.482938,118.599692 C103.175974,116.307217 105.397708,113.374241 107.14818,109.800674 C108.898653,106.227093 109.773882,101.743353 109.773882,96.349284 Z M83.9208192,109.901805 L94.8275801,98.9788777 L92.4038555,96.5515604 L83.9208192,105.047171 L83.9208192,70.0533467 L80.4872093,70.0533467 L80.4872093,86.4377384 L71.6002189,77.537575 L69.1764942,79.9648923 L80.4872093,91.2923729 L80.4872093,123.252051 L83.9208192,123.252051 L83.9208192,109.901805 Z" id="Page-1" fill="#5DBDF2"></path>
                </g>
                <g id="Group-10" transform="translate(589.000000, 65.000000)">
                    <g id="Polygon-1-Copy-10">
                        <use fill="black" fill-opacity="1" filter="url(#filter-44)" xlink:href="#path-43"></use>
                        <use stroke="#474F5B" stroke-width="4.5" fill="#373D46" fill-rule="evenodd" xlink:href="#path-43"></use>
                    </g>
                    <path d="M114.288664,106.252749 L114.288664,96.842205 C114.288664,95.5678574 113.821113,94.4650641 112.885999,93.5338155 C111.950896,92.6025575 110.843537,92.1369332 109.563914,92.1369332 L85.9401632,92.1369332 L85.9401632,82.7263895 L100.114414,82.7263895 C101.394037,82.7263895 102.501395,82.2607652 103.436499,81.3295072 C104.371612,80.3982587 104.839164,79.2954653 104.839164,78.0211177 L104.839164,73.3158458 C104.839164,72.0414983 104.371612,70.9387049 103.436499,70.0074563 C102.501395,69.0761983 101.394037,68.610574 100.114414,68.610574 L67.0411624,68.610574 C65.7615394,68.610574 64.6541808,69.0761983 63.7190771,70.0074563 C62.783964,70.9387049 62.3164122,72.0414983 62.3164122,73.3158458 L62.3164122,78.0211177 C62.3164122,79.2954653 62.783964,80.3982587 63.7190771,81.3295072 C64.6541808,82.2607652 65.7615394,82.7263895 67.0411624,82.7263895 L81.215413,82.7263895 L81.215413,92.1369332 L57.591662,92.1369332 C56.3120361,92.1369332 55.2046832,92.6025575 54.269572,93.5338155 C53.3344607,94.4650641 52.8669117,95.5678574 52.8669117,96.842205 L52.8669117,106.252749 C51.5872859,106.252749 50.479933,106.718373 49.5448218,107.649631 C48.6097103,108.58088 48.1421615,109.683673 48.1421615,110.958021 L48.1421615,120.368564 C48.1421615,121.642915 48.6097103,122.745702 49.5448218,123.676958 C50.479933,124.608215 51.5872859,125.073836 52.8669117,125.073836 L57.591662,125.073836 C58.871285,125.073836 59.9786436,124.608215 60.9137472,123.676958 C61.8488603,122.745702 62.3164122,121.642915 62.3164122,120.368564 L62.3164122,115.663292 L62.3164122,110.958021 C62.3164122,109.683673 61.8488603,108.58088 60.9137472,107.649631 C59.9786436,106.718373 58.871285,106.252749 57.591662,106.252749 L57.591662,96.842205 L81.215413,96.842205 L81.215413,106.252749 C79.93579,106.252749 78.8284314,106.718373 77.8933277,107.649631 C76.9582146,108.58088 76.4906628,109.683673 76.4906628,110.958021 L76.4906628,115.663292 L76.4906628,120.368564 C76.4906628,121.642915 76.9582146,122.745702 77.8933277,123.676958 C78.8284314,124.608215 79.93579,125.073836 81.215413,125.073836 L85.9401632,125.073836 C87.2197862,125.073836 88.3271448,124.608215 89.2622485,123.676958 C90.1973616,122.745702 90.6649134,121.642915 90.6649134,120.368564 L90.6649134,115.663292 L90.6649134,110.958021 C90.6649134,109.683673 90.1973616,108.58088 89.2622485,107.649631 C88.3271448,106.718373 87.2197862,106.252749 85.9401632,106.252749 L85.9401632,96.842205 L109.563914,96.842205 L109.563914,106.252749 C108.284291,106.252749 107.176933,106.718373 106.241829,107.649631 C105.306716,108.58088 104.839164,109.683673 104.839164,110.958021 L104.839164,115.663292 L104.839164,120.368564 C104.839164,121.642915 105.306716,122.745702 106.241829,123.676958 C107.176933,124.608215 108.284291,125.073836 109.563914,125.073836 L114.288664,125.073836 C115.568287,125.073836 116.675646,124.608215 117.61075,123.676958 C118.545863,122.745702 119.013415,121.642915 119.013415,120.368564 L119.013415,110.958021 C119.013415,109.683673 118.545863,108.58088 117.61075,107.649631 C116.675646,106.718373 115.568287,106.252749 114.288664,106.252749 L114.288664,106.252749 Z" id="Page-1" fill="#5DBDF2"></path>
                </g>
                <g id="Polygon-1-Copy-17">
                    <use fill="black" fill-opacity="1" filter="url(#filter-46)" xlink:href="#path-45"></use>
                    <use stroke="#474F5B" stroke-width="4.5" fill="#2D333C" fill-rule="evenodd" xlink:href="#path-45"></use>
                </g>
                <g id="Polygon-1-Copy-23">
                    <use fill="black" fill-opacity="1" filter="url(#filter-48)" xlink:href="#path-47"></use>
                    <use stroke="#474F5B" stroke-width="4.5" fill="#2D333C" fill-rule="evenodd" xlink:href="#path-47"></use>
                </g>
                <g id="Polygon-1-Copy-24">
                    <use fill="black" fill-opacity="1" filter="url(#filter-50)" xlink:href="#path-49"></use>
                    <use stroke="#474F5B" stroke-width="4.5" fill="#373D46" fill-rule="evenodd" xlink:href="#path-49"></use>
                </g>
                <g id="Group-8" transform="translate(247.000000, 252.000000)">
                    <g id="Polygon-1-Copy-8">
                        <use fill="black" fill-opacity="1" filter="url(#filter-52)" xlink:href="#path-51"></use>
                        <use stroke="#474F5B" stroke-width="4.5" fill="#373D46" fill-rule="evenodd" xlink:href="#path-51"></use>
                    </g>
                    <path d="M60.7902176,105.57875 C60.7902176,104.18043 60.2782489,102.970369 59.2542934,101.948521 C58.2303379,100.926672 57.0177813,100.415757 55.6165785,100.415757 C54.2153757,100.415757 53.0028192,100.926672 51.9788637,101.948521 C50.9549081,102.970369 50.4429394,104.18043 50.4429394,105.57875 C50.4429394,106.977065 50.9549081,108.187129 51.9788637,109.208975 C53.0028192,110.230822 54.2153757,110.741737 55.6165785,110.741737 C57.0177813,110.741737 58.2303379,110.230822 59.2542934,109.208975 C60.2782489,108.187129 60.7902176,106.977065 60.7902176,105.57875 L60.7902176,105.57875 Z M45.2693085,84.9267963 L60.7902176,84.9267963 L60.7902176,74.6008105 L54.4040039,74.6008105 C54.05371,74.6008105 53.7573047,74.7218193 53.5147879,74.963837 L45.6330791,82.8293307 C45.3905641,83.0713484 45.2693085,83.3671347 45.2693085,83.7167169 L45.2693085,84.9267963 Z M97.0056642,105.57875 C97.0056642,104.18043 96.4936955,102.970369 95.46974,101.948521 C94.4457844,100.926672 93.2332279,100.415757 91.8320251,100.415757 C90.4308223,100.415757 89.2182658,100.926672 88.1943103,101.948521 C87.1703547,102.970369 86.658386,104.18043 86.658386,105.57875 C86.658386,106.977065 87.1703547,108.187129 88.1943103,109.208975 C89.2182658,110.230822 90.4308223,110.741737 91.8320251,110.741737 C93.2332279,110.741737 94.4457844,110.230822 95.46974,109.208975 C96.4936955,108.187129 97.0056642,106.977065 97.0056642,105.57875 L97.0056642,105.57875 Z M107.352933,61.6933418 L107.352933,102.997258 C107.352933,103.400618 107.299036,103.756913 107.191259,104.066153 C107.083472,104.375402 106.901589,104.624132 106.6456,104.812363 C106.389612,105.000603 106.167303,105.155223 105.978684,105.276232 C105.790065,105.397241 105.473451,105.477908 105.028834,105.518241 C104.584226,105.558583 104.281085,105.585472 104.11941,105.598916 C103.957735,105.612361 103.614177,105.612361 103.088728,105.598916 C102.563278,105.585472 102.260136,105.57875 102.179294,105.57875 C102.179294,108.429163 101.168829,110.862735 99.1478713,112.879538 C97.1269045,114.896341 94.6883193,115.904727 91.8320251,115.904727 C88.9757309,115.904727 86.5371457,114.896341 84.516179,112.879538 C82.4952212,110.862735 81.484756,108.429163 81.484756,105.57875 L65.9638477,105.57875 C65.9638477,108.429163 64.9533824,110.862735 62.9324247,112.879538 C60.9114579,114.896341 58.4728727,115.904727 55.6165785,115.904727 C52.7602844,115.904727 50.3216992,114.896341 48.3007324,112.879538 C46.2797738,110.862735 45.2693085,108.429163 45.2693085,105.57875 L42.6824907,105.57875 C42.6016524,105.57875 42.2985119,105.585472 41.773062,105.598916 C41.2476121,105.612361 40.9040543,105.612361 40.7423777,105.598916 C40.5807001,105.585472 40.2775605,105.558583 39.8329489,105.518241 C39.3883373,105.477908 39.0717256,105.397241 38.883102,105.276232 C38.6944793,105.155223 38.4721771,105.000603 38.2161882,104.812363 C37.9601998,104.624132 37.7783159,104.375402 37.6705313,104.066153 C37.5627467,103.756913 37.5088553,103.400618 37.5088553,102.997258 C37.5088553,102.298094 37.7648399,101.693067 38.2768167,101.182143 C38.7887933,100.671219 39.3950725,100.415757 40.095673,100.415757 L40.095673,87.5082882 C40.095673,87.2931594 40.088936,86.8225774 40.075463,86.0965334 C40.0619899,85.3704803 40.0619899,84.8595651 40.075463,84.5637697 C40.088936,84.2679744 40.1226182,83.8041146 40.1765113,83.1721816 C40.2304035,82.5402485 40.317977,82.0427777 40.4392344,81.6797602 C40.5604919,81.3167337 40.7491128,80.9066517 41.0051008,80.4495142 C41.2610897,79.9923676 41.5642293,79.5890168 41.9145286,79.2394347 L49.9174986,71.2529412 C50.4294763,70.742017 51.1098559,70.3117684 51.9586555,69.9621953 C52.807464,69.6126132 53.5956208,69.4378266 54.323171,69.4378266 L60.7902176,69.4378266 L60.7902176,61.6933418 C60.7902176,60.9941866 61.0461975,60.3891514 61.5581752,59.8782272 C62.070153,59.367303 62.6764358,59.1118499 63.3770327,59.1118499 L104.766109,59.1118499 C105.466715,59.1118499 106.072989,59.367303 106.584967,59.8782272 C107.096944,60.3891514 107.352933,60.9941866 107.352933,61.6933418 L107.352933,61.6933418 Z" id="Page-1" fill="#52BEAC"></path>
                </g>
                <g id="Group-9" transform="translate(362.000000, 298.000000)">
                    <g id="Polygon-1-Copy-9">
                        <use fill="black" fill-opacity="1" filter="url(#filter-54)" xlink:href="#path-53"></use>
                        <use stroke="#474F5B" stroke-width="4.5" fill="#2D333C" fill-rule="evenodd" xlink:href="#path-53"></use>
                    </g>
                    <path d="M65.3393919,70.7953841 C63.0291057,73.1436822 59.2825057,73.1436822 56.9722195,70.7953841 C54.6595902,68.4494343 54.6595902,64.6451913 56.9675333,62.2968932 C59.2778195,59.9509434 63.0267626,59.9509434 65.3370488,62.2968932 C67.6520211,64.6451913 67.6520211,68.4494343 65.3393919,70.7953841 Z M70.5129333,46.7887324 C70.5129333,46.7887324 69.9177886,61.7192119 76.2371008,58.9247371 C82.5587561,56.1302623 70.5129333,46.7887324 70.5129333,46.7887324 Z M69.0485024,67.3386893 C70.2200472,65.398995 71.6212146,63.8185904 73.2848081,62.374387 C74.9413724,60.956015 76.8627057,59.7795176 78.9808585,59.0069275 C83.2312228,57.4030399 88.0884472,57.7599812 92.2193138,59.2746335 L92.2685187,59.2910716 C93.4189756,59.7137653 94.0094341,60.9912394 93.5900211,62.1419055 C93.168265,63.2949199 91.8936244,63.8890393 90.7431675,63.4663457 C90.6869333,63.445211 90.6283561,63.4193797 90.5768081,63.398245 C87.2332195,61.8554131 83.526452,61.2683386 80.0165041,62.2381857 C78.2662163,62.7078454 76.5862211,63.5391429 75.0561837,64.6311015 C73.5448911,65.713667 72.1062341,67.1109043 71.0448146,68.5691975 L70.9979528,68.6372981 C70.6183724,69.1609686 69.8849854,69.2736869 69.3624764,68.8932626 C68.8680846,68.533973 68.7415577,67.8553148 69.0485024,67.3386893 Z M45.2497431,101.386664 C42.9394569,103.734962 39.1881707,103.734962 36.8802276,101.386664 C34.5699415,99.0407139 34.5675984,95.2388192 36.8802276,92.8905211 C39.1881707,90.5445713 42.9394569,90.5445713 45.2474,92.8905211 C47.5623724,95.2388192 47.5647154,99.0407139 45.2497431,101.386664 Z M58.6428423,97.9886763 C56.3325561,100.336974 52.5812699,100.336974 50.2756699,97.9886763 C47.9606976,95.6427265 47.9606976,91.8384836 50.2756699,89.4901854 C52.5812699,87.1465839 56.3325561,87.1465839 58.6428423,89.4925337 C60.9531285,91.8384836 60.9554715,95.6427265 58.6428423,97.9886763 Z M48.5980179,87.7900176 C46.2853886,90.1383157 42.5387886,90.140664 40.2285024,87.7923659 C37.9182163,85.4464161 37.9182163,81.6398248 40.2285024,79.2915267 C42.5387886,76.9479252 46.2853886,76.9479252 48.5980179,79.293875 C50.9106472,81.6421731 50.9083041,85.4464161 48.5980179,87.7900176 Z M75.3842163,80.9916945 C73.071587,83.3376444 69.324987,83.3376444 67.0123577,80.9916945 C64.7020715,78.6457447 64.7020715,74.8415018 67.0123577,72.4932036 C69.324987,70.1472538 73.071587,70.1472538 75.3842163,72.4932036 C77.6945024,74.8415018 77.6945024,78.6457447 75.3842163,80.9916945 Z M72.0335984,94.5883407 C69.7233122,96.9366388 65.9767122,96.9366388 63.6640829,94.5883407 C61.3561398,92.2423908 61.3561398,88.4381479 63.6640829,86.0921981 C65.9767122,83.7462482 69.7233122,83.7462482 72.0335984,86.0898498 C74.3462276,88.4381479 74.3462276,92.2423908 72.0335984,94.5883407 Z M51.9462927,74.1957198 C49.6383496,76.5416696 45.8847203,76.5416696 43.5767772,74.1933715 C41.2664911,71.84977 41.2664911,68.045527 43.5767772,65.6972289 C45.8847203,63.351279 49.6383496,63.351279 51.9462927,65.6972289 C54.258922,68.045527 54.258922,71.84977 51.9462927,74.1957198 Z M61.9911171,84.3943785 C59.6784878,86.7403283 55.9318878,86.7403283 53.6216016,84.3920302 C51.3113154,82.0484287 51.3113154,78.2418374 53.6216016,75.8958876 C55.9318878,73.5499378 59.6784878,73.5499378 61.9911171,75.8935393 C64.3014033,78.2418374 64.3014033,82.0484287 61.9911171,84.3943785 Z" id="grapes" fill="#5DBDF2"></path>
                </g>
                <g id="Group-11" transform="translate(465.000000, 352.000000)">
                    <g id="Polygon-1-Copy-6">
                        <use fill="black" fill-opacity="1" filter="url(#filter-56)" xlink:href="#path-55"></use>
                        <use stroke="#474F5B" stroke-width="4.5" fill="#373D46" fill-rule="evenodd" xlink:href="#path-55"></use>
                    </g>
                    <path d="M45.4227642,100.750617 C45.4227642,101.985969 45.9247603,103.104146 46.7375691,103.914323 L46.7375691,103.914323 L51.5518121,108.714005 L50.2235909,110.039749 C50.0201092,110.241735 49.8948897,110.520721 49.8948897,110.828722 C49.8948897,111.44584 50.3957677,111.944668 51.012921,111.944668 C51.3214977,111.944668 51.6010055,111.819682 51.8033692,111.617696 L53.1327085,110.290837 L57.9536597,115.09833 C58.7664685,115.907391 59.8878539,116.408451 61.1277507,116.408451 C62.7723749,116.408451 64.1889206,115.514578 64.9659524,114.198878 L47.6510007,96.9151117 C46.3238975,97.689578 45.4227642,99.105713 45.4227642,100.750617 L45.4227642,100.750617 Z M108.03252,69.5911818 C108.03252,68.354714 107.530524,67.2354205 106.718833,66.424128 L101.902354,61.6121703 L103.231694,60.2853109 C103.435175,60.0822088 103.560395,59.8032223 103.560395,59.4952213 C103.560395,58.8781034 103.060635,58.3792757 102.442364,58.3792757 C102.133787,58.3792757 101.854279,58.5042616 101.651915,58.7062477 L100.323694,60.0319912 L95.5150412,55.2267291 C94.7033505,54.4165526 93.583083,53.915493 92.3454223,53.915493 C90.6672573,53.915493 89.2272329,54.8495395 88.4624994,56.215457 L105.742792,73.4646293 C107.103436,72.6979746 108.03252,71.2628685 108.03252,69.5911818 L108.03252,69.5911818 Z M83.0713522,53.9891454 C82.8265033,53.9578989 82.5838905,53.915493 82.3300974,53.915493 C79.2353866,53.915493 76.7276423,56.4219069 76.7276423,59.5141924 C76.7276423,61.0608931 77.3548579,62.460289 78.3689123,63.4735677 L85.3890312,70.4750108 L85.380087,70.4839384 L91.4331087,76.5256683 L91.443171,76.5156247 L98.467762,83.5215317 C99.4818165,84.5348104 100.881592,85.1619718 102.430065,85.1619718 C105.524776,85.1619718 108.03252,82.6555578 108.03252,79.5632724 C108.03252,79.3121846 107.991153,79.0733722 107.95873,78.831212 L83.0713522,53.9891454 L83.0713522,53.9891454 Z M68.0640173,99.8500488 L68.0863779,99.8288458 L62.0322381,93.7871159 L62.0132316,93.806087 L54.9975848,86.8001801 C53.9824123,85.7880174 52.580401,85.1619718 51.0319276,85.1619718 C47.9338627,85.1619718 45.4227642,87.6661539 45.4227642,90.7550915 C45.4227642,91.0519331 45.4663675,91.3376152 45.5110887,91.6221813 L70.2564768,116.321407 C70.5393387,116.366045 70.8233187,116.408451 71.1184789,116.408451 C74.2165438,116.408451 76.7276423,113.905385 76.7276423,110.815331 C76.7276423,109.271978 76.0993087,107.873698 75.0852542,106.861535 L68.0640173,99.8500488 L68.0640173,99.8500488 Z M63.6142525,92.2080528 L69.6672742,98.2508986 L89.8522124,78.1024995 L83.7991906,72.0607696 L63.6142525,92.2080528 L63.6142525,92.2080528 Z" id="Shape" fill="#52BEAC"></path>
                </g>
                <g id="Group-3" transform="translate(589.000000, 314.000000)">
                    <g id="Polygon-1-Copy-7">
                        <use fill="black" fill-opacity="1" filter="url(#filter-58)" xlink:href="#path-57"></use>
                        <use stroke="#474F5B" stroke-width="4.5" fill="#2D333C" fill-rule="evenodd" xlink:href="#path-57"></use>
                    </g>
                    <path d="M100.843001,108.725304 C98.8838609,103.813315 96.8870861,99.703353 94.8526094,96.3952912 C92.818123,93.0872198 90.9846075,90.1927055 89.3519954,87.7116519 C87.7193929,85.2305984 86.3756456,82.9500682 85.3207246,80.8699938 C84.2658133,78.7899195 83.7383624,76.5219286 83.7383624,74.0659345 L83.7383624,62.5629302 L85.6974835,62.5629302 C86.2500593,62.5629302 86.7147218,62.3749751 87.0914711,61.9990649 C87.4682299,61.623145 87.6566046,61.1595173 87.6566046,60.6081817 L87.6566046,56.7738437 C87.6566046,56.2224985 87.4682299,55.7588708 87.0914711,55.3829606 C86.7147218,55.0070408 86.2500593,54.8190857 85.6974835,54.8190857 L66.407676,54.8190857 C65.8551002,54.8190857 65.3904376,55.0070408 65.0136884,55.3829606 C64.6369295,55.7588708 64.4485549,56.2224985 64.4485549,56.7738437 L64.4485549,60.6081817 C64.4485549,61.1595173 64.6369295,61.623145 65.0136884,61.9990649 C65.3904376,62.3749751 65.8551002,62.5629302 66.407676,62.5629302 L68.3667971,62.5629302 L68.3667971,74.0659345 C68.3667971,76.5219286 67.8393462,78.7899195 66.7844349,80.8699938 C65.7295139,82.9500682 64.3857666,85.2305984 62.7531641,87.7116519 C61.1205519,90.1927055 59.2870364,93.0872198 57.252552,96.3952912 C55.2180705,99.703353 53.2212938,103.813315 51.2621631,108.725304 C50.00631,111.882999 49.604443,115.241142 50.0565501,118.799821 C50.5086569,122.358501 59.1739114,124.137815 76.0525797,124.137815 C92.9312481,124.137815 101.5965,122.358501 102.048614,118.799821 C102.500719,115.241142 102.098845,111.882999 100.843001,108.725304 L100.843001,108.725304 Z M94.6642251,115.491769 C93.3079105,115.892747 91.1729918,116.281189 88.259411,116.657105 C85.3458303,117.033022 81.2769251,117.220978 76.0525797,117.220978 C70.8282344,117.220978 66.7593292,117.033022 63.8457484,116.657105 C60.9321677,116.281189 58.7972509,115.892747 57.4409295,115.491769 C56.9888227,115.341402 56.6748638,115.028143 56.4990439,114.551981 C56.323225,114.075822 56.3106664,113.587135 56.461369,113.085908 C56.9134758,111.782733 57.56651,110.078607 58.4204901,107.973464 C59.2744691,105.86833 60.4549571,103.562741 61.961983,101.056628 C63.7704024,97.9991792 65.5913699,96.3827615 67.4249143,96.2073265 C69.2584588,96.0319011 71.0794166,96.4454004 72.8878457,97.4478436 C74.6962748,98.4502965 76.467002,99.6156162 78.2000754,100.94386 C79.9331585,102.272095 81.5782994,102.936208 83.1355559,102.936208 C86.3003093,102.936208 87.9580078,102.109199 88.1087094,100.455164 C88.259411,98.8011377 88.9375635,99.0016225 90.1431765,101.056628 C91.6502023,103.562741 92.8306903,105.86833 93.6846694,107.973464 C94.5386485,110.078607 95.1916856,111.782733 95.6437905,113.085908 C95.7944921,113.587135 95.7819344,114.075822 95.6061175,114.551981 C95.4302909,115.028143 95.1163396,115.341402 94.6642251,115.491769 L94.6642251,115.491769 Z" id="Page-1" fill="#5DBDF2"></path>
                </g>
                <g id="Group-5" transform="translate(463.000000, 139.000000)">
                    <g id="Polygon-1-Copy-4">
                        <use fill="black" fill-opacity="1" filter="url(#filter-60)" xlink:href="#path-59"></use>
                        <use stroke="#474F5B" stroke-width="4.5" fill="#373D46" fill-rule="evenodd" xlink:href="#path-59"></use>
                    </g>
                    <path d="M52.030932,64.1211774 L48.7407407,64.1211774 L48.7407407,142.758792 L134.285714,142.758792 L134.285714,139.584617 L52.030932,139.482225 L52.030932,64.1211774 Z M94.8034188,67.3977446 C94.8034188,66.5103323 94.4778346,65.7423966 93.82664,65.0939116 C93.1754585,64.4454134 92.4043298,64.1211774 91.5132275,64.1211774 L81.6426536,64.1211774 C80.7515514,64.1211774 79.9804227,64.4454134 79.3292412,65.0939116 C78.6780465,65.7423966 78.3524624,66.5103323 78.3524624,67.3977446 L78.3524624,132.92909 L94.8034188,132.92909 L94.8034188,67.3977446 Z M75.0622711,87.0571483 C75.0622711,86.1697359 74.7366869,85.4018003 74.0854922,84.7533152 C73.4343107,84.104817 72.663182,83.780581 71.7720798,83.780581 L61.9015059,83.780581 C61.0104076,83.780581 60.2392776,84.104817 59.5880908,84.7533152 C58.9369027,85.4018003 58.6113146,86.1697359 58.6113146,87.0571483 L58.6113146,132.92909 L75.0622711,132.92909 L75.0622711,87.0571483 Z M114.544567,106.716552 C114.544567,105.82914 114.218982,105.061204 113.567788,104.412719 C112.916606,103.764221 112.145478,103.439985 111.254375,103.439985 L101.383801,103.439985 C100.492699,103.439985 99.7215704,103.764221 99.0703889,104.412719 C98.4191943,105.061204 98.0936101,105.82914 98.0936101,106.716552 L98.0936101,132.92909 L114.544567,132.92909 L114.544567,106.716552 Z M130.995523,123.099388 L121.124949,123.099388 C120.233847,123.099388 119.462718,123.423624 118.811537,124.072123 C118.160342,124.720608 117.834758,125.488543 117.834758,126.375956 L117.834758,132.92909 L134.285714,132.92909 L134.285714,126.375956 C134.285714,125.488543 133.96013,124.720608 133.308935,124.072123 C132.657754,123.423624 131.886625,123.099388 130.995523,123.099388 L130.995523,123.099388 Z" id="Page-1" fill="#52BEAC"></path>
                </g>
            </g>
        </g>
    </g>
</svg>