<?xml version="1.0" encoding="UTF-8" standalone="no"?>
<svg width="282px" height="33px" viewBox="0 0 282 33" version="1.1" xmlns="http://www.w3.org/2000/svg" xmlns:xlink="http://www.w3.org/1999/xlink">
    <!-- Generator: Sketch 3.7.1 (28215) - http://www.bohemiancoding.com/sketch -->
    <title>li_logo_horizontal</title>
    <desc>Created with Sketch.</desc>
    <defs></defs>
    <g id="Symbols" stroke="none" stroke-width="1" fill="none" fill-rule="evenodd">
        <g id="Nav_About" transform="translate(-140.000000, -90.000000)" fill="#2D3238">
            <g id="li_logo_horizontal" transform="translate(140.000000, 90.000000)">
                <path d="M49.3766703,24.7161433 L49.3766703,9.09366071 L50.7261979,9.09366071 L50.7261979,23.4773562 L58.3389173,23.4773562 L58.3389173,24.6817326 L49.3766703,24.6817326 L49.3766703,24.7161433 Z M22.5156859,32.6478757 L23.0036409,32.6478757 C23.491596,32.6478757 23.8908321,32.2508608 23.8908321,31.7656206 L23.8908321,17.4436779 L21.6284948,17.4436779 L21.6284948,31.7656206 C21.6284948,32.2508608 22.0277308,32.6478757 22.5156859,32.6478757 Z M26.7594165,32.6478757 L29.6132145,32.6478757 C30.1011696,32.6478757 30.5004056,32.2508608 30.5004056,31.7656206 L30.5004056,17.4436779 L25.8722255,17.4436779 L25.8722255,31.7656206 C25.8722255,32.2508608 26.2714615,32.6478757 26.7594165,32.6478757 Z M18.8190564,32.6478757 L18.3311013,32.6478757 C17.8431462,32.6478757 17.4439103,32.2508608 17.4439103,31.7656206 L17.4439103,17.4436779 L19.7062474,17.4436779 L19.7062474,31.7656206 C19.7062474,32.2508608 19.3070116,32.6478757 18.8190564,32.6478757 Z M14.5901122,32.6478757 L11.7363143,32.6478757 C11.2483592,32.6478757 10.8491232,32.2508608 10.8491232,31.7656206 L10.8491232,17.4436779 L15.4773033,17.4436779 L15.4773033,31.7656206 C15.4773033,32.2508608 15.0780673,32.6478757 14.5901122,32.6478757 Z M8.02489825,32.6478757 L6.79761725,32.6478757 C6.30966216,32.6478757 5.91042618,32.2508608 5.91042618,31.7656206 L5.91042618,17.4436779 L8.91208932,17.4436779 L8.91208932,31.7656206 C8.91208932,32.2508608 8.51285334,32.6478757 8.02489825,32.6478757 Z M3.0566282,32.6478757 L0.942156126,32.6478757 C0.454201032,32.6478757 0.0549650463,32.2508608 0.0549650463,31.7656206 L0.0549650463,17.4436779 L3.94381927,17.4436779 L3.94381927,31.7656206 C3.94381927,32.2508608 3.54458329,32.6478757 3.0566282,32.6478757 Z M21.6284948,15.473308 L21.6284948,4.00399059 C21.6284948,3.51875023 22.0277308,3.1217354 22.5156859,3.1217354 L29.6132145,3.1217354 C30.1011696,3.1217354 30.5004056,3.51875023 30.5004056,4.00399059 L30.5004056,15.473308 L21.6284948,15.473308 Z M10.8343367,15.473308 L10.8343367,8.12118146 C10.8343367,7.63594112 11.2335726,7.23892628 11.7215277,7.23892628 L18.8190564,7.23892628 C19.3070116,7.23892628 19.7062474,7.63594112 19.7062474,8.12118146 L19.7062474,15.473308 L10.8343367,15.473308 Z M0.0401785282,15.473308 L0.0401785282,0.916097435 C0.0401785282,0.430857082 0.439414514,0.0338422474 0.927369609,0.0338422474 L8.02489825,0.0338422474 C8.51285334,0.0338422474 8.91208932,0.430857082 8.91208932,0.916097435 L8.91208932,15.473308 L0.0401785282,15.473308 Z M273.778877,24.7161433 L273.778877,12.0185748 L269.176642,12.0185748 L269.176642,9.09366071 L281.703026,9.09366071 L281.703026,12.0185748 L277.135395,12.0185748 L277.135395,24.7161433 L273.778877,24.7161433 Z M256.788672,24.7161433 L256.788672,18.1436892 L249.383572,18.1436892 L249.383572,24.7161433 L246.027055,24.7161433 L246.027055,9.09366071 L249.383572,9.09366071 L249.383572,15.218775 L256.788672,15.218775 L256.788672,9.09366071 L260.145189,9.09366071 L260.145189,24.7161433 L256.788672,24.7161433 Z M221.42413,16.904902 C221.42413,11.9841641 225.195886,8.81837467 229.798121,8.81837467 C233.050828,8.81837467 235.092421,10.4700909 236.268933,12.2938609 L233.500671,13.8079341 C232.774002,12.70679 231.424475,11.7776996 229.798121,11.7776996 C226.92605,11.7776996 224.849853,13.9455771 224.849853,16.904902 C224.849853,19.8642269 226.92605,22.0321045 229.798121,22.0321045 C231.182252,22.0321045 232.497176,21.4127109 233.120035,20.8277281 L233.120035,18.9695473 L228.967643,18.9695473 L228.967643,16.0790439 L236.441949,16.0790439 L236.441949,22.0665152 C234.850198,23.8558745 232.600986,24.9914294 229.798121,24.9914294 C225.195886,24.9914294 221.42413,21.8256399 221.42413,16.904902 Z M208.828539,24.7161433 L208.828539,9.09366071 L212.185056,9.09366071 L212.185056,24.7161433 L208.828539,24.7161433 Z M186.682446,22.513855 L188.51642,19.9330484 C189.623724,21.0686033 191.353888,22.0665152 193.499291,22.0665152 C195.367867,22.0665152 196.232949,21.2406571 196.232949,20.3459775 C196.232949,17.6275279 187.201495,19.5201194 187.201495,13.6702911 C187.201495,11.0894845 189.450708,8.92160693 193.153258,8.92160693 C195.644693,8.92160693 197.72089,9.67864354 199.278037,11.0894845 L197.40946,13.5670588 C196.129139,12.3970932 194.433579,11.8465211 192.841828,11.8465211 C191.423094,11.8465211 190.627219,12.4659147 190.627219,13.395005 C190.627219,15.8381686 199.624069,14.1864524 199.624069,20.0018699 C199.624069,22.8579626 197.547873,25.0258401 193.326274,25.0258401 C190.350393,24.9914294 188.170387,23.9935175 186.682446,22.513855 Z M174.536699,24.7161433 L167.062392,14.5305599 L167.062392,24.7161433 L163.705875,24.7161433 L163.705875,9.09366071 L167.131599,9.09366071 L174.398285,18.9007258 L174.398285,9.09366071 L177.754803,9.09366071 L177.754803,24.7161433 L174.536699,24.7161433 Z M150.349013,24.7161433 L150.349013,9.09366071 L153.70553,9.09366071 L153.70553,24.7161433 L150.349013,24.7161433 Z M131.386421,24.7161433 L131.386421,9.09366071 L132.735948,9.09366071 L132.735948,23.4773562 L140.348668,23.4773562 L140.348668,24.6817326 L131.386421,24.6817326 L131.386421,24.7161433 Z M111.524144,24.7161433 L111.524144,9.09366071 L121.489885,9.09366071 L121.489885,10.2980371 L112.873671,10.2980371 L112.873671,16.0790439 L121.316869,16.0790439 L121.316869,17.2834203 L112.873671,17.2834203 L112.873671,23.4773562 L121.489885,23.4773562 L121.489885,24.6817326 L111.524144,24.6817326 L111.524144,24.7161433 Z M90.1393225,24.7161433 L90.1393225,9.09366071 L96.5755309,9.09366071 C99.2053794,9.09366071 100.90094,10.6077339 100.90094,13.0853083 C100.90094,15.0467213 99.5514122,16.3887407 98.132678,16.6640268 C99.793635,16.904902 101.177766,18.6598505 101.177766,20.5180313 C101.177766,23.0988379 99.4822055,24.7161433 96.6793407,24.7161433 L90.1393225,24.7161433 Z M99.5168088,13.2229513 C99.5168088,11.6400566 98.4441075,10.3324479 96.4371179,10.3324479 L91.4888502,10.3324479 L91.4888502,16.1134547 L96.4371179,16.1134547 C98.4441075,16.1134547 99.5168088,14.8402567 99.5168088,13.2229513 Z M99.8282383,20.414799 C99.8282383,18.8319043 98.7209336,17.3178311 96.5409276,17.3178311 L91.4888502,17.3178311 L91.4888502,23.5117669 L96.5409276,23.5117669 C98.5825205,23.4773562 99.8282383,22.3073905 99.8282383,20.414799 Z M79.3777055,24.7161433 L77.8205585,20.8621388 L69.5157737,20.8621388 L67.9586264,24.7161433 L66.4014794,24.7161433 L72.8376876,9.09366071 L74.4986444,9.09366071 L80.9348528,24.7161433 L79.3777055,24.7161433 Z M73.668166,10.5389124 L69.9656161,19.6577624 L77.3707159,19.6577624 L73.668166,10.5389124 Z" id="Logo"></path>
            </g>
        </g>
    </g>
</svg>