<svg id="Layer_6" data-name="Layer 6" xmlns="http://www.w3.org/2000/svg" viewBox="0 0 429.27 415.18"><defs><style>.cls-1,.cls-2,.cls-3{fill:#6b7cbc;}.cls-1{opacity:0.4;}.cls-3,.cls-4{fill-rule:evenodd;}.cls-4,.cls-5{fill:#fff;}.cls-6{fill:none;stroke:#6b7cbc;stroke-miterlimit:10;stroke-width:12px;}</style></defs><title>How it works</title><g id="Layer_3_copy" data-name="Layer 3 copy"><path class="cls-1" d="M80.83,209.83a24.7,24.7,0,0,0-24.57,25v3a24.7,24.7,0,0,0,24.57,25h18c13.75,0,25.43,11.25,25.43,25v2a24.7,24.7,0,0,0,24.57,25h27c13.75,0,25.43-11.25,25.43-25v-55c0-13.75-11.68-25-25.43-25h-95Z"/><path class="cls-2" d="M358.41,236.67a12.77,12.77,0,1,1,.8,0Zm0-22.5-0.61,0A9.74,9.74,0,1,0,358.44,214.17Z"/><rect class="cls-2" x="308.27" y="123.83" width="3" height="11"/><rect class="cls-2" x="304.27" y="127.83" width="11" height="3"/><path class="cls-3" d="M238.57,67.79a19.74,19.74,0,0,0-3,.24,22.2,22.2,0,0,0,.13-2.38A22.45,22.45,0,0,0,191.05,62c-0.45,0-.9,0-1.37,0a22.47,22.47,0,0,0,0,44.95l1.9,0h13v-12h-8.08l16.16-16L228.85,95.1l-8.14.19v11.54h17.86A19.52,19.52,0,0,0,238.57,67.79Z"/><path class="cls-4" d="M273.65,199.62l-41.41-41.41v35.22a6.2,6.2,0,0,0,6.19,6.19h35.22ZM150.27,329.52V149a9.21,9.21,0,0,1,9.21-9.21h70.93l61.68,61.66V329.52a9.21,9.21,0,0,1-9.2,9.21H159.49A9.21,9.21,0,0,1,150.27,329.52Z"/><rect class="cls-2" x="139.27" y="159.83" width="77" height="35" rx="13.54" ry="13.54"/><path class="cls-5" d="M166.42,173.7a6,6,0,0,1-2,4.85,8.47,8.47,0,0,1-5.64,1.68H157v7h-4.17V167.57h6.28a8.36,8.36,0,0,1,5.44,1.54A5.61,5.61,0,0,1,166.42,173.7ZM157,176.82h1.37a4.57,4.57,0,0,0,2.88-.76,2.66,2.66,0,0,0,1-2.21,2.72,2.72,0,0,0-.8-2.16,3.76,3.76,0,0,0-2.51-.7H157v5.83Z"/><path class="cls-5" d="M186.44,177.21q0,4.85-2.76,7.43t-8,2.58h-5.57V167.57h6.17q4.81,0,7.47,2.54A9.34,9.34,0,0,1,186.44,177.21Zm-4.33.11q0-6.33-5.59-6.33H174.3v12.8h1.79Q182.11,183.79,182.11,177.32Z"/><path class="cls-5" d="M194.61,187.23h-4.1V167.57h11.26V171h-7.17v5.07h6.67v3.4h-6.67v7.77Z"/><rect class="cls-2" x="81.27" y="136.83" width="10" height="5"/><rect class="cls-2" x="81.27" y="241.83" width="10" height="5"/><rect class="cls-2" x="309.27" y="289.83" width="9" height="5"/><circle class="cls-6" cx="212.8" cy="206" r="196.69"/></g></svg>