<svg id="Layer_6" data-name="Layer 6" xmlns="http://www.w3.org/2000/svg" xmlns:xlink="http://www.w3.org/1999/xlink" viewBox="0 0 433.63 438.24"><defs><style>.cls-1,.cls-10,.cls-9{fill:none;}.cls-2{fill:#6b7cbc;}.cls-3{fill:#fff;stroke:#fff;stroke-linejoin:round;stroke-width:5px;}.cls-3,.cls-9{stroke-linecap:round;}.cls-4{clip-path:url(#clip-path);}.cls-5{fill:#494b57;}.cls-5,.cls-6,.cls-7,.cls-8{stroke:#ccc;}.cls-10,.cls-5,.cls-6,.cls-7,.cls-8,.cls-9{stroke-miterlimit:10;}.cls-6{fill:#575c64;}.cls-7{fill:#2d333d;}.cls-11,.cls-8{fill:#373d46;}.cls-9{stroke:#373d46;stroke-width:3px;}.cls-10{stroke:#6b7cbc;stroke-width:12px;}.cls-12{fill:#68c5ba;}.cls-13{fill:#ccc;}.cls-14{fill:#74caef;}</style><clipPath id="clip-path"><rect id="SVGID" class="cls-1" x="122.13" y="140.35" width="194.04" height="114.13"/></clipPath></defs><title>How it works</title><g id="Layer_4_copy" data-name="Layer 4 copy"><path class="cls-2" d="M147.64,111.23a12.75,12.75,0,1,1,.8,0Zm0-22.5-0.61,0A9.75,9.75,0,1,0,147.66,88.73Z"/><rect class="cls-2" x="79.06" y="215.39" width="3" height="11"/><rect class="cls-2" x="75.06" y="219.39" width="11" height="3"/><rect class="cls-2" x="145.06" y="354.39" width="25" height="5"/><rect class="cls-2" x="359.06" y="183.39" width="13" height="5"/><rect class="cls-2" x="183.06" y="354.39" width="9" height="5"/><path class="cls-3" d="M319,128.94H119.28a8.56,8.56,0,0,0-8.56,8.56V257.35a8.56,8.56,0,0,0,8.56,8.56H319a8.57,8.57,0,0,0,8.56-8.56V137.5A8.55,8.55,0,0,0,319,128.94Z"/><g class="cls-4"><polygon class="cls-5" points="215.56 192.76 200.56 201.52 185.56 192.76 185.56 175.25 200.56 166.49 215.56 175.25 215.56 192.76"/><polygon class="cls-6" points="230.56 167.22 215.56 175.98 200.56 167.22 200.56 149.7 215.56 140.95 230.56 149.7 230.56 167.22"/><polygon class="cls-7" points="185.56 245.35 170.56 254.1 155.56 245.35 155.56 227.83 170.56 219.07 185.56 227.83 185.56 245.35"/><polygon class="cls-5" points="304.56 245.35 289.56 254.1 274.56 245.35 274.56 227.83 289.56 219.07 304.56 227.83 304.56 245.35"/><polygon class="cls-8" points="261.56 167.22 246.56 175.98 231.56 167.22 231.56 149.7 246.56 140.95 261.56 149.7 261.56 167.22"/><polygon class="cls-7" points="246.56 192.76 231.56 201.52 216.56 192.76 216.56 175.25 231.56 166.49 246.56 175.25 246.56 192.76"/><polygon class="cls-8" points="232.56 219.63 216.06 228.39 199.56 219.63 199.56 202.11 216.06 193.35 232.56 202.11 232.56 219.63"/><polygon class="cls-5" points="276.56 192.76 261.56 201.52 246.56 192.76 246.56 175.25 261.56 166.49 276.56 175.25 276.56 192.76"/><polygon class="cls-6" points="261.56 219.06 246.56 227.81 231.56 219.06 231.56 201.54 246.56 192.78 261.56 201.54 261.56 219.06"/><polygon class="cls-7" points="199.56 219.06 184.56 227.81 169.56 219.06 169.56 201.54 184.56 192.78 199.56 201.54 199.56 219.06"/><polygon class="cls-7" points="291.56 219.06 276.56 227.81 261.56 219.06 261.56 201.54 276.56 192.78 291.56 201.54 291.56 219.06"/><polygon class="cls-6" points="216.56 245.77 200.56 254.1 185.56 245.35 185.56 227.83 200.56 219.07 216.56 228.25 216.56 245.77"/><polygon class="cls-7" points="246.56 245.35 231.56 254.1 216.56 245.35 216.56 227.83 231.56 219.07 246.56 227.83 246.56 245.35"/><polygon class="cls-8" points="276.56 245.35 261.56 254.1 246.56 245.35 246.56 227.83 261.56 219.07 276.56 227.83 276.56 245.35"/><polygon class="cls-5" points="336.56 176.52 351.56 167.77 366.56 176.52 366.56 194.04 351.56 202.8 336.56 194.04 336.56 176.52"/><polygon class="cls-6" points="321.56 202.06 336.56 193.31 351.56 202.06 351.56 219.58 336.56 228.34 321.56 219.58 321.56 202.06"/><polygon class="cls-7" points="366.56 123.94 381.56 115.18 396.56 123.94 396.56 141.46 381.56 150.21 366.56 141.46 366.56 123.94"/><polygon class="cls-5" points="246.56 123.94 261.56 115.18 276.56 123.94 276.56 141.46 261.56 150.21 246.56 141.46 246.56 123.94"/><polygon class="cls-8" points="290.56 202.06 305.56 193.31 320.56 202.06 320.56 219.58 305.56 228.34 290.56 219.58 290.56 202.06"/><polygon class="cls-7" points="305.56 176.52 320.56 167.77 335.56 176.52 335.56 194.04 320.56 202.8 305.56 194.04 305.56 176.52"/><polygon class="cls-8" points="319.56 149.66 336.06 140.9 352.56 149.66 352.56 167.17 336.06 175.93 319.56 167.17 319.56 149.66"/><polygon class="cls-5" points="275.56 176.52 290.56 167.77 305.56 176.52 305.56 194.04 290.56 202.8 275.56 194.04 275.56 176.52"/><polygon class="cls-6" points="290.56 150.23 305.56 141.47 320.56 150.23 320.56 167.75 305.56 176.5 290.56 167.75 290.56 150.23"/><polygon class="cls-7" points="352.56 150.23 367.56 141.47 382.56 150.23 382.56 167.75 367.56 176.5 352.56 167.75 352.56 150.23"/><polygon class="cls-7" points="260.56 150.23 275.56 141.47 290.56 150.23 290.56 167.75 275.56 176.5 260.56 167.75 260.56 150.23"/><polygon class="cls-6" points="336.56 123.94 351.56 115.18 366.56 123.94 366.56 141.46 351.56 150.21 336.56 141.46 336.56 123.94"/><polygon class="cls-7" points="305.56 123.94 320.56 115.18 335.56 123.94 335.56 141.46 320.56 150.21 305.56 141.46 305.56 123.94"/><polygon class="cls-7" points="215.56 123.94 230.56 115.18 245.56 123.94 245.56 141.46 230.56 150.21 215.56 141.46 215.56 123.94"/><polygon class="cls-8" points="275.56 123.94 290.56 115.18 305.56 123.94 305.56 141.46 290.56 150.21 275.56 141.46 275.56 123.94"/><polygon class="cls-5" points="154.56 175.99 169.56 167.23 184.56 175.99 184.56 193.5 169.56 202.26 154.56 193.5 154.56 175.99"/><polygon class="cls-6" points="139.56 201.53 154.56 192.77 169.56 201.53 169.56 219.04 154.56 227.8 139.56 219.04 139.56 201.53"/><polygon class="cls-7" points="184.56 123.4 199.56 114.64 214.56 123.4 214.56 140.92 199.56 149.68 184.56 140.92 184.56 123.4"/><polygon class="cls-5" points="64.56 123.4 80.06 114.64 95.56 123.4 95.56 140.92 80.06 149.68 64.56 140.92 64.56 123.4"/><polygon class="cls-8" points="108.56 201.53 124.06 192.77 139.56 201.53 139.56 219.04 124.06 227.8 108.56 219.04 108.56 201.53"/><polygon class="cls-7" points="123.56 175.99 138.56 167.23 153.56 175.99 153.56 193.5 138.56 202.26 123.56 193.5 123.56 175.99"/><polygon class="cls-8" points="137.56 149.12 154.06 140.36 170.56 149.12 170.56 166.64 154.06 175.4 137.56 166.64 137.56 149.12"/><polygon class="cls-5" points="93.56 175.99 108.56 167.23 123.56 175.99 123.56 193.5 108.56 202.26 93.56 193.5 93.56 175.99"/><polygon class="cls-6" points="108.56 149.69 123.56 140.94 138.56 149.69 138.56 167.21 123.56 175.97 108.56 167.21 108.56 149.69"/><polygon class="cls-7" points="170.56 149.69 185.56 140.94 200.56 149.69 200.56 167.21 185.56 175.97 170.56 167.21 170.56 149.69"/><polygon class="cls-7" points="78.56 149.69 93.56 140.94 108.56 149.69 108.56 167.21 93.56 175.97 78.56 167.21 78.56 149.69"/><polygon class="cls-6" points="154.56 123.4 169.56 114.64 184.56 123.4 184.56 140.92 169.56 149.68 154.56 140.92 154.56 123.4"/><polygon class="cls-7" points="123.56 123.4 138.56 114.64 153.56 123.4 153.56 140.92 138.56 149.68 123.56 140.92 123.56 123.4"/><polygon class="cls-8" points="93.56 123.4 108.56 114.64 123.56 123.4 123.56 140.92 108.56 149.68 93.56 140.92 93.56 123.4"/><polygon class="cls-7" points="352.56 254.91 367.56 246.15 382.56 254.91 382.56 272.43 367.56 281.19 352.56 272.43 352.56 254.91"/><polygon class="cls-5" points="231.56 253.91 246.56 245.15 261.56 253.91 261.56 272.43 246.56 281.19 231.56 272.43 231.56 253.91"/><polygon class="cls-6" points="322.56 254.91 337.56 246.15 352.56 254.91 352.56 272.43 337.56 281.19 322.56 272.43 322.56 254.91"/><polygon class="cls-7" points="336.56 228.61 351.56 219.85 366.56 228.61 366.56 246.13 351.56 254.88 336.56 246.13 336.56 228.61"/><polygon class="cls-6" points="305.56 228.61 321.06 219.85 336.56 228.61 336.56 246.13 321.06 254.88 305.56 246.13 305.56 228.61"/><polygon class="cls-7" points="124.56 228.07 139.56 219.31 154.56 228.07 154.56 245.59 139.56 254.35 124.56 245.59 124.56 228.07"/><polygon class="cls-6" points="94.56 228.07 109.56 219.31 124.56 228.07 124.56 245.59 109.56 254.35 94.56 245.59 94.56 228.07"/><polygon class="cls-7" points="200.61 254.23 216.82 245.77 232.56 254.43 232.56 272.43 216.56 281.19 200.75 271.86 200.61 254.23"/><polygon class="cls-8" points="260.56 253.91 275.56 245.15 290.56 254.91 290.56 272.43 275.56 281.19 260.56 272.43 260.56 253.91"/><polygon class="cls-7" points="170.56 254.37 185.56 245.62 200.56 254.37 200.56 271.89 185.56 280.65 170.56 271.89 170.56 254.37"/><polygon class="cls-5" points="50.56 254.37 65.56 245.62 80.56 254.37 80.56 271.89 65.56 280.65 50.56 271.89 50.56 254.37"/><polygon class="cls-7" points="108.56 254.37 124.06 245.62 139.56 254.37 139.56 271.89 124.06 280.65 108.56 271.89 108.56 254.37"/><polygon class="cls-8" points="78.56 254.37 93.56 245.62 108.56 254.37 108.56 271.89 93.56 280.65 78.56 271.89 78.56 254.37"/><polygon class="cls-7" points="290.56 253.91 305.56 245.15 320.56 253.91 320.56 271.43 305.56 280.19 290.56 271.43 290.56 253.91"/><polygon class="cls-6" points="140.56 254.37 155.56 245.62 170.56 254.37 170.56 271.89 155.56 280.65 140.56 271.89 140.56 254.37"/></g><path class="cls-3" d="M327.87,268.72a12.68,12.68,0,0,0-7.42-2.89H117.85a12.64,12.64,0,0,0-7.41,2.89l-34,31.34v5.71s0,8.56,8.56,8.56H353.25c8.57,0,8.57-8.56,8.57-8.56v-5.71Z"/><line class="cls-9" x1="83.06" y1="301.89" x2="356.06" y2="301.89"/><line class="cls-9" x1="116.06" y1="265.89" x2="323.06" y2="265.89"/><circle class="cls-10" cx="216.02" cy="222.56" r="196.69"/><polygon class="cls-11" points="181.66 282.77 256.64 282.77 262.42 292.09 175.88 292.09 181.66 282.77"/><circle class="cls-12" cx="154.19" cy="158.04" r="4.97"/><circle class="cls-2" cx="186.19" cy="159.04" r="4.97"/><circle class="cls-12" cx="215.19" cy="159.04" r="4.97"/><circle class="cls-12" cx="305.19" cy="159.04" r="4.97"/><circle class="cls-13" cx="246.19" cy="159.04" r="4.97"/><circle class="cls-14" cx="276.19" cy="159.04" r="4.97"/><circle class="cls-14" cx="154.19" cy="210.04" r="4.97"/><circle class="cls-2" cx="186.19" cy="211.04" r="4.97"/><circle class="cls-12" cx="215.19" cy="211.04" r="4.97"/><circle class="cls-12" cx="305.19" cy="211.04" r="4.97"/><circle class="cls-13" cx="246.19" cy="211.04" r="4.97"/><circle class="cls-14" cx="276.19" cy="211.04" r="4.97"/><circle class="cls-12" cx="170.19" cy="184.04" r="4.97"/><circle class="cls-13" cx="202.19" cy="185.04" r="4.97"/><circle class="cls-14" cx="231.19" cy="185.04" r="4.97"/><circle class="cls-2" cx="138.19" cy="185.04" r="4.97"/><circle class="cls-2" cx="261.19" cy="185.04" r="4.97"/><circle class="cls-14" cx="292.19" cy="185.04" r="4.97"/><circle class="cls-13" cx="170.19" cy="235.04" r="4.97"/><circle class="cls-14" cx="202.19" cy="236.04" r="4.97"/><circle class="cls-2" cx="231.19" cy="236.04" r="4.97"/><circle class="cls-2" cx="139.19" cy="236.04" r="4.97"/><circle class="cls-14" cx="262.19" cy="236.04" r="4.97"/><circle class="cls-12" cx="291.19" cy="236.04" r="4.97"/></g></svg>