<?xml version="1.0" encoding="UTF-8" standalone="no"?>
<svg width="141px" height="73px" viewBox="0 0 141 73" version="1.1" xmlns="http://www.w3.org/2000/svg" xmlns:xlink="http://www.w3.org/1999/xlink">
    <!-- Generator: Sketch 3.7.2 (28276) - http://www.bohemiancoding.com/sketch -->
    <title>footer_logo</title>
    <desc>Created with Sketch.</desc>
    <defs></defs>
    <g id="Symbols" stroke="none" stroke-width="1" fill="none" fill-rule="evenodd">
        <g id="Footer" transform="translate(-142.000000, -73.000000)" fill="#FFFFFF">
            <g id="footer_logo" transform="translate(141.000000, 72.000000)">
                <g transform="translate(0.541600, 0.755901)" id="Shape">
                    <path d="M51.2945058,22.2180719 L51.2945058,1.52947869 C51.2945058,0.839858916 51.8587401,0.275624556 52.5483599,0.275624556 L62.579193,0.275624556 C63.2688127,0.275624556 63.8330471,0.839858916 63.8330471,1.52947869 L63.8330471,22.2180719 L51.2945058,22.2180719 L51.2945058,22.2180719 Z"></path>
                    <path d="M66.5497311,22.2180719 L66.5497311,11.7692874 C66.5497311,11.0796677 67.1139654,10.5154333 67.8035852,10.5154333 L77.8344183,10.5154333 C78.524038,10.5154333 79.0882724,11.0796677 79.0882724,11.7692874 L79.0882724,22.2180719 L66.5497311,22.2180719 L66.5497311,22.2180719 Z"></path>
                    <path d="M81.8049563,22.2180719 L81.8049563,5.91796815 C81.8049563,5.22834838 82.3691907,4.66411402 83.0588105,4.66411402 L93.0896435,4.66411402 C93.7792633,4.66411402 94.3434977,5.22834838 94.3434977,5.91796815 L94.3434977,22.2180719 L81.8049563,22.2180719 L81.8049563,22.2180719 Z"></path>
                    <path d="M55.5576098,46.6264323 L52.5692575,46.6264323 C51.8796377,46.6264323 51.3154034,46.062198 51.3154034,45.3725782 L51.3154034,25.0183461 L56.811464,25.0183461 L56.811464,45.3725782 C56.811464,46.062198 56.2472296,46.6264323 55.5576098,46.6264323 L55.5576098,46.6264323 Z"></path>
                    <path d="M62.579193,46.6264323 L60.8446948,46.6264323 C60.155075,46.6264323 59.5908406,46.062198 59.5908406,45.3725782 L59.5908406,25.0183461 L63.8330471,25.0183461 L63.8330471,45.3725782 C63.8330471,46.062198 63.2688127,46.6264323 62.579193,46.6264323 L62.579193,46.6264323 Z"></path>
                    <path d="M71.8577136,46.6264323 L67.8244828,46.6264323 C67.134863,46.6264323 66.5706286,46.062198 66.5706286,45.3725782 L66.5706286,25.0183461 L73.1115677,25.0183461 L73.1115677,45.3725782 C73.1115677,46.062198 72.5473333,46.6264323 71.8577136,46.6264323 L71.8577136,46.6264323 Z"></path>
                    <path d="M77.8344183,46.6264323 L77.1447985,46.6264323 C76.4551787,46.6264323 75.8909444,46.062198 75.8909444,45.3725782 L75.8909444,25.0183461 L79.0882724,25.0183461 L79.0882724,45.3725782 C79.0882724,46.062198 78.524038,46.6264323 77.8344183,46.6264323 L77.8344183,46.6264323 Z"></path>
                    <path d="M89.0564127,46.6264323 L93.0896435,46.6264323 C93.7792633,46.6264323 94.3434977,46.062198 94.3434977,45.3725782 L94.3434977,25.0183461 L87.8025586,25.0183461 L87.8025586,45.3725782 C87.8025586,46.062198 88.366793,46.6264323 89.0564127,46.6264323 L89.0564127,46.6264323 Z"></path>
                    <path d="M83.0588105,46.6264323 L83.7484303,46.6264323 C84.43805,46.6264323 85.0022844,46.062198 85.0022844,45.3725782 L85.0022844,25.0183461 L81.8049563,25.0183461 L81.8049563,45.3725782 C81.8049563,46.062198 82.3691907,46.6264323 83.0588105,46.6264323 L83.0588105,46.6264323 Z"></path>
                    <polygon points="0.597003678 72.8110861 0.597003678 63.3235899 1.41200886 63.3235899 1.41200886 72.0587737 6.00947402 72.0587737 6.00947402 72.7901886 0.597003678 72.7901886"></polygon>
                    <path d="M18.7151959,72.8110861 L17.7748053,70.4705584 L12.7593888,70.4705584 L11.8189982,72.8110861 L10.8786076,72.8110861 L14.7655554,63.3235899 L15.7686387,63.3235899 L19.6555865,72.8110861 L18.7151959,72.8110861 L18.7151959,72.8110861 Z M15.267097,64.2012878 L13.0310572,69.7391435 L17.5031369,69.7391435 L15.267097,64.2012878 L15.267097,64.2012878 Z"></path>
                    <path d="M25.2143398,72.8110861 L25.2143398,63.3235899 L29.1012876,63.3235899 C30.6895029,63.3235899 31.7134837,64.2430829 31.7134837,65.7477079 C31.7134837,66.9388693 30.8984786,67.7538745 30.0416782,67.921055 C31.0447615,68.067338 31.8806643,69.133114 31.8806643,70.2615827 C31.8806643,71.8289004 30.8566834,72.8110861 29.1639803,72.8110861 L25.2143398,72.8110861 L25.2143398,72.8110861 Z M30.877581,65.8312981 C30.877581,64.87001 30.2297564,64.0759023 29.0176974,64.0759023 L26.029345,64.0759023 L26.029345,67.5866939 L29.0176974,67.5866939 C30.2297564,67.5866939 30.877581,66.8134839 30.877581,65.8312981 L30.877581,65.8312981 Z M31.0656591,70.19889 C31.0656591,69.2376019 30.3969369,68.3181088 29.0803901,68.3181088 L26.029345,68.3181088 L26.029345,72.0796712 L29.0803901,72.0796712 C30.3133466,72.0587737 31.0656591,71.3482563 31.0656591,70.19889 L31.0656591,70.19889 Z"></path>
                    <polygon points="38.1290374 72.8110861 38.1290374 63.3235899 44.1475372 63.3235899 44.1475372 64.0550048 38.9440426 64.0550048 38.9440426 67.5657964 44.0430494 67.5657964 44.0430494 68.2972113 38.9440426 68.2972113 38.9440426 72.0587737 44.1475372 72.0587737 44.1475372 72.7901886 38.1290374 72.7901886"></polygon>
                    <polygon points="50.1242419 72.8110861 50.1242419 63.3235899 50.9392471 63.3235899 50.9392471 72.0587737 55.5367123 72.0587737 55.5367123 72.7901886 50.1242419 72.7901886"></polygon>
                    <polygon points="61.5761097 72.8110861 61.5761097 63.3235899 63.6031739 63.3235899 63.6031739 72.8110861"></polygon>
                    <polygon points="76.1835103 72.8110861 71.6696354 66.6254058 71.6696354 72.8110861 69.6425713 72.8110861 69.6425713 63.3235899 71.7114306 63.3235899 76.09992 69.279397 76.09992 63.3235899 78.1269842 63.3235899 78.1269842 72.8110861"></polygon>
                    <path d="M83.518557,71.4736417 L84.6261281,69.9063241 C85.2948503,70.5959438 86.3397288,71.2019733 87.6353781,71.2019733 C88.7638468,71.2019733 89.286286,70.7004317 89.286286,70.1570949 C89.286286,68.506187 83.8320205,69.6555532 83.8320205,66.1029665 C83.8320205,64.5356489 85.1903625,63.219102 87.4264024,63.219102 C88.9310273,63.219102 90.1848815,63.6788485 91.1252721,64.5356489 L89.9968033,66.0402738 C89.2235933,65.3297565 88.1996124,64.9953954 87.2383243,64.9953954 C86.3815239,64.9953954 85.9008798,65.3715516 85.9008798,65.935786 C85.9008798,67.4195134 91.3342478,66.4164301 91.3342478,69.9481192 C91.3342478,71.6826174 90.0803936,72.9991643 87.5308902,72.9991643 C85.7336993,72.9782667 84.4171525,72.3722372 83.518557,71.4736417 L83.518557,71.4736417 Z"></path>
                    <polygon points="96.8930011 72.8110861 96.8930011 63.3235899 98.9200653 63.3235899 98.9200653 72.8110861"></polygon>
                    <path d="M104.499716,68.067338 C104.499716,65.0789857 106.777551,63.1564093 109.556928,63.1564093 C111.521299,63.1564093 112.754256,64.1594926 113.464773,65.2670638 L111.792968,66.1865568 C111.354119,65.5178346 110.539114,64.9536002 109.556928,64.9536002 C107.82243,64.9536002 106.568575,66.2701471 106.568575,68.067338 C106.568575,69.8645289 107.82243,71.1810758 109.556928,71.1810758 C110.392831,71.1810758 111.186938,70.8049195 111.563094,70.4496609 L111.563094,69.3211921 L109.055386,69.3211921 L109.055386,67.5657964 L113.569261,67.5657964 L113.569261,71.2019733 C112.607973,72.2886469 111.249631,72.9782667 109.556928,72.9782667 C106.777551,72.9782667 104.499716,71.0556904 104.499716,68.067338 L104.499716,68.067338 Z"></path>
                    <polygon points="125.857032 72.8110861 125.857032 68.8196505 121.384952 68.8196505 121.384952 72.8110861 119.357888 72.8110861 119.357888 63.3235899 121.384952 63.3235899 121.384952 67.0433571 125.857032 67.0433571 125.857032 63.3235899 127.884096 63.3235899 127.884096 72.8110861"></polygon>
                    <polygon points="136.117738 72.8110861 136.117738 65.0998832 133.338361 65.0998832 133.338361 63.3235899 140.903281 63.3235899 140.903281 65.0998832 138.144802 65.0998832 138.144802 72.8110861"></polygon>
                </g>
            </g>
        </g>
    </g>
</svg>